  0
SECTION
  2
HEADER
  9
$ACADVER
  1
AC1009
  9
$LIMMIN
 10
27.84691666666667
 20
28.83668333333334
  9
$LIMMAX
 10
28.84108333333334
 20
30.21391666666667
  9
$GRIDMODE
 70
58
  9
$GRIDUNIT
 10
  0
 20
  0
  9
$SNAPMODE
 70
1
  9
$SNAPSTYLE
 70
0
  9
$SNAPUNIT
 10
0.07873333333333335
 20
0.07873333333333335
  9
$FILLMODE
 70
1
  0
ENDSEC
  0
SECTION
  2
TABLES
  0
TABLE
  2
LTYPE
 70
1
  0
LTYPE
  2
CONTINUOUS
 70
64
  3
Solid line
 72
65
 73
0
 40
  0
  0
ENDTAB
  0
TABLE
  2
LAYER
 70
224
  0
LAYER
  2
0
 70
64
  6
CONTINUOUS
 62
1
  0
LAYER
  2
PADSTACKS
 70
64
  6
CONTINUOUS
 62
1
  0
LAYER
  2
COMPONENTS_TOP
 70
64
  6
CONTINUOUS
 62
1
  0
LAYER
  2
COMPONENTS_BOTTOM
 70
64
  6
CONTINUOUS
 62
1
  0
LAYER
  2
GLOBAL_LAYER
 70
64
  6
CONTINUOUS
 62
1
  0
LAYER
  2
TOP
 70
64
  6
CONTINUOUS
 62
2
  0
LAYER
  2
BOTTOM
 70
64
  6
CONTINUOUS
 62
3
  0
LAYER
  2
GND
 70
64
  6
CONTINUOUS
 62
4
  0
LAYER
  2
INNER
 70
64
  6
CONTINUOUS
 62
5
  0
LAYER
  2
PLANE
 70
64
  6
CONTINUOUS
 62
6
  0
LAYER
  2
POWER
 70
64
  6
CONTINUOUS
 62
7
  0
LAYER
  2
INNER1
 70
64
  6
CONTINUOUS
 62
8
  0
LAYER
  2
INNER2
 70
64
  6
CONTINUOUS
 62
1
  0
LAYER
  2
INNER3
 70
64
  6
CONTINUOUS
 62
2
  0
LAYER
  2
INNER4
 70
64
  6
CONTINUOUS
 62
3
  0
LAYER
  2
INNER5
 70
64
  6
CONTINUOUS
 62
4
  0
LAYER
  2
INNER6
 70
64
  6
CONTINUOUS
 62
5
  0
LAYER
  2
INNER7
 70
64
  6
CONTINUOUS
 62
6
  0
LAYER
  2
INNER8
 70
64
  6
CONTINUOUS
 62
7
  0
LAYER
  2
INNER9
 70
64
  6
CONTINUOUS
 62
8
  0
LAYER
  2
INNER10
 70
64
  6
CONTINUOUS
 62
1
  0
LAYER
  2
INNER11
 70
64
  6
CONTINUOUS
 62
2
  0
LAYER
  2
INNER12
 70
64
  6
CONTINUOUS
 62
3
  0
LAYER
  2
INNER13
 70
64
  6
CONTINUOUS
 62
4
  0
LAYER
  2
INNER14
 70
64
  6
CONTINUOUS
 62
5
  0
LAYER
  2
INNER15
 70
64
  6
CONTINUOUS
 62
6
  0
LAYER
  2
INNER16
 70
64
  6
CONTINUOUS
 62
7
  0
LAYER
  2
SMTOP
 70
64
  6
CONTINUOUS
 62
8
  0
LAYER
  2
SMBOT
 70
64
  6
CONTINUOUS
 62
1
  0
LAYER
  2
SPTOP
 70
64
  6
CONTINUOUS
 62
2
  0
LAYER
  2
SPBOT
 70
64
  6
CONTINUOUS
 62
3
  0
LAYER
  2
SSTOP
 70
64
  6
CONTINUOUS
 62
4
  0
LAYER
  2
SSBOT
 70
64
  6
CONTINUOUS
 62
5
  0
LAYER
  2
ASYTOP
 70
64
  6
CONTINUOUS
 62
6
  0
LAYER
  2
ASYBOT
 70
64
  6
CONTINUOUS
 62
7
  0
LAYER
  2
DRLDWG
 70
64
  6
CONTINUOUS
 62
8
  0
LAYER
  2
DRILL
 70
64
  6
CONTINUOUS
 62
1
  0
LAYER
  2
FABDWG
 70
64
  6
CONTINUOUS
 62
2
  0
LAYER
  2
PHOTO
 70
64
  6
CONTINUOUS
 62
3
  0
LAYER
  2
HOLES
 70
64
  6
CONTINUOUS
 62
4
  0
LAYER
  2
TEXT_GLOBAL_LAYER
 70
64
  6
CONTINUOUS
 62
5
  0
LAYER
  2
TEXT_TOP
 70
64
  6
CONTINUOUS
 62
6
  0
LAYER
  2
TEXT_BOTTOM
 70
64
  6
CONTINUOUS
 62
7
  0
LAYER
  2
TEXT_GND
 70
64
  6
CONTINUOUS
 62
8
  0
LAYER
  2
TEXT_POWER
 70
64
  6
CONTINUOUS
 62
1
  0
LAYER
  2
TEXT_INNER
 70
64
  6
CONTINUOUS
 62
2
  0
LAYER
  2
TEXT_PLANE
 70
64
  6
CONTINUOUS
 62
3
  0
LAYER
  2
TEXT_INNER1
 70
64
  6
CONTINUOUS
 62
4
  0
LAYER
  2
TEXT_INNER2
 70
64
  6
CONTINUOUS
 62
5
  0
LAYER
  2
TEXT_INNER3
 70
64
  6
CONTINUOUS
 62
6
  0
LAYER
  2
TEXT_INNER4
 70
64
  6
CONTINUOUS
 62
7
  0
LAYER
  2
TEXT_INNER5
 70
64
  6
CONTINUOUS
 62
8
  0
LAYER
  2
TEXT_INNER6
 70
64
  6
CONTINUOUS
 62
1
  0
LAYER
  2
TEXT_INNER7
 70
64
  6
CONTINUOUS
 62
2
  0
LAYER
  2
TEXT_INNER8
 70
64
  6
CONTINUOUS
 62
3
  0
LAYER
  2
TEXT_INNER9
 70
64
  6
CONTINUOUS
 62
4
  0
LAYER
  2
TEXT_INNER10
 70
64
  6
CONTINUOUS
 62
5
  0
LAYER
  2
TEXT_INNER11
 70
64
  6
CONTINUOUS
 62
6
  0
LAYER
  2
TEXT_INNER12
 70
64
  6
CONTINUOUS
 62
7
  0
LAYER
  2
TEXT_INNER13
 70
64
  6
CONTINUOUS
 62
8
  0
LAYER
  2
TEXT_INNER14
 70
64
  6
CONTINUOUS
 62
1
  0
LAYER
  2
TEXT_INNER15
 70
64
  6
CONTINUOUS
 62
2
  0
LAYER
  2
TEXT_INNER16
 70
64
  6
CONTINUOUS
 62
3
  0
LAYER
  2
TEXT_SMTOP
 70
64
  6
CONTINUOUS
 62
4
  0
LAYER
  2
TEXT_SMBOT
 70
64
  6
CONTINUOUS
 62
5
  0
LAYER
  2
TEXT_SPTOP
 70
64
  6
CONTINUOUS
 62
6
  0
LAYER
  2
TEXT_SPBOT
 70
64
  6
CONTINUOUS
 62
7
  0
LAYER
  2
TEXT_SSTOP
 70
64
  6
CONTINUOUS
 62
8
  0
LAYER
  2
TEXT_SSBOT
 70
64
  6
CONTINUOUS
 62
1
  0
LAYER
  2
TEXT_ASYTOP
 70
64
  6
CONTINUOUS
 62
2
  0
LAYER
  2
TEXT_ASYBOT
 70
64
  6
CONTINUOUS
 62
3
  0
LAYER
  2
TEXT_DRLDWG
 70
64
  6
CONTINUOUS
 62
4
  0
LAYER
  2
TEXT_FABDWG
 70
64
  6
CONTINUOUS
 62
5
  0
LAYER
  2
TEXT_PHOTO
 70
64
  6
CONTINUOUS
 62
6
  0
LAYER
  2
TEXT_DRILL
 70
64
  6
CONTINUOUS
 62
7
  0
LAYER
  2
TEXT_HOLES
 70
64
  6
CONTINUOUS
 62
8
  0
LAYER
  2
OBS_GLOBAL_LAYER
 70
64
  6
CONTINUOUS
 62
1
  0
LAYER
  2
OBS_TOP
 70
64
  6
CONTINUOUS
 62
2
  0
LAYER
  2
OBS_BOTTOM
 70
64
  6
CONTINUOUS
 62
3
  0
LAYER
  2
OBS_GND
 70
64
  6
CONTINUOUS
 62
4
  0
LAYER
  2
OBS_POWER
 70
64
  6
CONTINUOUS
 62
5
  0
LAYER
  2
OBS_INNER
 70
64
  6
CONTINUOUS
 62
6
  0
LAYER
  2
OBS_PLANE
 70
64
  6
CONTINUOUS
 62
7
  0
LAYER
  2
OBS_INNER1
 70
64
  6
CONTINUOUS
 62
8
  0
LAYER
  2
OBS_INNER2
 70
64
  6
CONTINUOUS
 62
1
  0
LAYER
  2
OBS_INNER3
 70
64
  6
CONTINUOUS
 62
2
  0
LAYER
  2
OBS_INNER4
 70
64
  6
CONTINUOUS
 62
3
  0
LAYER
  2
OBS_INNER5
 70
64
  6
CONTINUOUS
 62
4
  0
LAYER
  2
OBS_INNER6
 70
64
  6
CONTINUOUS
 62
5
  0
LAYER
  2
OBS_INNER7
 70
64
  6
CONTINUOUS
 62
6
  0
LAYER
  2
OBS_INNER8
 70
64
  6
CONTINUOUS
 62
7
  0
LAYER
  2
OBS_INNER9
 70
64
  6
CONTINUOUS
 62
8
  0
LAYER
  2
OBS_INNER10
 70
64
  6
CONTINUOUS
 62
1
  0
LAYER
  2
OBS_INNER11
 70
64
  6
CONTINUOUS
 62
2
  0
LAYER
  2
OBS_INNER12
 70
64
  6
CONTINUOUS
 62
3
  0
LAYER
  2
OBS_INNER13
 70
64
  6
CONTINUOUS
 62
4
  0
LAYER
  2
OBS_INNER14
 70
64
  6
CONTINUOUS
 62
5
  0
LAYER
  2
OBS_INNER15
 70
64
  6
CONTINUOUS
 62
6
  0
LAYER
  2
OBS_INNER16
 70
64
  6
CONTINUOUS
 62
7
  0
LAYER
  2
OBS_SMTOP
 70
64
  6
CONTINUOUS
 62
8
  0
LAYER
  2
OBS_SMBOT
 70
64
  6
CONTINUOUS
 62
1
  0
LAYER
  2
OBS_SPTOP
 70
64
  6
CONTINUOUS
 62
2
  0
LAYER
  2
OBS_SPBOT
 70
64
  6
CONTINUOUS
 62
3
  0
LAYER
  2
OBS_SSTOP
 70
64
  6
CONTINUOUS
 62
4
  0
LAYER
  2
OBS_SSBOT
 70
64
  6
CONTINUOUS
 62
5
  0
LAYER
  2
OBS_ASYTOP
 70
64
  6
CONTINUOUS
 62
6
  0
LAYER
  2
OBS_ASYBOT
 70
64
  6
CONTINUOUS
 62
7
  0
LAYER
  2
OBS_DRLDWG
 70
64
  6
CONTINUOUS
 62
8
  0
LAYER
  2
OBS_DRILL
 70
64
  6
CONTINUOUS
 62
1
  0
LAYER
  2
OBS_FABDWG
 70
64
  6
CONTINUOUS
 62
2
  0
LAYER
  2
OBS_PHOTO
 70
64
  6
CONTINUOUS
 62
3
  0
LAYER
  2
OBS_HOLES
 70
64
  6
CONTINUOUS
 62
4
  0
LAYER
  2
COPPER_GLOBAL_LAYER
 70
64
  6
CONTINUOUS
 62
5
  0
LAYER
  2
COPPER_TOP
 70
64
  6
CONTINUOUS
 62
6
  0
LAYER
  2
COPPER_BOT
 70
64
  6
CONTINUOUS
 62
7
  0
LAYER
  2
COPPER_GND
 70
64
  6
CONTINUOUS
 62
8
  0
LAYER
  2
COPPER_POWER
 70
64
  6
CONTINUOUS
 62
1
  0
LAYER
  2
COPPER_INNER
 70
64
  6
CONTINUOUS
 62
2
  0
LAYER
  2
COPPER_PLANE
 70
64
  6
CONTINUOUS
 62
3
  0
LAYER
  2
COPPER_INNER1
 70
64
  6
CONTINUOUS
 62
4
  0
LAYER
  2
COPPER_INNER2
 70
64
  6
CONTINUOUS
 62
5
  0
LAYER
  2
COPPER_INNER3
 70
64
  6
CONTINUOUS
 62
6
  0
LAYER
  2
COPPER_INNER4
 70
64
  6
CONTINUOUS
 62
7
  0
LAYER
  2
COPPER_INNER5
 70
64
  6
CONTINUOUS
 62
8
  0
LAYER
  2
COPPER_INNER6
 70
64
  6
CONTINUOUS
 62
1
  0
LAYER
  2
COPPER_INNER7
 70
64
  6
CONTINUOUS
 62
2
  0
LAYER
  2
COPPER_INNER8
 70
64
  6
CONTINUOUS
 62
3
  0
LAYER
  2
COPPER_INNER9
 70
64
  6
CONTINUOUS
 62
4
  0
LAYER
  2
COPPER_INNER10
 70
64
  6
CONTINUOUS
 62
5
  0
LAYER
  2
COPPER_INNER11
 70
64
  6
CONTINUOUS
 62
6
  0
LAYER
  2
COPPER_INNER12
 70
64
  6
CONTINUOUS
 62
7
  0
LAYER
  2
COPPER_INNER13
 70
64
  6
CONTINUOUS
 62
8
  0
LAYER
  2
COPPER_INNER14
 70
64
  6
CONTINUOUS
 62
1
  0
LAYER
  2
COPPER_INNER15
 70
64
  6
CONTINUOUS
 62
2
  0
LAYER
  2
COPPER_INNER16
 70
64
  6
CONTINUOUS
 62
3
  0
LAYER
  2
COPPER_SMTOP
 70
64
  6
CONTINUOUS
 62
4
  0
LAYER
  2
COPPER_SMBOT
 70
64
  6
CONTINUOUS
 62
5
  0
LAYER
  2
COPPER_SPTOP
 70
64
  6
CONTINUOUS
 62
6
  0
LAYER
  2
COPPER_SPBOT
 70
64
  6
CONTINUOUS
 62
7
  0
LAYER
  2
COPPER_SSTOP
 70
64
  6
CONTINUOUS
 62
8
  0
LAYER
  2
COPPER_SSBOT
 70
64
  6
CONTINUOUS
 62
1
  0
LAYER
  2
COPPER_ASYTOP
 70
64
  6
CONTINUOUS
 62
2
  0
LAYER
  2
COPPER_ASYBOT
 70
64
  6
CONTINUOUS
 62
3
  0
LAYER
  2
COPPER_DRLDWG
 70
64
  6
CONTINUOUS
 62
4
  0
LAYER
  2
COPPER_DRILL
 70
64
  6
CONTINUOUS
 62
5
  0
LAYER
  2
COPPER_HOLES
 70
64
  6
CONTINUOUS
 62
6
  0
LAYER
  2
TRACKS_GLOBAL_LAYER
 70
64
  6
CONTINUOUS
 62
7
  0
LAYER
  2
TRACKS_TOP
 70
64
  6
CONTINUOUS
 62
8
  0
LAYER
  2
TRACKS_BOTTOM
 70
64
  6
CONTINUOUS
 62
1
  0
LAYER
  2
TRACKS_GND
 70
64
  6
CONTINUOUS
 62
2
  0
LAYER
  2
TRACKS_INNER
 70
64
  6
CONTINUOUS
 62
3
  0
LAYER
  2
TRACKS_PLANE
 70
64
  6
CONTINUOUS
 62
4
  0
LAYER
  2
TRACKS_POWER
 70
64
  6
CONTINUOUS
 62
5
  0
LAYER
  2
TRACKS_INNER1
 70
64
  6
CONTINUOUS
 62
6
  0
LAYER
  2
TRACKS_INNER2
 70
64
  6
CONTINUOUS
 62
7
  0
LAYER
  2
TRACKS_INNER3
 70
64
  6
CONTINUOUS
 62
8
  0
LAYER
  2
TRACKS_INNER4
 70
64
  6
CONTINUOUS
 62
1
  0
LAYER
  2
TRACKS_INNER5
 70
64
  6
CONTINUOUS
 62
2
  0
LAYER
  2
TRACKS_INNER6
 70
64
  6
CONTINUOUS
 62
3
  0
LAYER
  2
TRACKS_INNER7
 70
64
  6
CONTINUOUS
 62
4
  0
LAYER
  2
TRACKS_INNER8
 70
64
  6
CONTINUOUS
 62
5
  0
LAYER
  2
TRACKS_INNER9
 70
64
  6
CONTINUOUS
 62
6
  0
LAYER
  2
TRACKS_INNER10
 70
64
  6
CONTINUOUS
 62
7
  0
LAYER
  2
TRACKS_INNER11
 70
64
  6
CONTINUOUS
 62
8
  0
LAYER
  2
TRACKS_INNER12
 70
64
  6
CONTINUOUS
 62
1
  0
LAYER
  2
TRACKS_INNER13
 70
64
  6
CONTINUOUS
 62
2
  0
LAYER
  2
TRACKS_INNER14
 70
64
  6
CONTINUOUS
 62
3
  0
LAYER
  2
TRACKS_INNER15
 70
64
  6
CONTINUOUS
 62
4
  0
LAYER
  2
TRACKS_INNER16
 70
64
  6
CONTINUOUS
 62
5
  0
ENDTAB
  0
TABLE
  2
STYLE
 70
0
  0
ENDTAB
  0
ENDSEC
  0
SECTION
  2
BLOCKS
  0
BLOCK
  8
0
  2
viastack_VIA1
 10
0.0
 20
0.0
 30
0.0
 70
2
  0
POINT
  8
0
 10
  0
 20
  0
  0
POLYLINE
  8
TOP
 66
1
 70
1
 40
0.03000000000000001
 41
0.03000000000000001
  0
VERTEX
  8
TOP
 10
-0.015
 20
  0
 42
  1
  0
VERTEX
  8
TOP
 10
0.015
 20
  0
 42
  1
  0
SEQEND
  8
TOP
  0
POLYLINE
  8
BOTTOM
 66
1
 70
1
 40
0.03000000000000001
 41
0.03000000000000001
  0
VERTEX
  8
BOTTOM
 10
-0.015
 20
  0
 42
  1
  0
VERTEX
  8
BOTTOM
 10
0.015
 20
  0
 42
  1
  0
SEQEND
  8
BOTTOM
  0
POLYLINE
  8
GND
 66
1
 70
1
 40
0.03500000000000001
 41
0.03500000000000001
  0
VERTEX
  8
GND
 10
-0.01750000000000001
 20
  0
 42
  1
  0
VERTEX
  8
GND
 10
0.01750000000000001
 20
  0
 42
  1
  0
SEQEND
  8
GND
  0
POLYLINE
  8
POWER
 66
1
 70
1
 40
0.03500000000000001
 41
0.03500000000000001
  0
VERTEX
  8
POWER
 10
-0.01750000000000001
 20
  0
 42
  1
  0
VERTEX
  8
POWER
 10
0.01750000000000001
 20
  0
 42
  1
  0
SEQEND
  8
POWER
  0
POLYLINE
  8
INNER1
 66
1
 70
1
 40
0.03000000000000001
 41
0.03000000000000001
  0
VERTEX
  8
INNER1
 10
-0.015
 20
  0
 42
  1
  0
VERTEX
  8
INNER1
 10
0.015
 20
  0
 42
  1
  0
SEQEND
  8
INNER1
  0
POLYLINE
  8
INNER2
 66
1
 70
1
 40
0.03000000000000001
 41
0.03000000000000001
  0
VERTEX
  8
INNER2
 10
-0.015
 20
  0
 42
  1
  0
VERTEX
  8
INNER2
 10
0.015
 20
  0
 42
  1
  0
SEQEND
  8
INNER2
  0
POLYLINE
  8
INNER3
 66
1
 70
1
 40
0.03000000000000001
 41
0.03000000000000001
  0
VERTEX
  8
INNER3
 10
-0.015
 20
  0
 42
  1
  0
VERTEX
  8
INNER3
 10
0.015
 20
  0
 42
  1
  0
SEQEND
  8
INNER3
  0
POLYLINE
  8
INNER4
 66
1
 70
1
 40
0.03000000000000001
 41
0.03000000000000001
  0
VERTEX
  8
INNER4
 10
-0.015
 20
  0
 42
  1
  0
VERTEX
  8
INNER4
 10
0.015
 20
  0
 42
  1
  0
SEQEND
  8
INNER4
  0
POLYLINE
  8
INNER5
 66
1
 70
1
 40
0.03000000000000001
 41
0.03000000000000001
  0
VERTEX
  8
INNER5
 10
-0.015
 20
  0
 42
  1
  0
VERTEX
  8
INNER5
 10
0.015
 20
  0
 42
  1
  0
SEQEND
  8
INNER5
  0
POLYLINE
  8
INNER6
 66
1
 70
1
 40
0.03000000000000001
 41
0.03000000000000001
  0
VERTEX
  8
INNER6
 10
-0.015
 20
  0
 42
  1
  0
VERTEX
  8
INNER6
 10
0.015
 20
  0
 42
  1
  0
SEQEND
  8
INNER6
  0
POLYLINE
  8
INNER7
 66
1
 70
1
 40
0.03000000000000001
 41
0.03000000000000001
  0
VERTEX
  8
INNER7
 10
-0.015
 20
  0
 42
  1
  0
VERTEX
  8
INNER7
 10
0.015
 20
  0
 42
  1
  0
SEQEND
  8
INNER7
  0
POLYLINE
  8
INNER8
 66
1
 70
1
 40
0.03000000000000001
 41
0.03000000000000001
  0
VERTEX
  8
INNER8
 10
-0.015
 20
  0
 42
  1
  0
VERTEX
  8
INNER8
 10
0.015
 20
  0
 42
  1
  0
SEQEND
  8
INNER8
  0
POLYLINE
  8
INNER9
 66
1
 70
1
 40
0.03000000000000001
 41
0.03000000000000001
  0
VERTEX
  8
INNER9
 10
-0.015
 20
  0
 42
  1
  0
VERTEX
  8
INNER9
 10
0.015
 20
  0
 42
  1
  0
SEQEND
  8
INNER9
  0
POLYLINE
  8
INNER10
 66
1
 70
1
 40
0.03000000000000001
 41
0.03000000000000001
  0
VERTEX
  8
INNER10
 10
-0.015
 20
  0
 42
  1
  0
VERTEX
  8
INNER10
 10
0.015
 20
  0
 42
  1
  0
SEQEND
  8
INNER10
  0
POLYLINE
  8
INNER11
 66
1
 70
1
 40
0.03000000000000001
 41
0.03000000000000001
  0
VERTEX
  8
INNER11
 10
-0.015
 20
  0
 42
  1
  0
VERTEX
  8
INNER11
 10
0.015
 20
  0
 42
  1
  0
SEQEND
  8
INNER11
  0
POLYLINE
  8
INNER12
 66
1
 70
1
 40
0.03000000000000001
 41
0.03000000000000001
  0
VERTEX
  8
INNER12
 10
-0.015
 20
  0
 42
  1
  0
VERTEX
  8
INNER12
 10
0.015
 20
  0
 42
  1
  0
SEQEND
  8
INNER12
  0
POLYLINE
  8
SMTOP
 66
1
 70
1
 40
0.03250000000000001
 41
0.03250000000000001
  0
VERTEX
  8
SMTOP
 10
-0.01625
 20
  0
 42
  1
  0
VERTEX
  8
SMTOP
 10
0.01625
 20
  0
 42
  1
  0
SEQEND
  8
SMTOP
  0
POLYLINE
  8
SMBOT
 66
1
 70
1
 40
0.03250000000000001
 41
0.03250000000000001
  0
VERTEX
  8
SMBOT
 10
-0.01625
 20
  0
 42
  1
  0
VERTEX
  8
SMBOT
 10
0.01625
 20
  0
 42
  1
  0
SEQEND
  8
SMBOT
  0
POLYLINE
  8
DRLDWG
 66
1
 70
1
 40
0.01750000000000001
 41
0.01750000000000001
  0
VERTEX
  8
DRLDWG
 10
-0.008750000000000003
 20
  0
 42
  1
  0
VERTEX
  8
DRLDWG
 10
0.008750000000000003
 20
  0
 42
  1
  0
SEQEND
  8
DRLDWG
  0
POLYLINE
  8
DRILL
 66
1
 70
1
 40
0.01750000000000001
 41
0.01750000000000001
  0
VERTEX
  8
DRILL
 10
-0.008750000000000003
 20
  0
 42
  1
  0
VERTEX
  8
DRILL
 10
0.008750000000000003
 20
  0
 42
  1
  0
SEQEND
  8
DRILL
  0
POLYLINE
  8
FABDWG
 66
1
 70
1
 40
0.03000000000000001
 41
0.03000000000000001
  0
VERTEX
  8
FABDWG
 10
-0.015
 20
  0
 42
  1
  0
VERTEX
  8
FABDWG
 10
0.015
 20
  0
 42
  1
  0
SEQEND
  8
FABDWG
  0
POLYLINE
  8
NOTES
 66
1
 70
1
 40
0.03000000000000001
 41
0.03000000000000001
  0
VERTEX
  8
NOTES
 10
-0.015
 20
  0
 42
  1
  0
VERTEX
  8
NOTES
 10
0.015
 20
  0
 42
  1
  0
SEQEND
  8
NOTES
  0
ENDBLK
  0
BLOCK
  8
0
  2
viastack_VIA2
 10
0.0
 20
0.0
 30
0.0
 70
2
  0
POINT
  8
0
 10
  0
 20
  0
  0
ENDBLK
  0
BLOCK
  8
0
  2
viastack_VIA3
 10
0.0
 20
0.0
 30
0.0
 70
2
  0
POINT
  8
0
 10
  0
 20
  0
  0
ENDBLK
  0
BLOCK
  8
0
  2
viastack_VIA4
 10
0.0
 20
0.0
 30
0.0
 70
2
  0
POINT
  8
0
 10
  0
 20
  0
  0
ENDBLK
  0
BLOCK
  8
0
  2
viastack_VIA5
 10
0.0
 20
0.0
 30
0.0
 70
2
  0
POINT
  8
0
 10
  0
 20
  0
  0
ENDBLK
  0
BLOCK
  8
0
  2
viastack_VIA6
 10
0.0
 20
0.0
 30
0.0
 70
2
  0
POINT
  8
0
 10
  0
 20
  0
  0
ENDBLK
  0
BLOCK
  8
0
  2
viastack_VIA7
 10
0.0
 20
0.0
 30
0.0
 70
2
  0
POINT
  8
0
 10
  0
 20
  0
  0
ENDBLK
  0
BLOCK
  8
0
  2
viastack_VIA8
 10
0.0
 20
0.0
 30
0.0
 70
2
  0
POINT
  8
0
 10
  0
 20
  0
  0
ENDBLK
  0
BLOCK
  8
0
  2
viastack_VIA9
 10
0.0
 20
0.0
 30
0.0
 70
2
  0
POINT
  8
0
 10
  0
 20
  0
  0
ENDBLK
  0
BLOCK
  8
0
  2
viastack_VIA10
 10
0.0
 20
0.0
 30
0.0
 70
2
  0
POINT
  8
0
 10
  0
 20
  0
  0
ENDBLK
  0
BLOCK
  8
0
  2
viastack_VIA11
 10
0.0
 20
0.0
 30
0.0
 70
2
  0
POINT
  8
0
 10
  0
 20
  0
  0
ENDBLK
  0
BLOCK
  8
0
  2
viastack_VIA12
 10
0.0
 20
0.0
 30
0.0
 70
2
  0
POINT
  8
0
 10
  0
 20
  0
  0
ENDBLK
  0
BLOCK
  8
0
  2
viastack_VIA13
 10
0.0
 20
0.0
 30
0.0
 70
2
  0
POINT
  8
0
 10
  0
 20
  0
  0
ENDBLK
  0
BLOCK
  8
0
  2
viastack_VIA14
 10
0.0
 20
0.0
 30
0.0
 70
2
  0
POINT
  8
0
 10
  0
 20
  0
  0
ENDBLK
  0
BLOCK
  8
0
  2
viastack_VIA15
 10
0.0
 20
0.0
 30
0.0
 70
2
  0
POINT
  8
0
 10
  0
 20
  0
  0
ENDBLK
  0
BLOCK
  8
0
  2
viastack_VIA16
 10
0.0
 20
0.0
 30
0.0
 70
2
  0
POINT
  8
0
 10
  0
 20
  0
  0
ENDBLK
  0
BLOCK
  8
0
  2
padstack_T1
 10
0.0
 20
0.0
 30
0.0
 70
2
  0
POINT
  8
0
 10
  0
 20
  0
  0
POLYLINE
  8
TOP
 66
1
 70
1
 40
0.03100000000000001
 41
0.03100000000000001
  0
VERTEX
  8
TOP
 10
-0.0155
 20
  0
 42
  1
  0
VERTEX
  8
TOP
 10
0.0155
 20
  0
 42
  1
  0
SEQEND
  8
TOP
  0
POLYLINE
  8
BOTTOM
 66
1
 70
1
 40
0.03100000000000001
 41
0.03100000000000001
  0
VERTEX
  8
BOTTOM
 10
-0.0155
 20
  0
 42
  1
  0
VERTEX
  8
BOTTOM
 10
0.0155
 20
  0
 42
  1
  0
SEQEND
  8
BOTTOM
  0
POLYLINE
  8
GND
 66
1
 70
1
 40
0.03500000000000001
 41
0.03500000000000001
  0
VERTEX
  8
GND
 10
-0.01750000000000001
 20
  0
 42
  1
  0
VERTEX
  8
GND
 10
0.01750000000000001
 20
  0
 42
  1
  0
SEQEND
  8
GND
  0
POLYLINE
  8
POWER
 66
1
 70
1
 40
0.03500000000000001
 41
0.03500000000000001
  0
VERTEX
  8
POWER
 10
-0.01750000000000001
 20
  0
 42
  1
  0
VERTEX
  8
POWER
 10
0.01750000000000001
 20
  0
 42
  1
  0
SEQEND
  8
POWER
  0
POLYLINE
  8
INNER1
 66
1
 70
1
 40
0.03100000000000001
 41
0.03100000000000001
  0
VERTEX
  8
INNER1
 10
-0.0155
 20
  0
 42
  1
  0
VERTEX
  8
INNER1
 10
0.0155
 20
  0
 42
  1
  0
SEQEND
  8
INNER1
  0
POLYLINE
  8
INNER2
 66
1
 70
1
 40
0.03100000000000001
 41
0.03100000000000001
  0
VERTEX
  8
INNER2
 10
-0.0155
 20
  0
 42
  1
  0
VERTEX
  8
INNER2
 10
0.0155
 20
  0
 42
  1
  0
SEQEND
  8
INNER2
  0
POLYLINE
  8
INNER3
 66
1
 70
1
 40
0.03100000000000001
 41
0.03100000000000001
  0
VERTEX
  8
INNER3
 10
-0.0155
 20
  0
 42
  1
  0
VERTEX
  8
INNER3
 10
0.0155
 20
  0
 42
  1
  0
SEQEND
  8
INNER3
  0
POLYLINE
  8
INNER4
 66
1
 70
1
 40
0.03100000000000001
 41
0.03100000000000001
  0
VERTEX
  8
INNER4
 10
-0.0155
 20
  0
 42
  1
  0
VERTEX
  8
INNER4
 10
0.0155
 20
  0
 42
  1
  0
SEQEND
  8
INNER4
  0
POLYLINE
  8
INNER5
 66
1
 70
1
 40
0.03100000000000001
 41
0.03100000000000001
  0
VERTEX
  8
INNER5
 10
-0.0155
 20
  0
 42
  1
  0
VERTEX
  8
INNER5
 10
0.0155
 20
  0
 42
  1
  0
SEQEND
  8
INNER5
  0
POLYLINE
  8
INNER6
 66
1
 70
1
 40
0.03100000000000001
 41
0.03100000000000001
  0
VERTEX
  8
INNER6
 10
-0.0155
 20
  0
 42
  1
  0
VERTEX
  8
INNER6
 10
0.0155
 20
  0
 42
  1
  0
SEQEND
  8
INNER6
  0
POLYLINE
  8
INNER7
 66
1
 70
1
 40
0.03100000000000001
 41
0.03100000000000001
  0
VERTEX
  8
INNER7
 10
-0.0155
 20
  0
 42
  1
  0
VERTEX
  8
INNER7
 10
0.0155
 20
  0
 42
  1
  0
SEQEND
  8
INNER7
  0
POLYLINE
  8
INNER8
 66
1
 70
1
 40
0.03100000000000001
 41
0.03100000000000001
  0
VERTEX
  8
INNER8
 10
-0.0155
 20
  0
 42
  1
  0
VERTEX
  8
INNER8
 10
0.0155
 20
  0
 42
  1
  0
SEQEND
  8
INNER8
  0
POLYLINE
  8
INNER9
 66
1
 70
1
 40
0.03100000000000001
 41
0.03100000000000001
  0
VERTEX
  8
INNER9
 10
-0.0155
 20
  0
 42
  1
  0
VERTEX
  8
INNER9
 10
0.0155
 20
  0
 42
  1
  0
SEQEND
  8
INNER9
  0
POLYLINE
  8
INNER10
 66
1
 70
1
 40
0.03100000000000001
 41
0.03100000000000001
  0
VERTEX
  8
INNER10
 10
-0.0155
 20
  0
 42
  1
  0
VERTEX
  8
INNER10
 10
0.0155
 20
  0
 42
  1
  0
SEQEND
  8
INNER10
  0
POLYLINE
  8
INNER11
 66
1
 70
1
 40
0.03100000000000001
 41
0.03100000000000001
  0
VERTEX
  8
INNER11
 10
-0.0155
 20
  0
 42
  1
  0
VERTEX
  8
INNER11
 10
0.0155
 20
  0
 42
  1
  0
SEQEND
  8
INNER11
  0
POLYLINE
  8
INNER12
 66
1
 70
1
 40
0.03100000000000001
 41
0.03100000000000001
  0
VERTEX
  8
INNER12
 10
-0.0155
 20
  0
 42
  1
  0
VERTEX
  8
INNER12
 10
0.0155
 20
  0
 42
  1
  0
SEQEND
  8
INNER12
  0
POLYLINE
  8
SMTOP
 66
1
 70
1
 40
0.03350000000000001
 41
0.03350000000000001
  0
VERTEX
  8
SMTOP
 10
-0.01675
 20
  0
 42
  1
  0
VERTEX
  8
SMTOP
 10
0.01675
 20
  0
 42
  1
  0
SEQEND
  8
SMTOP
  0
POLYLINE
  8
SMBOT
 66
1
 70
1
 40
0.03350000000000001
 41
0.03350000000000001
  0
VERTEX
  8
SMBOT
 10
-0.01675
 20
  0
 42
  1
  0
VERTEX
  8
SMBOT
 10
0.01675
 20
  0
 42
  1
  0
SEQEND
  8
SMBOT
  0
POLYLINE
  8
DRLDWG
 66
1
 70
1
 40
0.01900000000000001
 41
0.01900000000000001
  0
VERTEX
  8
DRLDWG
 10
-0.009500000000000003
 20
  0
 42
  1
  0
VERTEX
  8
DRLDWG
 10
0.009500000000000003
 20
  0
 42
  1
  0
SEQEND
  8
DRLDWG
  0
POLYLINE
  8
DRILL
 66
1
 70
1
 40
0.01900000000000001
 41
0.01900000000000001
  0
VERTEX
  8
DRILL
 10
-0.009500000000000003
 20
  0
 42
  1
  0
VERTEX
  8
DRILL
 10
0.009500000000000003
 20
  0
 42
  1
  0
SEQEND
  8
DRILL
  0
POLYLINE
  8
FABDWG
 66
1
 70
1
 40
0.03100000000000001
 41
0.03100000000000001
  0
VERTEX
  8
FABDWG
 10
-0.0155
 20
  0
 42
  1
  0
VERTEX
  8
FABDWG
 10
0.0155
 20
  0
 42
  1
  0
SEQEND
  8
FABDWG
  0
POLYLINE
  8
NOTES
 66
1
 70
1
 40
0.03100000000000001
 41
0.03100000000000001
  0
VERTEX
  8
NOTES
 10
-0.0155
 20
  0
 42
  1
  0
VERTEX
  8
NOTES
 10
0.0155
 20
  0
 42
  1
  0
SEQEND
  8
NOTES
  0
ENDBLK
  0
BLOCK
  8
0
  2
padstack_T2
 10
0.0
 20
0.0
 30
0.0
 70
2
  0
POINT
  8
0
 10
  0
 20
  0
  0
POLYLINE
  8
TOP
 66
1
 70
0
 40
0.06200000000000001
 41
0.06200000000000001
  0
VERTEX
  8
TOP
 10
-0.03100000000000001
 20
  0
  0
VERTEX
  8
TOP
 10
0.03100000000000001
 20
  0
  0
SEQEND
  8
TOP
  0
POLYLINE
  8
BOTTOM
 66
1
 70
1
 40
0.03100000000000001
 41
0.03100000000000001
  0
VERTEX
  8
BOTTOM
 10
-0.0155
 20
  0
 42
  1
  0
VERTEX
  8
BOTTOM
 10
0.0155
 20
  0
 42
  1
  0
SEQEND
  8
BOTTOM
  0
POLYLINE
  8
GND
 66
1
 70
1
 40
0.03500000000000001
 41
0.03500000000000001
  0
VERTEX
  8
GND
 10
-0.01750000000000001
 20
  0
 42
  1
  0
VERTEX
  8
GND
 10
0.01750000000000001
 20
  0
 42
  1
  0
SEQEND
  8
GND
  0
POLYLINE
  8
POWER
 66
1
 70
1
 40
0.03500000000000001
 41
0.03500000000000001
  0
VERTEX
  8
POWER
 10
-0.01750000000000001
 20
  0
 42
  1
  0
VERTEX
  8
POWER
 10
0.01750000000000001
 20
  0
 42
  1
  0
SEQEND
  8
POWER
  0
POLYLINE
  8
INNER1
 66
1
 70
1
 40
0.03100000000000001
 41
0.03100000000000001
  0
VERTEX
  8
INNER1
 10
-0.0155
 20
  0
 42
  1
  0
VERTEX
  8
INNER1
 10
0.0155
 20
  0
 42
  1
  0
SEQEND
  8
INNER1
  0
POLYLINE
  8
INNER2
 66
1
 70
1
 40
0.03100000000000001
 41
0.03100000000000001
  0
VERTEX
  8
INNER2
 10
-0.0155
 20
  0
 42
  1
  0
VERTEX
  8
INNER2
 10
0.0155
 20
  0
 42
  1
  0
SEQEND
  8
INNER2
  0
POLYLINE
  8
INNER3
 66
1
 70
1
 40
0.03100000000000001
 41
0.03100000000000001
  0
VERTEX
  8
INNER3
 10
-0.0155
 20
  0
 42
  1
  0
VERTEX
  8
INNER3
 10
0.0155
 20
  0
 42
  1
  0
SEQEND
  8
INNER3
  0
POLYLINE
  8
INNER4
 66
1
 70
1
 40
0.03100000000000001
 41
0.03100000000000001
  0
VERTEX
  8
INNER4
 10
-0.0155
 20
  0
 42
  1
  0
VERTEX
  8
INNER4
 10
0.0155
 20
  0
 42
  1
  0
SEQEND
  8
INNER4
  0
POLYLINE
  8
INNER5
 66
1
 70
1
 40
0.03100000000000001
 41
0.03100000000000001
  0
VERTEX
  8
INNER5
 10
-0.0155
 20
  0
 42
  1
  0
VERTEX
  8
INNER5
 10
0.0155
 20
  0
 42
  1
  0
SEQEND
  8
INNER5
  0
POLYLINE
  8
INNER6
 66
1
 70
1
 40
0.03100000000000001
 41
0.03100000000000001
  0
VERTEX
  8
INNER6
 10
-0.0155
 20
  0
 42
  1
  0
VERTEX
  8
INNER6
 10
0.0155
 20
  0
 42
  1
  0
SEQEND
  8
INNER6
  0
POLYLINE
  8
INNER7
 66
1
 70
1
 40
0.03100000000000001
 41
0.03100000000000001
  0
VERTEX
  8
INNER7
 10
-0.0155
 20
  0
 42
  1
  0
VERTEX
  8
INNER7
 10
0.0155
 20
  0
 42
  1
  0
SEQEND
  8
INNER7
  0
POLYLINE
  8
INNER8
 66
1
 70
1
 40
0.03100000000000001
 41
0.03100000000000001
  0
VERTEX
  8
INNER8
 10
-0.0155
 20
  0
 42
  1
  0
VERTEX
  8
INNER8
 10
0.0155
 20
  0
 42
  1
  0
SEQEND
  8
INNER8
  0
POLYLINE
  8
INNER9
 66
1
 70
1
 40
0.03100000000000001
 41
0.03100000000000001
  0
VERTEX
  8
INNER9
 10
-0.0155
 20
  0
 42
  1
  0
VERTEX
  8
INNER9
 10
0.0155
 20
  0
 42
  1
  0
SEQEND
  8
INNER9
  0
POLYLINE
  8
INNER10
 66
1
 70
1
 40
0.03100000000000001
 41
0.03100000000000001
  0
VERTEX
  8
INNER10
 10
-0.0155
 20
  0
 42
  1
  0
VERTEX
  8
INNER10
 10
0.0155
 20
  0
 42
  1
  0
SEQEND
  8
INNER10
  0
POLYLINE
  8
INNER11
 66
1
 70
1
 40
0.03100000000000001
 41
0.03100000000000001
  0
VERTEX
  8
INNER11
 10
-0.0155
 20
  0
 42
  1
  0
VERTEX
  8
INNER11
 10
0.0155
 20
  0
 42
  1
  0
SEQEND
  8
INNER11
  0
POLYLINE
  8
INNER12
 66
1
 70
1
 40
0.03100000000000001
 41
0.03100000000000001
  0
VERTEX
  8
INNER12
 10
-0.0155
 20
  0
 42
  1
  0
VERTEX
  8
INNER12
 10
0.0155
 20
  0
 42
  1
  0
SEQEND
  8
INNER12
  0
POLYLINE
  8
SMTOP
 66
1
 70
0
 40
0.06700000000000002
 41
0.06700000000000002
  0
VERTEX
  8
SMTOP
 10
-0.03350000000000001
 20
  0
  0
VERTEX
  8
SMTOP
 10
0.03350000000000001
 20
  0
  0
SEQEND
  8
SMTOP
  0
POLYLINE
  8
SMBOT
 66
1
 70
1
 40
0.03350000000000001
 41
0.03350000000000001
  0
VERTEX
  8
SMBOT
 10
-0.01675
 20
  0
 42
  1
  0
VERTEX
  8
SMBOT
 10
0.01675
 20
  0
 42
  1
  0
SEQEND
  8
SMBOT
  0
POLYLINE
  8
DRLDWG
 66
1
 70
1
 40
0.01900000000000001
 41
0.01900000000000001
  0
VERTEX
  8
DRLDWG
 10
-0.009500000000000003
 20
  0
 42
  1
  0
VERTEX
  8
DRLDWG
 10
0.009500000000000003
 20
  0
 42
  1
  0
SEQEND
  8
DRLDWG
  0
POLYLINE
  8
DRILL
 66
1
 70
1
 40
0.01900000000000001
 41
0.01900000000000001
  0
VERTEX
  8
DRILL
 10
-0.009500000000000003
 20
  0
 42
  1
  0
VERTEX
  8
DRILL
 10
0.009500000000000003
 20
  0
 42
  1
  0
SEQEND
  8
DRILL
  0
POLYLINE
  8
FABDWG
 66
1
 70
1
 40
0.03100000000000001
 41
0.03100000000000001
  0
VERTEX
  8
FABDWG
 10
-0.0155
 20
  0
 42
  1
  0
VERTEX
  8
FABDWG
 10
0.0155
 20
  0
 42
  1
  0
SEQEND
  8
FABDWG
  0
POLYLINE
  8
NOTES
 66
1
 70
1
 40
0.03100000000000001
 41
0.03100000000000001
  0
VERTEX
  8
NOTES
 10
-0.0155
 20
  0
 42
  1
  0
VERTEX
  8
NOTES
 10
0.0155
 20
  0
 42
  1
  0
SEQEND
  8
NOTES
  0
ENDBLK
  0
BLOCK
  8
0
  2
padstack_T7
 10
0.0
 20
0.0
 30
0.0
 70
2
  0
POINT
  8
0
 10
  0
 20
  0
  0
POLYLINE
  8
TOP
 66
1
 70
1
 40
0.02
 41
0.02
  0
VERTEX
  8
TOP
 10
-0.01
 20
  0
 42
  1
  0
VERTEX
  8
TOP
 10
0.01
 20
  0
 42
  1
  0
SEQEND
  8
TOP
  0
POLYLINE
  8
BOTTOM
 66
1
 70
1
 40
0.02
 41
0.02
  0
VERTEX
  8
BOTTOM
 10
-0.01
 20
  0
 42
  1
  0
VERTEX
  8
BOTTOM
 10
0.01
 20
  0
 42
  1
  0
SEQEND
  8
BOTTOM
  0
POLYLINE
  8
GND
 66
1
 70
1
 40
0.02500000000000001
 41
0.02500000000000001
  0
VERTEX
  8
GND
 10
-0.0125
 20
  0
 42
  1
  0
VERTEX
  8
GND
 10
0.0125
 20
  0
 42
  1
  0
SEQEND
  8
GND
  0
POLYLINE
  8
POWER
 66
1
 70
1
 40
0.02500000000000001
 41
0.02500000000000001
  0
VERTEX
  8
POWER
 10
-0.0125
 20
  0
 42
  1
  0
VERTEX
  8
POWER
 10
0.0125
 20
  0
 42
  1
  0
SEQEND
  8
POWER
  0
POLYLINE
  8
INNER1
 66
1
 70
1
 40
0.02
 41
0.02
  0
VERTEX
  8
INNER1
 10
-0.01
 20
  0
 42
  1
  0
VERTEX
  8
INNER1
 10
0.01
 20
  0
 42
  1
  0
SEQEND
  8
INNER1
  0
POLYLINE
  8
INNER2
 66
1
 70
1
 40
0.02
 41
0.02
  0
VERTEX
  8
INNER2
 10
-0.01
 20
  0
 42
  1
  0
VERTEX
  8
INNER2
 10
0.01
 20
  0
 42
  1
  0
SEQEND
  8
INNER2
  0
POLYLINE
  8
INNER3
 66
1
 70
1
 40
0.02
 41
0.02
  0
VERTEX
  8
INNER3
 10
-0.01
 20
  0
 42
  1
  0
VERTEX
  8
INNER3
 10
0.01
 20
  0
 42
  1
  0
SEQEND
  8
INNER3
  0
POLYLINE
  8
INNER4
 66
1
 70
1
 40
0.02
 41
0.02
  0
VERTEX
  8
INNER4
 10
-0.01
 20
  0
 42
  1
  0
VERTEX
  8
INNER4
 10
0.01
 20
  0
 42
  1
  0
SEQEND
  8
INNER4
  0
POLYLINE
  8
INNER5
 66
1
 70
1
 40
0.02
 41
0.02
  0
VERTEX
  8
INNER5
 10
-0.01
 20
  0
 42
  1
  0
VERTEX
  8
INNER5
 10
0.01
 20
  0
 42
  1
  0
SEQEND
  8
INNER5
  0
POLYLINE
  8
INNER6
 66
1
 70
1
 40
0.02
 41
0.02
  0
VERTEX
  8
INNER6
 10
-0.01
 20
  0
 42
  1
  0
VERTEX
  8
INNER6
 10
0.01
 20
  0
 42
  1
  0
SEQEND
  8
INNER6
  0
POLYLINE
  8
INNER7
 66
1
 70
1
 40
0.02
 41
0.02
  0
VERTEX
  8
INNER7
 10
-0.01
 20
  0
 42
  1
  0
VERTEX
  8
INNER7
 10
0.01
 20
  0
 42
  1
  0
SEQEND
  8
INNER7
  0
POLYLINE
  8
INNER8
 66
1
 70
1
 40
0.02
 41
0.02
  0
VERTEX
  8
INNER8
 10
-0.01
 20
  0
 42
  1
  0
VERTEX
  8
INNER8
 10
0.01
 20
  0
 42
  1
  0
SEQEND
  8
INNER8
  0
POLYLINE
  8
INNER9
 66
1
 70
1
 40
0.02
 41
0.02
  0
VERTEX
  8
INNER9
 10
-0.01
 20
  0
 42
  1
  0
VERTEX
  8
INNER9
 10
0.01
 20
  0
 42
  1
  0
SEQEND
  8
INNER9
  0
POLYLINE
  8
INNER10
 66
1
 70
1
 40
0.02
 41
0.02
  0
VERTEX
  8
INNER10
 10
-0.01
 20
  0
 42
  1
  0
VERTEX
  8
INNER10
 10
0.01
 20
  0
 42
  1
  0
SEQEND
  8
INNER10
  0
POLYLINE
  8
INNER11
 66
1
 70
1
 40
0.02
 41
0.02
  0
VERTEX
  8
INNER11
 10
-0.01
 20
  0
 42
  1
  0
VERTEX
  8
INNER11
 10
0.01
 20
  0
 42
  1
  0
SEQEND
  8
INNER11
  0
POLYLINE
  8
INNER12
 66
1
 70
1
 40
0.02
 41
0.02
  0
VERTEX
  8
INNER12
 10
-0.01
 20
  0
 42
  1
  0
VERTEX
  8
INNER12
 10
0.01
 20
  0
 42
  1
  0
SEQEND
  8
INNER12
  0
POLYLINE
  8
SMTOP
 66
1
 70
1
 40
0.02350000000000001
 41
0.02350000000000001
  0
VERTEX
  8
SMTOP
 10
-0.01175
 20
  0
 42
  1
  0
VERTEX
  8
SMTOP
 10
0.01175
 20
  0
 42
  1
  0
SEQEND
  8
SMTOP
  0
POLYLINE
  8
SMBOT
 66
1
 70
1
 40
0.02350000000000001
 41
0.02350000000000001
  0
VERTEX
  8
SMBOT
 10
-0.01175
 20
  0
 42
  1
  0
VERTEX
  8
SMBOT
 10
0.01175
 20
  0
 42
  1
  0
SEQEND
  8
SMBOT
  0
POLYLINE
  8
DRLDWG
 66
1
 70
1
 40
0.011
 41
0.011
  0
VERTEX
  8
DRLDWG
 10
-0.005500000000000001
 20
  0
 42
  1
  0
VERTEX
  8
DRLDWG
 10
0.005500000000000001
 20
  0
 42
  1
  0
SEQEND
  8
DRLDWG
  0
POLYLINE
  8
DRILL
 66
1
 70
1
 40
0.011
 41
0.011
  0
VERTEX
  8
DRILL
 10
-0.005500000000000001
 20
  0
 42
  1
  0
VERTEX
  8
DRILL
 10
0.005500000000000001
 20
  0
 42
  1
  0
SEQEND
  8
DRILL
  0
POLYLINE
  8
FABDWG
 66
1
 70
1
 40
0.02
 41
0.02
  0
VERTEX
  8
FABDWG
 10
-0.01
 20
  0
 42
  1
  0
VERTEX
  8
FABDWG
 10
0.01
 20
  0
 42
  1
  0
SEQEND
  8
FABDWG
  0
POLYLINE
  8
NOTES
 66
1
 70
1
 40
0.02
 41
0.02
  0
VERTEX
  8
NOTES
 10
-0.01
 20
  0
 42
  1
  0
VERTEX
  8
NOTES
 10
0.01
 20
  0
 42
  1
  0
SEQEND
  8
NOTES
  0
ENDBLK
  0
BLOCK
  8
0
  2
padstack_J1
 10
0.0
 20
0.0
 30
0.0
 70
2
  0
POINT
  8
0
 10
  0
 20
  0
  0
POLYLINE
  8
TOP
 66
1
 70
1
 40
0.03000000000000001
 41
0.03000000000000001
  0
VERTEX
  8
TOP
 10
-0.015
 20
  0
 42
  1
  0
VERTEX
  8
TOP
 10
0.015
 20
  0
 42
  1
  0
SEQEND
  8
TOP
  0
POLYLINE
  8
BOTTOM
 66
1
 70
1
 40
0.03000000000000001
 41
0.03000000000000001
  0
VERTEX
  8
BOTTOM
 10
-0.015
 20
  0
 42
  1
  0
VERTEX
  8
BOTTOM
 10
0.015
 20
  0
 42
  1
  0
SEQEND
  8
BOTTOM
  0
POLYLINE
  8
GND
 66
1
 70
1
 40
0.03500000000000001
 41
0.03500000000000001
  0
VERTEX
  8
GND
 10
-0.01750000000000001
 20
  0
 42
  1
  0
VERTEX
  8
GND
 10
0.01750000000000001
 20
  0
 42
  1
  0
SEQEND
  8
GND
  0
POLYLINE
  8
POWER
 66
1
 70
1
 40
0.03500000000000001
 41
0.03500000000000001
  0
VERTEX
  8
POWER
 10
-0.01750000000000001
 20
  0
 42
  1
  0
VERTEX
  8
POWER
 10
0.01750000000000001
 20
  0
 42
  1
  0
SEQEND
  8
POWER
  0
POLYLINE
  8
INNER1
 66
1
 70
1
 40
0.03000000000000001
 41
0.03000000000000001
  0
VERTEX
  8
INNER1
 10
-0.015
 20
  0
 42
  1
  0
VERTEX
  8
INNER1
 10
0.015
 20
  0
 42
  1
  0
SEQEND
  8
INNER1
  0
POLYLINE
  8
INNER2
 66
1
 70
1
 40
0.03000000000000001
 41
0.03000000000000001
  0
VERTEX
  8
INNER2
 10
-0.015
 20
  0
 42
  1
  0
VERTEX
  8
INNER2
 10
0.015
 20
  0
 42
  1
  0
SEQEND
  8
INNER2
  0
POLYLINE
  8
INNER3
 66
1
 70
1
 40
0.03000000000000001
 41
0.03000000000000001
  0
VERTEX
  8
INNER3
 10
-0.015
 20
  0
 42
  1
  0
VERTEX
  8
INNER3
 10
0.015
 20
  0
 42
  1
  0
SEQEND
  8
INNER3
  0
POLYLINE
  8
INNER4
 66
1
 70
1
 40
0.03000000000000001
 41
0.03000000000000001
  0
VERTEX
  8
INNER4
 10
-0.015
 20
  0
 42
  1
  0
VERTEX
  8
INNER4
 10
0.015
 20
  0
 42
  1
  0
SEQEND
  8
INNER4
  0
POLYLINE
  8
INNER5
 66
1
 70
1
 40
0.03000000000000001
 41
0.03000000000000001
  0
VERTEX
  8
INNER5
 10
-0.015
 20
  0
 42
  1
  0
VERTEX
  8
INNER5
 10
0.015
 20
  0
 42
  1
  0
SEQEND
  8
INNER5
  0
POLYLINE
  8
INNER6
 66
1
 70
1
 40
0.03000000000000001
 41
0.03000000000000001
  0
VERTEX
  8
INNER6
 10
-0.015
 20
  0
 42
  1
  0
VERTEX
  8
INNER6
 10
0.015
 20
  0
 42
  1
  0
SEQEND
  8
INNER6
  0
POLYLINE
  8
INNER7
 66
1
 70
1
 40
0.03000000000000001
 41
0.03000000000000001
  0
VERTEX
  8
INNER7
 10
-0.015
 20
  0
 42
  1
  0
VERTEX
  8
INNER7
 10
0.015
 20
  0
 42
  1
  0
SEQEND
  8
INNER7
  0
POLYLINE
  8
INNER8
 66
1
 70
1
 40
0.03000000000000001
 41
0.03000000000000001
  0
VERTEX
  8
INNER8
 10
-0.015
 20
  0
 42
  1
  0
VERTEX
  8
INNER8
 10
0.015
 20
  0
 42
  1
  0
SEQEND
  8
INNER8
  0
POLYLINE
  8
INNER9
 66
1
 70
1
 40
0.03000000000000001
 41
0.03000000000000001
  0
VERTEX
  8
INNER9
 10
-0.015
 20
  0
 42
  1
  0
VERTEX
  8
INNER9
 10
0.015
 20
  0
 42
  1
  0
SEQEND
  8
INNER9
  0
POLYLINE
  8
INNER10
 66
1
 70
1
 40
0.03000000000000001
 41
0.03000000000000001
  0
VERTEX
  8
INNER10
 10
-0.015
 20
  0
 42
  1
  0
VERTEX
  8
INNER10
 10
0.015
 20
  0
 42
  1
  0
SEQEND
  8
INNER10
  0
POLYLINE
  8
INNER11
 66
1
 70
1
 40
0.03000000000000001
 41
0.03000000000000001
  0
VERTEX
  8
INNER11
 10
-0.015
 20
  0
 42
  1
  0
VERTEX
  8
INNER11
 10
0.015
 20
  0
 42
  1
  0
SEQEND
  8
INNER11
  0
POLYLINE
  8
INNER12
 66
1
 70
1
 40
0.03000000000000001
 41
0.03000000000000001
  0
VERTEX
  8
INNER12
 10
-0.015
 20
  0
 42
  1
  0
VERTEX
  8
INNER12
 10
0.015
 20
  0
 42
  1
  0
SEQEND
  8
INNER12
  0
POLYLINE
  8
SMTOP
 66
1
 70
1
 40
0.03250000000000001
 41
0.03250000000000001
  0
VERTEX
  8
SMTOP
 10
-0.01625
 20
  0
 42
  1
  0
VERTEX
  8
SMTOP
 10
0.01625
 20
  0
 42
  1
  0
SEQEND
  8
SMTOP
  0
POLYLINE
  8
SMBOT
 66
1
 70
1
 40
0.03250000000000001
 41
0.03250000000000001
  0
VERTEX
  8
SMBOT
 10
-0.01625
 20
  0
 42
  1
  0
VERTEX
  8
SMBOT
 10
0.01625
 20
  0
 42
  1
  0
SEQEND
  8
SMBOT
  0
POLYLINE
  8
DRLDWG
 66
1
 70
1
 40
0.01750000000000001
 41
0.01750000000000001
  0
VERTEX
  8
DRLDWG
 10
-0.008750000000000003
 20
  0
 42
  1
  0
VERTEX
  8
DRLDWG
 10
0.008750000000000003
 20
  0
 42
  1
  0
SEQEND
  8
DRLDWG
  0
POLYLINE
  8
DRILL
 66
1
 70
1
 40
0.01750000000000001
 41
0.01750000000000001
  0
VERTEX
  8
DRILL
 10
-0.008750000000000003
 20
  0
 42
  1
  0
VERTEX
  8
DRILL
 10
0.008750000000000003
 20
  0
 42
  1
  0
SEQEND
  8
DRILL
  0
POLYLINE
  8
FABDWG
 66
1
 70
1
 40
0.03000000000000001
 41
0.03000000000000001
  0
VERTEX
  8
FABDWG
 10
-0.015
 20
  0
 42
  1
  0
VERTEX
  8
FABDWG
 10
0.015
 20
  0
 42
  1
  0
SEQEND
  8
FABDWG
  0
POLYLINE
  8
NOTES
 66
1
 70
1
 40
0.03000000000000001
 41
0.03000000000000001
  0
VERTEX
  8
NOTES
 10
-0.015
 20
  0
 42
  1
  0
VERTEX
  8
NOTES
 10
0.015
 20
  0
 42
  1
  0
SEQEND
  8
NOTES
  0
ENDBLK
  0
BLOCK
  8
0
  2
padstack_BCON156T_llb_pad1
 10
0.0
 20
0.0
 30
0.0
 70
2
  0
POINT
  8
0
 10
  0
 20
  0
  0
POLYLINE
  8
TOP
 66
1
 70
0
 40
0.1
 41
0.1
  0
VERTEX
  8
TOP
 10
-0.05000000000000001
 20
  0
  0
VERTEX
  8
TOP
 10
0.05000000000000001
 20
  0
  0
SEQEND
  8
TOP
  0
POLYLINE
  8
BOTTOM
 66
1
 70
0
 40
0.1
 41
0.1
  0
VERTEX
  8
BOTTOM
 10
-0.05000000000000001
 20
  0
  0
VERTEX
  8
BOTTOM
 10
0.05000000000000001
 20
  0
  0
SEQEND
  8
BOTTOM
  0
POLYLINE
  8
GND
 66
1
 70
0
 40
0.12
 41
0.12
  0
VERTEX
  8
GND
 10
-0.06000000000000001
 20
  0
  0
VERTEX
  8
GND
 10
0.06000000000000001
 20
  0
  0
SEQEND
  8
GND
  0
POLYLINE
  8
POWER
 66
1
 70
0
 40
0.12
 41
0.12
  0
VERTEX
  8
POWER
 10
-0.06000000000000001
 20
  0
  0
VERTEX
  8
POWER
 10
0.06000000000000001
 20
  0
  0
SEQEND
  8
POWER
  0
POLYLINE
  8
INNER1
 66
1
 70
0
 40
0.1
 41
0.1
  0
VERTEX
  8
INNER1
 10
-0.05000000000000001
 20
  0
  0
VERTEX
  8
INNER1
 10
0.05000000000000001
 20
  0
  0
SEQEND
  8
INNER1
  0
POLYLINE
  8
INNER2
 66
1
 70
0
 40
0.1
 41
0.1
  0
VERTEX
  8
INNER2
 10
-0.05000000000000001
 20
  0
  0
VERTEX
  8
INNER2
 10
0.05000000000000001
 20
  0
  0
SEQEND
  8
INNER2
  0
POLYLINE
  8
INNER3
 66
1
 70
0
 40
0.1
 41
0.1
  0
VERTEX
  8
INNER3
 10
-0.05000000000000001
 20
  0
  0
VERTEX
  8
INNER3
 10
0.05000000000000001
 20
  0
  0
SEQEND
  8
INNER3
  0
POLYLINE
  8
INNER4
 66
1
 70
0
 40
0.1
 41
0.1
  0
VERTEX
  8
INNER4
 10
-0.05000000000000001
 20
  0
  0
VERTEX
  8
INNER4
 10
0.05000000000000001
 20
  0
  0
SEQEND
  8
INNER4
  0
POLYLINE
  8
INNER5
 66
1
 70
0
 40
0.1
 41
0.1
  0
VERTEX
  8
INNER5
 10
-0.05000000000000001
 20
  0
  0
VERTEX
  8
INNER5
 10
0.05000000000000001
 20
  0
  0
SEQEND
  8
INNER5
  0
POLYLINE
  8
INNER6
 66
1
 70
0
 40
0.1
 41
0.1
  0
VERTEX
  8
INNER6
 10
-0.05000000000000001
 20
  0
  0
VERTEX
  8
INNER6
 10
0.05000000000000001
 20
  0
  0
SEQEND
  8
INNER6
  0
POLYLINE
  8
INNER7
 66
1
 70
0
 40
0.1
 41
0.1
  0
VERTEX
  8
INNER7
 10
-0.05000000000000001
 20
  0
  0
VERTEX
  8
INNER7
 10
0.05000000000000001
 20
  0
  0
SEQEND
  8
INNER7
  0
POLYLINE
  8
INNER8
 66
1
 70
0
 40
0.1
 41
0.1
  0
VERTEX
  8
INNER8
 10
-0.05000000000000001
 20
  0
  0
VERTEX
  8
INNER8
 10
0.05000000000000001
 20
  0
  0
SEQEND
  8
INNER8
  0
POLYLINE
  8
INNER9
 66
1
 70
0
 40
0.1
 41
0.1
  0
VERTEX
  8
INNER9
 10
-0.05000000000000001
 20
  0
  0
VERTEX
  8
INNER9
 10
0.05000000000000001
 20
  0
  0
SEQEND
  8
INNER9
  0
POLYLINE
  8
INNER10
 66
1
 70
0
 40
0.1
 41
0.1
  0
VERTEX
  8
INNER10
 10
-0.05000000000000001
 20
  0
  0
VERTEX
  8
INNER10
 10
0.05000000000000001
 20
  0
  0
SEQEND
  8
INNER10
  0
POLYLINE
  8
INNER11
 66
1
 70
0
 40
0.1
 41
0.1
  0
VERTEX
  8
INNER11
 10
-0.05000000000000001
 20
  0
  0
VERTEX
  8
INNER11
 10
0.05000000000000001
 20
  0
  0
SEQEND
  8
INNER11
  0
POLYLINE
  8
INNER12
 66
1
 70
0
 40
0.1
 41
0.1
  0
VERTEX
  8
INNER12
 10
-0.05000000000000001
 20
  0
  0
VERTEX
  8
INNER12
 10
0.05000000000000001
 20
  0
  0
SEQEND
  8
INNER12
  0
POLYLINE
  8
SMTOP
 66
1
 70
0
 40
0.1
 41
0.1
  0
VERTEX
  8
SMTOP
 10
-0.05000000000000001
 20
  0
  0
VERTEX
  8
SMTOP
 10
0.05000000000000001
 20
  0
  0
SEQEND
  8
SMTOP
  0
POLYLINE
  8
SMBOT
 66
1
 70
0
 40
0.1
 41
0.1
  0
VERTEX
  8
SMBOT
 10
-0.05000000000000001
 20
  0
  0
VERTEX
  8
SMBOT
 10
0.05000000000000001
 20
  0
  0
SEQEND
  8
SMBOT
  0
POLYLINE
  8
ASYTOP
 66
1
 70
0
 40
0.1
 41
0.1
  0
VERTEX
  8
ASYTOP
 10
-0.05000000000000001
 20
  0
  0
VERTEX
  8
ASYTOP
 10
0.05000000000000001
 20
  0
  0
SEQEND
  8
ASYTOP
  0
POLYLINE
  8
ASYBOT
 66
1
 70
0
 40
0.1
 41
0.1
  0
VERTEX
  8
ASYBOT
 10
-0.05000000000000001
 20
  0
  0
VERTEX
  8
ASYBOT
 10
0.05000000000000001
 20
  0
  0
SEQEND
  8
ASYBOT
  0
POLYLINE
  8
DRLDWG
 66
1
 70
1
 40
0.03500000000000001
 41
0.03500000000000001
  0
VERTEX
  8
DRLDWG
 10
-0.01750000000000001
 20
  0
 42
  1
  0
VERTEX
  8
DRLDWG
 10
0.01750000000000001
 20
  0
 42
  1
  0
SEQEND
  8
DRLDWG
  0
POLYLINE
  8
DRILL
 66
1
 70
1
 40
0.03500000000000001
 41
0.03500000000000001
  0
VERTEX
  8
DRILL
 10
-0.01750000000000001
 20
  0
 42
  1
  0
VERTEX
  8
DRILL
 10
0.01750000000000001
 20
  0
 42
  1
  0
SEQEND
  8
DRILL
  0
ENDBLK
  0
BLOCK
  8
0
  2
padstack_BCON156T_llb_pad2
 10
0.0
 20
0.0
 30
0.0
 70
2
  0
POINT
  8
0
 10
  0
 20
  0
  0
POLYLINE
  8
TOP
 66
1
 70
1
 40
0.05000000000000001
 41
0.05000000000000001
  0
VERTEX
  8
TOP
 10
-0.02500000000000001
 20
  0
 42
  1
  0
VERTEX
  8
TOP
 10
0.02500000000000001
 20
  0
 42
  1
  0
SEQEND
  8
TOP
  0
POLYLINE
  8
BOTTOM
 66
1
 70
1
 40
0.05000000000000001
 41
0.05000000000000001
  0
VERTEX
  8
BOTTOM
 10
-0.02500000000000001
 20
  0
 42
  1
  0
VERTEX
  8
BOTTOM
 10
0.02500000000000001
 20
  0
 42
  1
  0
SEQEND
  8
BOTTOM
  0
POLYLINE
  8
GND
 66
1
 70
1
 40
0.06000000000000001
 41
0.06000000000000001
  0
VERTEX
  8
GND
 10
-0.03000000000000001
 20
  0
 42
  1
  0
VERTEX
  8
GND
 10
0.03000000000000001
 20
  0
 42
  1
  0
SEQEND
  8
GND
  0
POLYLINE
  8
POWER
 66
1
 70
1
 40
0.06000000000000001
 41
0.06000000000000001
  0
VERTEX
  8
POWER
 10
-0.03000000000000001
 20
  0
 42
  1
  0
VERTEX
  8
POWER
 10
0.03000000000000001
 20
  0
 42
  1
  0
SEQEND
  8
POWER
  0
POLYLINE
  8
INNER1
 66
1
 70
1
 40
0.05000000000000001
 41
0.05000000000000001
  0
VERTEX
  8
INNER1
 10
-0.02500000000000001
 20
  0
 42
  1
  0
VERTEX
  8
INNER1
 10
0.02500000000000001
 20
  0
 42
  1
  0
SEQEND
  8
INNER1
  0
POLYLINE
  8
INNER2
 66
1
 70
1
 40
0.05000000000000001
 41
0.05000000000000001
  0
VERTEX
  8
INNER2
 10
-0.02500000000000001
 20
  0
 42
  1
  0
VERTEX
  8
INNER2
 10
0.02500000000000001
 20
  0
 42
  1
  0
SEQEND
  8
INNER2
  0
POLYLINE
  8
INNER3
 66
1
 70
1
 40
0.05000000000000001
 41
0.05000000000000001
  0
VERTEX
  8
INNER3
 10
-0.02500000000000001
 20
  0
 42
  1
  0
VERTEX
  8
INNER3
 10
0.02500000000000001
 20
  0
 42
  1
  0
SEQEND
  8
INNER3
  0
POLYLINE
  8
INNER4
 66
1
 70
1
 40
0.05000000000000001
 41
0.05000000000000001
  0
VERTEX
  8
INNER4
 10
-0.02500000000000001
 20
  0
 42
  1
  0
VERTEX
  8
INNER4
 10
0.02500000000000001
 20
  0
 42
  1
  0
SEQEND
  8
INNER4
  0
POLYLINE
  8
INNER5
 66
1
 70
1
 40
0.05000000000000001
 41
0.05000000000000001
  0
VERTEX
  8
INNER5
 10
-0.02500000000000001
 20
  0
 42
  1
  0
VERTEX
  8
INNER5
 10
0.02500000000000001
 20
  0
 42
  1
  0
SEQEND
  8
INNER5
  0
POLYLINE
  8
INNER6
 66
1
 70
1
 40
0.05000000000000001
 41
0.05000000000000001
  0
VERTEX
  8
INNER6
 10
-0.02500000000000001
 20
  0
 42
  1
  0
VERTEX
  8
INNER6
 10
0.02500000000000001
 20
  0
 42
  1
  0
SEQEND
  8
INNER6
  0
POLYLINE
  8
INNER7
 66
1
 70
1
 40
0.05000000000000001
 41
0.05000000000000001
  0
VERTEX
  8
INNER7
 10
-0.02500000000000001
 20
  0
 42
  1
  0
VERTEX
  8
INNER7
 10
0.02500000000000001
 20
  0
 42
  1
  0
SEQEND
  8
INNER7
  0
POLYLINE
  8
INNER8
 66
1
 70
1
 40
0.05000000000000001
 41
0.05000000000000001
  0
VERTEX
  8
INNER8
 10
-0.02500000000000001
 20
  0
 42
  1
  0
VERTEX
  8
INNER8
 10
0.02500000000000001
 20
  0
 42
  1
  0
SEQEND
  8
INNER8
  0
POLYLINE
  8
INNER9
 66
1
 70
1
 40
0.05000000000000001
 41
0.05000000000000001
  0
VERTEX
  8
INNER9
 10
-0.02500000000000001
 20
  0
 42
  1
  0
VERTEX
  8
INNER9
 10
0.02500000000000001
 20
  0
 42
  1
  0
SEQEND
  8
INNER9
  0
POLYLINE
  8
INNER10
 66
1
 70
1
 40
0.05000000000000001
 41
0.05000000000000001
  0
VERTEX
  8
INNER10
 10
-0.02500000000000001
 20
  0
 42
  1
  0
VERTEX
  8
INNER10
 10
0.02500000000000001
 20
  0
 42
  1
  0
SEQEND
  8
INNER10
  0
POLYLINE
  8
INNER11
 66
1
 70
1
 40
0.05000000000000001
 41
0.05000000000000001
  0
VERTEX
  8
INNER11
 10
-0.02500000000000001
 20
  0
 42
  1
  0
VERTEX
  8
INNER11
 10
0.02500000000000001
 20
  0
 42
  1
  0
SEQEND
  8
INNER11
  0
POLYLINE
  8
INNER12
 66
1
 70
1
 40
0.05000000000000001
 41
0.05000000000000001
  0
VERTEX
  8
INNER12
 10
-0.02500000000000001
 20
  0
 42
  1
  0
VERTEX
  8
INNER12
 10
0.02500000000000001
 20
  0
 42
  1
  0
SEQEND
  8
INNER12
  0
POLYLINE
  8
SMTOP
 66
1
 70
1
 40
0.05000000000000001
 41
0.05000000000000001
  0
VERTEX
  8
SMTOP
 10
-0.02500000000000001
 20
  0
 42
  1
  0
VERTEX
  8
SMTOP
 10
0.02500000000000001
 20
  0
 42
  1
  0
SEQEND
  8
SMTOP
  0
POLYLINE
  8
SMBOT
 66
1
 70
1
 40
0.05000000000000001
 41
0.05000000000000001
  0
VERTEX
  8
SMBOT
 10
-0.02500000000000001
 20
  0
 42
  1
  0
VERTEX
  8
SMBOT
 10
0.02500000000000001
 20
  0
 42
  1
  0
SEQEND
  8
SMBOT
  0
POLYLINE
  8
ASYTOP
 66
1
 70
1
 40
0.05000000000000001
 41
0.05000000000000001
  0
VERTEX
  8
ASYTOP
 10
-0.02500000000000001
 20
  0
 42
  1
  0
VERTEX
  8
ASYTOP
 10
0.02500000000000001
 20
  0
 42
  1
  0
SEQEND
  8
ASYTOP
  0
POLYLINE
  8
ASYBOT
 66
1
 70
1
 40
0.05000000000000001
 41
0.05000000000000001
  0
VERTEX
  8
ASYBOT
 10
-0.02500000000000001
 20
  0
 42
  1
  0
VERTEX
  8
ASYBOT
 10
0.02500000000000001
 20
  0
 42
  1
  0
SEQEND
  8
ASYBOT
  0
POLYLINE
  8
DRLDWG
 66
1
 70
1
 40
0.03500000000000001
 41
0.03500000000000001
  0
VERTEX
  8
DRLDWG
 10
-0.01750000000000001
 20
  0
 42
  1
  0
VERTEX
  8
DRLDWG
 10
0.01750000000000001
 20
  0
 42
  1
  0
SEQEND
  8
DRLDWG
  0
POLYLINE
  8
DRILL
 66
1
 70
1
 40
0.03500000000000001
 41
0.03500000000000001
  0
VERTEX
  8
DRILL
 10
-0.01750000000000001
 20
  0
 42
  1
  0
VERTEX
  8
DRILL
 10
0.01750000000000001
 20
  0
 42
  1
  0
SEQEND
  8
DRILL
  0
ENDBLK
  0
BLOCK
  8
0
  2
padstack_BGA_llb_pad1_1
 10
0.0
 20
0.0
 30
0.0
 70
2
  0
POINT
  8
0
 10
  0
 20
  0
  0
POLYLINE
  8
TOP
 66
1
 70
0
 40
0.03000000000000001
 41
0.03000000000000001
  0
VERTEX
  8
TOP
 10
-0.015
 20
  0
  0
VERTEX
  8
TOP
 10
0.015
 20
  0
  0
SEQEND
  8
TOP
  0
POLYLINE
  8
SMTOP
 66
1
 70
0
 40
0.03000000000000001
 41
0.03000000000000001
  0
VERTEX
  8
SMTOP
 10
-0.015
 20
  0
  0
VERTEX
  8
SMTOP
 10
0.015
 20
  0
  0
SEQEND
  8
SMTOP
  0
POLYLINE
  8
SPTOP
 66
1
 70
0
 40
0.03000000000000001
 41
0.03000000000000001
  0
VERTEX
  8
SPTOP
 10
-0.015
 20
  0
  0
VERTEX
  8
SPTOP
 10
0.015
 20
  0
  0
SEQEND
  8
SPTOP
  0
POLYLINE
  8
ASYTOP
 66
1
 70
0
 40
0.03000000000000001
 41
0.03000000000000001
  0
VERTEX
  8
ASYTOP
 10
-0.015
 20
  0
  0
VERTEX
  8
ASYTOP
 10
0.015
 20
  0
  0
SEQEND
  8
ASYTOP
  0
ENDBLK
  0
BLOCK
  8
0
  2
padstack_BGA_llb_pad2_1
 10
0.0
 20
0.0
 30
0.0
 70
2
  0
POINT
  8
0
 10
  0
 20
  0
  0
POLYLINE
  8
TOP
 66
1
 70
1
 40
0.015
 41
0.015
  0
VERTEX
  8
TOP
 10
-0.007500000000000002
 20
  0
 42
  1
  0
VERTEX
  8
TOP
 10
0.007500000000000002
 20
  0
 42
  1
  0
SEQEND
  8
TOP
  0
POLYLINE
  8
SMTOP
 66
1
 70
1
 40
0.015
 41
0.015
  0
VERTEX
  8
SMTOP
 10
-0.007500000000000002
 20
  0
 42
  1
  0
VERTEX
  8
SMTOP
 10
0.007500000000000002
 20
  0
 42
  1
  0
SEQEND
  8
SMTOP
  0
POLYLINE
  8
SPTOP
 66
1
 70
1
 40
0.015
 41
0.015
  0
VERTEX
  8
SPTOP
 10
-0.007500000000000002
 20
  0
 42
  1
  0
VERTEX
  8
SPTOP
 10
0.007500000000000002
 20
  0
 42
  1
  0
SEQEND
  8
SPTOP
  0
POLYLINE
  8
ASYTOP
 66
1
 70
1
 40
0.015
 41
0.015
  0
VERTEX
  8
ASYTOP
 10
-0.007500000000000002
 20
  0
 42
  1
  0
VERTEX
  8
ASYTOP
 10
0.007500000000000002
 20
  0
 42
  1
  0
SEQEND
  8
ASYTOP
  0
ENDBLK
  0
BLOCK
  8
0
  2
padstack_82R66
 10
0.0
 20
0.0
 30
0.0
 70
2
  0
POINT
  8
0
 10
  0
 20
  0
  0
POLYLINE
  8
TOP
 66
1
 70
1
 40
0.04100000000000001
 41
0.04100000000000001
  0
VERTEX
  8
TOP
 10
-0.0205
 20
  0
 42
  1
  0
VERTEX
  8
TOP
 10
0.0205
 20
  0
 42
  1
  0
SEQEND
  8
TOP
  0
POLYLINE
  8
BOTTOM
 66
1
 70
1
 40
0.04100000000000001
 41
0.04100000000000001
  0
VERTEX
  8
BOTTOM
 10
-0.0205
 20
  0
 42
  1
  0
VERTEX
  8
BOTTOM
 10
0.0205
 20
  0
 42
  1
  0
SEQEND
  8
BOTTOM
  0
POLYLINE
  8
GND
 66
1
 70
1
 40
0.04400000000000001
 41
0.04400000000000001
  0
VERTEX
  8
GND
 10
-0.02200000000000001
 20
  0
 42
  1
  0
VERTEX
  8
GND
 10
0.02200000000000001
 20
  0
 42
  1
  0
SEQEND
  8
GND
  0
POLYLINE
  8
POWER
 66
1
 70
1
 40
0.04400000000000001
 41
0.04400000000000001
  0
VERTEX
  8
POWER
 10
-0.02200000000000001
 20
  0
 42
  1
  0
VERTEX
  8
POWER
 10
0.02200000000000001
 20
  0
 42
  1
  0
SEQEND
  8
POWER
  0
POLYLINE
  8
INNER1
 66
1
 70
1
 40
0.04100000000000001
 41
0.04100000000000001
  0
VERTEX
  8
INNER1
 10
-0.0205
 20
  0
 42
  1
  0
VERTEX
  8
INNER1
 10
0.0205
 20
  0
 42
  1
  0
SEQEND
  8
INNER1
  0
POLYLINE
  8
INNER2
 66
1
 70
1
 40
0.04100000000000001
 41
0.04100000000000001
  0
VERTEX
  8
INNER2
 10
-0.0205
 20
  0
 42
  1
  0
VERTEX
  8
INNER2
 10
0.0205
 20
  0
 42
  1
  0
SEQEND
  8
INNER2
  0
POLYLINE
  8
INNER3
 66
1
 70
1
 40
0.04100000000000001
 41
0.04100000000000001
  0
VERTEX
  8
INNER3
 10
-0.0205
 20
  0
 42
  1
  0
VERTEX
  8
INNER3
 10
0.0205
 20
  0
 42
  1
  0
SEQEND
  8
INNER3
  0
POLYLINE
  8
INNER4
 66
1
 70
1
 40
0.04100000000000001
 41
0.04100000000000001
  0
VERTEX
  8
INNER4
 10
-0.0205
 20
  0
 42
  1
  0
VERTEX
  8
INNER4
 10
0.0205
 20
  0
 42
  1
  0
SEQEND
  8
INNER4
  0
POLYLINE
  8
INNER5
 66
1
 70
1
 40
0.04100000000000001
 41
0.04100000000000001
  0
VERTEX
  8
INNER5
 10
-0.0205
 20
  0
 42
  1
  0
VERTEX
  8
INNER5
 10
0.0205
 20
  0
 42
  1
  0
SEQEND
  8
INNER5
  0
POLYLINE
  8
INNER6
 66
1
 70
1
 40
0.04100000000000001
 41
0.04100000000000001
  0
VERTEX
  8
INNER6
 10
-0.0205
 20
  0
 42
  1
  0
VERTEX
  8
INNER6
 10
0.0205
 20
  0
 42
  1
  0
SEQEND
  8
INNER6
  0
POLYLINE
  8
INNER7
 66
1
 70
1
 40
0.04100000000000001
 41
0.04100000000000001
  0
VERTEX
  8
INNER7
 10
-0.0205
 20
  0
 42
  1
  0
VERTEX
  8
INNER7
 10
0.0205
 20
  0
 42
  1
  0
SEQEND
  8
INNER7
  0
POLYLINE
  8
INNER8
 66
1
 70
1
 40
0.04100000000000001
 41
0.04100000000000001
  0
VERTEX
  8
INNER8
 10
-0.0205
 20
  0
 42
  1
  0
VERTEX
  8
INNER8
 10
0.0205
 20
  0
 42
  1
  0
SEQEND
  8
INNER8
  0
POLYLINE
  8
INNER9
 66
1
 70
1
 40
0.04100000000000001
 41
0.04100000000000001
  0
VERTEX
  8
INNER9
 10
-0.0205
 20
  0
 42
  1
  0
VERTEX
  8
INNER9
 10
0.0205
 20
  0
 42
  1
  0
SEQEND
  8
INNER9
  0
POLYLINE
  8
INNER10
 66
1
 70
1
 40
0.04100000000000001
 41
0.04100000000000001
  0
VERTEX
  8
INNER10
 10
-0.0205
 20
  0
 42
  1
  0
VERTEX
  8
INNER10
 10
0.0205
 20
  0
 42
  1
  0
SEQEND
  8
INNER10
  0
POLYLINE
  8
INNER11
 66
1
 70
1
 40
0.04100000000000001
 41
0.04100000000000001
  0
VERTEX
  8
INNER11
 10
-0.0205
 20
  0
 42
  1
  0
VERTEX
  8
INNER11
 10
0.0205
 20
  0
 42
  1
  0
SEQEND
  8
INNER11
  0
POLYLINE
  8
INNER12
 66
1
 70
1
 40
0.04100000000000001
 41
0.04100000000000001
  0
VERTEX
  8
INNER12
 10
-0.0205
 20
  0
 42
  1
  0
VERTEX
  8
INNER12
 10
0.0205
 20
  0
 42
  1
  0
SEQEND
  8
INNER12
  0
POLYLINE
  8
SMTOP
 66
1
 70
1
 40
0.04350000000000001
 41
0.04350000000000001
  0
VERTEX
  8
SMTOP
 10
-0.02175000000000001
 20
  0
 42
  1
  0
VERTEX
  8
SMTOP
 10
0.02175000000000001
 20
  0
 42
  1
  0
SEQEND
  8
SMTOP
  0
POLYLINE
  8
SMBOT
 66
1
 70
1
 40
0.04350000000000001
 41
0.04350000000000001
  0
VERTEX
  8
SMBOT
 10
-0.02175000000000001
 20
  0
 42
  1
  0
VERTEX
  8
SMBOT
 10
0.02175000000000001
 20
  0
 42
  1
  0
SEQEND
  8
SMBOT
  0
POLYLINE
  8
DRLDWG
 66
1
 70
1
 40
0.03300000000000001
 41
0.03300000000000001
  0
VERTEX
  8
DRLDWG
 10
-0.0165
 20
  0
 42
  1
  0
VERTEX
  8
DRLDWG
 10
0.0165
 20
  0
 42
  1
  0
SEQEND
  8
DRLDWG
  0
POLYLINE
  8
DRILL
 66
1
 70
1
 40
0.03300000000000001
 41
0.03300000000000001
  0
VERTEX
  8
DRILL
 10
-0.0165
 20
  0
 42
  1
  0
VERTEX
  8
DRILL
 10
0.0165
 20
  0
 42
  1
  0
SEQEND
  8
DRILL
  0
ENDBLK
  0
BLOCK
  8
0
  2
padstack_85R61
 10
0.0
 20
0.0
 30
0.0
 70
2
  0
POINT
  8
0
 10
  0
 20
  0
  0
POLYLINE
  8
TOP
 66
1
 70
1
 40
0.04250000000000001
 41
0.04250000000000001
  0
VERTEX
  8
TOP
 10
-0.02125000000000001
 20
  0
 42
  1
  0
VERTEX
  8
TOP
 10
0.02125000000000001
 20
  0
 42
  1
  0
SEQEND
  8
TOP
  0
POLYLINE
  8
BOTTOM
 66
1
 70
1
 40
0.04250000000000001
 41
0.04250000000000001
  0
VERTEX
  8
BOTTOM
 10
-0.02125000000000001
 20
  0
 42
  1
  0
VERTEX
  8
BOTTOM
 10
0.02125000000000001
 20
  0
 42
  1
  0
SEQEND
  8
BOTTOM
  0
POLYLINE
  8
GND
 66
1
 70
1
 40
0.04550000000000001
 41
0.04550000000000001
  0
VERTEX
  8
GND
 10
-0.02275000000000001
 20
  0
 42
  1
  0
VERTEX
  8
GND
 10
0.02275000000000001
 20
  0
 42
  1
  0
SEQEND
  8
GND
  0
POLYLINE
  8
POWER
 66
1
 70
1
 40
0.04550000000000001
 41
0.04550000000000001
  0
VERTEX
  8
POWER
 10
-0.02275000000000001
 20
  0
 42
  1
  0
VERTEX
  8
POWER
 10
0.02275000000000001
 20
  0
 42
  1
  0
SEQEND
  8
POWER
  0
POLYLINE
  8
INNER1
 66
1
 70
1
 40
0.04250000000000001
 41
0.04250000000000001
  0
VERTEX
  8
INNER1
 10
-0.02125000000000001
 20
  0
 42
  1
  0
VERTEX
  8
INNER1
 10
0.02125000000000001
 20
  0
 42
  1
  0
SEQEND
  8
INNER1
  0
POLYLINE
  8
INNER2
 66
1
 70
1
 40
0.04250000000000001
 41
0.04250000000000001
  0
VERTEX
  8
INNER2
 10
-0.02125000000000001
 20
  0
 42
  1
  0
VERTEX
  8
INNER2
 10
0.02125000000000001
 20
  0
 42
  1
  0
SEQEND
  8
INNER2
  0
POLYLINE
  8
INNER3
 66
1
 70
1
 40
0.04250000000000001
 41
0.04250000000000001
  0
VERTEX
  8
INNER3
 10
-0.02125000000000001
 20
  0
 42
  1
  0
VERTEX
  8
INNER3
 10
0.02125000000000001
 20
  0
 42
  1
  0
SEQEND
  8
INNER3
  0
POLYLINE
  8
INNER4
 66
1
 70
1
 40
0.04250000000000001
 41
0.04250000000000001
  0
VERTEX
  8
INNER4
 10
-0.02125000000000001
 20
  0
 42
  1
  0
VERTEX
  8
INNER4
 10
0.02125000000000001
 20
  0
 42
  1
  0
SEQEND
  8
INNER4
  0
POLYLINE
  8
INNER5
 66
1
 70
1
 40
0.04250000000000001
 41
0.04250000000000001
  0
VERTEX
  8
INNER5
 10
-0.02125000000000001
 20
  0
 42
  1
  0
VERTEX
  8
INNER5
 10
0.02125000000000001
 20
  0
 42
  1
  0
SEQEND
  8
INNER5
  0
POLYLINE
  8
INNER6
 66
1
 70
1
 40
0.04250000000000001
 41
0.04250000000000001
  0
VERTEX
  8
INNER6
 10
-0.02125000000000001
 20
  0
 42
  1
  0
VERTEX
  8
INNER6
 10
0.02125000000000001
 20
  0
 42
  1
  0
SEQEND
  8
INNER6
  0
POLYLINE
  8
INNER7
 66
1
 70
1
 40
0.04250000000000001
 41
0.04250000000000001
  0
VERTEX
  8
INNER7
 10
-0.02125000000000001
 20
  0
 42
  1
  0
VERTEX
  8
INNER7
 10
0.02125000000000001
 20
  0
 42
  1
  0
SEQEND
  8
INNER7
  0
POLYLINE
  8
INNER8
 66
1
 70
1
 40
0.04250000000000001
 41
0.04250000000000001
  0
VERTEX
  8
INNER8
 10
-0.02125000000000001
 20
  0
 42
  1
  0
VERTEX
  8
INNER8
 10
0.02125000000000001
 20
  0
 42
  1
  0
SEQEND
  8
INNER8
  0
POLYLINE
  8
INNER9
 66
1
 70
1
 40
0.04250000000000001
 41
0.04250000000000001
  0
VERTEX
  8
INNER9
 10
-0.02125000000000001
 20
  0
 42
  1
  0
VERTEX
  8
INNER9
 10
0.02125000000000001
 20
  0
 42
  1
  0
SEQEND
  8
INNER9
  0
POLYLINE
  8
INNER10
 66
1
 70
1
 40
0.04250000000000001
 41
0.04250000000000001
  0
VERTEX
  8
INNER10
 10
-0.02125000000000001
 20
  0
 42
  1
  0
VERTEX
  8
INNER10
 10
0.02125000000000001
 20
  0
 42
  1
  0
SEQEND
  8
INNER10
  0
POLYLINE
  8
INNER11
 66
1
 70
1
 40
0.04250000000000001
 41
0.04250000000000001
  0
VERTEX
  8
INNER11
 10
-0.02125000000000001
 20
  0
 42
  1
  0
VERTEX
  8
INNER11
 10
0.02125000000000001
 20
  0
 42
  1
  0
SEQEND
  8
INNER11
  0
POLYLINE
  8
INNER12
 66
1
 70
1
 40
0.04250000000000001
 41
0.04250000000000001
  0
VERTEX
  8
INNER12
 10
-0.02125000000000001
 20
  0
 42
  1
  0
VERTEX
  8
INNER12
 10
0.02125000000000001
 20
  0
 42
  1
  0
SEQEND
  8
INNER12
  0
POLYLINE
  8
SMTOP
 66
1
 70
1
 40
0.04500000000000001
 41
0.04500000000000001
  0
VERTEX
  8
SMTOP
 10
-0.02250000000000001
 20
  0
 42
  1
  0
VERTEX
  8
SMTOP
 10
0.02250000000000001
 20
  0
 42
  1
  0
SEQEND
  8
SMTOP
  0
POLYLINE
  8
SMBOT
 66
1
 70
1
 40
0.04500000000000001
 41
0.04500000000000001
  0
VERTEX
  8
SMBOT
 10
-0.02250000000000001
 20
  0
 42
  1
  0
VERTEX
  8
SMBOT
 10
0.02250000000000001
 20
  0
 42
  1
  0
SEQEND
  8
SMBOT
  0
POLYLINE
  8
DRLDWG
 66
1
 70
1
 40
0.03050000000000001
 41
0.03050000000000001
  0
VERTEX
  8
DRLDWG
 10
-0.01525
 20
  0
 42
  1
  0
VERTEX
  8
DRLDWG
 10
0.01525
 20
  0
 42
  1
  0
SEQEND
  8
DRLDWG
  0
POLYLINE
  8
DRILL
 66
1
 70
1
 40
0.03050000000000001
 41
0.03050000000000001
  0
VERTEX
  8
DRILL
 10
-0.01525
 20
  0
 42
  1
  0
VERTEX
  8
DRILL
 10
0.01525
 20
  0
 42
  1
  0
SEQEND
  8
DRILL
  0
ENDBLK
  0
BLOCK
  8
0
  2
padstack_DIP100T_llb_pad4_1
 10
0.0
 20
0.0
 30
0.0
 70
2
  0
POINT
  8
0
 10
  0
 20
  0
  0
POLYLINE
  8
TOP
 66
1
 70
0
 40
0.05800000000000002
 41
0.05800000000000002
  0
VERTEX
  8
TOP
 10
-0.02900000000000001
 20
  0
  0
VERTEX
  8
TOP
 10
0.02900000000000001
 20
  0
  0
SEQEND
  8
TOP
  0
POLYLINE
  8
BOTTOM
 66
1
 70
0
 40
0.05800000000000002
 41
0.05800000000000002
  0
VERTEX
  8
BOTTOM
 10
-0.02900000000000001
 20
  0
  0
VERTEX
  8
BOTTOM
 10
0.02900000000000001
 20
  0
  0
SEQEND
  8
BOTTOM
  0
POLYLINE
  8
GND
 66
1
 70
0
 40
0.07800000000000001
 41
0.07800000000000001
  0
VERTEX
  8
GND
 10
-0.03900000000000001
 20
  0
  0
VERTEX
  8
GND
 10
0.03900000000000001
 20
  0
  0
SEQEND
  8
GND
  0
POLYLINE
  8
POWER
 66
1
 70
0
 40
0.07800000000000001
 41
0.07800000000000001
  0
VERTEX
  8
POWER
 10
-0.03900000000000001
 20
  0
  0
VERTEX
  8
POWER
 10
0.03900000000000001
 20
  0
  0
SEQEND
  8
POWER
  0
POLYLINE
  8
INNER1
 66
1
 70
0
 40
0.05800000000000002
 41
0.05800000000000002
  0
VERTEX
  8
INNER1
 10
-0.02900000000000001
 20
  0
  0
VERTEX
  8
INNER1
 10
0.02900000000000001
 20
  0
  0
SEQEND
  8
INNER1
  0
POLYLINE
  8
INNER2
 66
1
 70
0
 40
0.05800000000000002
 41
0.05800000000000002
  0
VERTEX
  8
INNER2
 10
-0.02900000000000001
 20
  0
  0
VERTEX
  8
INNER2
 10
0.02900000000000001
 20
  0
  0
SEQEND
  8
INNER2
  0
POLYLINE
  8
INNER3
 66
1
 70
0
 40
0.05800000000000002
 41
0.05800000000000002
  0
VERTEX
  8
INNER3
 10
-0.02900000000000001
 20
  0
  0
VERTEX
  8
INNER3
 10
0.02900000000000001
 20
  0
  0
SEQEND
  8
INNER3
  0
POLYLINE
  8
INNER4
 66
1
 70
0
 40
0.05800000000000002
 41
0.05800000000000002
  0
VERTEX
  8
INNER4
 10
-0.02900000000000001
 20
  0
  0
VERTEX
  8
INNER4
 10
0.02900000000000001
 20
  0
  0
SEQEND
  8
INNER4
  0
POLYLINE
  8
INNER5
 66
1
 70
0
 40
0.05800000000000002
 41
0.05800000000000002
  0
VERTEX
  8
INNER5
 10
-0.02900000000000001
 20
  0
  0
VERTEX
  8
INNER5
 10
0.02900000000000001
 20
  0
  0
SEQEND
  8
INNER5
  0
POLYLINE
  8
INNER6
 66
1
 70
0
 40
0.05800000000000002
 41
0.05800000000000002
  0
VERTEX
  8
INNER6
 10
-0.02900000000000001
 20
  0
  0
VERTEX
  8
INNER6
 10
0.02900000000000001
 20
  0
  0
SEQEND
  8
INNER6
  0
POLYLINE
  8
INNER7
 66
1
 70
0
 40
0.05800000000000002
 41
0.05800000000000002
  0
VERTEX
  8
INNER7
 10
-0.02900000000000001
 20
  0
  0
VERTEX
  8
INNER7
 10
0.02900000000000001
 20
  0
  0
SEQEND
  8
INNER7
  0
POLYLINE
  8
INNER8
 66
1
 70
0
 40
0.05800000000000002
 41
0.05800000000000002
  0
VERTEX
  8
INNER8
 10
-0.02900000000000001
 20
  0
  0
VERTEX
  8
INNER8
 10
0.02900000000000001
 20
  0
  0
SEQEND
  8
INNER8
  0
POLYLINE
  8
INNER9
 66
1
 70
0
 40
0.05800000000000002
 41
0.05800000000000002
  0
VERTEX
  8
INNER9
 10
-0.02900000000000001
 20
  0
  0
VERTEX
  8
INNER9
 10
0.02900000000000001
 20
  0
  0
SEQEND
  8
INNER9
  0
POLYLINE
  8
INNER10
 66
1
 70
0
 40
0.05800000000000002
 41
0.05800000000000002
  0
VERTEX
  8
INNER10
 10
-0.02900000000000001
 20
  0
  0
VERTEX
  8
INNER10
 10
0.02900000000000001
 20
  0
  0
SEQEND
  8
INNER10
  0
POLYLINE
  8
INNER11
 66
1
 70
0
 40
0.05800000000000002
 41
0.05800000000000002
  0
VERTEX
  8
INNER11
 10
-0.02900000000000001
 20
  0
  0
VERTEX
  8
INNER11
 10
0.02900000000000001
 20
  0
  0
SEQEND
  8
INNER11
  0
POLYLINE
  8
INNER12
 66
1
 70
0
 40
0.05800000000000002
 41
0.05800000000000002
  0
VERTEX
  8
INNER12
 10
-0.02900000000000001
 20
  0
  0
VERTEX
  8
INNER12
 10
0.02900000000000001
 20
  0
  0
SEQEND
  8
INNER12
  0
POLYLINE
  8
SMTOP
 66
1
 70
0
 40
0.05800000000000002
 41
0.05800000000000002
  0
VERTEX
  8
SMTOP
 10
-0.02900000000000001
 20
  0
  0
VERTEX
  8
SMTOP
 10
0.02900000000000001
 20
  0
  0
SEQEND
  8
SMTOP
  0
POLYLINE
  8
SMBOT
 66
1
 70
0
 40
0.05800000000000002
 41
0.05800000000000002
  0
VERTEX
  8
SMBOT
 10
-0.02900000000000001
 20
  0
  0
VERTEX
  8
SMBOT
 10
0.02900000000000001
 20
  0
  0
SEQEND
  8
SMBOT
  0
POLYLINE
  8
ASYTOP
 66
1
 70
0
 40
0.05800000000000002
 41
0.05800000000000002
  0
VERTEX
  8
ASYTOP
 10
-0.02900000000000001
 20
  0
  0
VERTEX
  8
ASYTOP
 10
0.02900000000000001
 20
  0
  0
SEQEND
  8
ASYTOP
  0
POLYLINE
  8
ASYBOT
 66
1
 70
0
 40
0.05800000000000002
 41
0.05800000000000002
  0
VERTEX
  8
ASYBOT
 10
-0.02900000000000001
 20
  0
  0
VERTEX
  8
ASYBOT
 10
0.02900000000000001
 20
  0
  0
SEQEND
  8
ASYBOT
  0
POLYLINE
  8
DRLDWG
 66
1
 70
1
 40
0.01700000000000001
 41
0.01700000000000001
  0
VERTEX
  8
DRLDWG
 10
-0.008500000000000002
 20
  0
 42
  1
  0
VERTEX
  8
DRLDWG
 10
0.008500000000000002
 20
  0
 42
  1
  0
SEQEND
  8
DRLDWG
  0
POLYLINE
  8
DRILL
 66
1
 70
1
 40
0.01700000000000001
 41
0.01700000000000001
  0
VERTEX
  8
DRILL
 10
-0.008500000000000002
 20
  0
 42
  1
  0
VERTEX
  8
DRILL
 10
0.008500000000000002
 20
  0
 42
  1
  0
SEQEND
  8
DRILL
  0
ENDBLK
  0
BLOCK
  8
0
  2
padstack_DIP100T_llb_pad3_1
 10
0.0
 20
0.0
 30
0.0
 70
2
  0
POINT
  8
0
 10
  0
 20
  0
  0
POLYLINE
  8
TOP
 66
1
 70
1
 40
0.02900000000000001
 41
0.02900000000000001
  0
VERTEX
  8
TOP
 10
-0.0145
 20
  0
 42
  1
  0
VERTEX
  8
TOP
 10
0.0145
 20
  0
 42
  1
  0
SEQEND
  8
TOP
  0
POLYLINE
  8
BOTTOM
 66
1
 70
1
 40
0.02900000000000001
 41
0.02900000000000001
  0
VERTEX
  8
BOTTOM
 10
-0.0145
 20
  0
 42
  1
  0
VERTEX
  8
BOTTOM
 10
0.0145
 20
  0
 42
  1
  0
SEQEND
  8
BOTTOM
  0
POLYLINE
  8
GND
 66
1
 70
1
 40
0.03900000000000001
 41
0.03900000000000001
  0
VERTEX
  8
GND
 10
-0.0195
 20
  0
 42
  1
  0
VERTEX
  8
GND
 10
0.0195
 20
  0
 42
  1
  0
SEQEND
  8
GND
  0
POLYLINE
  8
POWER
 66
1
 70
1
 40
0.03900000000000001
 41
0.03900000000000001
  0
VERTEX
  8
POWER
 10
-0.0195
 20
  0
 42
  1
  0
VERTEX
  8
POWER
 10
0.0195
 20
  0
 42
  1
  0
SEQEND
  8
POWER
  0
POLYLINE
  8
INNER1
 66
1
 70
1
 40
0.02900000000000001
 41
0.02900000000000001
  0
VERTEX
  8
INNER1
 10
-0.0145
 20
  0
 42
  1
  0
VERTEX
  8
INNER1
 10
0.0145
 20
  0
 42
  1
  0
SEQEND
  8
INNER1
  0
POLYLINE
  8
INNER2
 66
1
 70
1
 40
0.02900000000000001
 41
0.02900000000000001
  0
VERTEX
  8
INNER2
 10
-0.0145
 20
  0
 42
  1
  0
VERTEX
  8
INNER2
 10
0.0145
 20
  0
 42
  1
  0
SEQEND
  8
INNER2
  0
POLYLINE
  8
INNER3
 66
1
 70
1
 40
0.02900000000000001
 41
0.02900000000000001
  0
VERTEX
  8
INNER3
 10
-0.0145
 20
  0
 42
  1
  0
VERTEX
  8
INNER3
 10
0.0145
 20
  0
 42
  1
  0
SEQEND
  8
INNER3
  0
POLYLINE
  8
INNER4
 66
1
 70
1
 40
0.02900000000000001
 41
0.02900000000000001
  0
VERTEX
  8
INNER4
 10
-0.0145
 20
  0
 42
  1
  0
VERTEX
  8
INNER4
 10
0.0145
 20
  0
 42
  1
  0
SEQEND
  8
INNER4
  0
POLYLINE
  8
INNER5
 66
1
 70
1
 40
0.02900000000000001
 41
0.02900000000000001
  0
VERTEX
  8
INNER5
 10
-0.0145
 20
  0
 42
  1
  0
VERTEX
  8
INNER5
 10
0.0145
 20
  0
 42
  1
  0
SEQEND
  8
INNER5
  0
POLYLINE
  8
INNER6
 66
1
 70
1
 40
0.02900000000000001
 41
0.02900000000000001
  0
VERTEX
  8
INNER6
 10
-0.0145
 20
  0
 42
  1
  0
VERTEX
  8
INNER6
 10
0.0145
 20
  0
 42
  1
  0
SEQEND
  8
INNER6
  0
POLYLINE
  8
INNER7
 66
1
 70
1
 40
0.02900000000000001
 41
0.02900000000000001
  0
VERTEX
  8
INNER7
 10
-0.0145
 20
  0
 42
  1
  0
VERTEX
  8
INNER7
 10
0.0145
 20
  0
 42
  1
  0
SEQEND
  8
INNER7
  0
POLYLINE
  8
INNER8
 66
1
 70
1
 40
0.02900000000000001
 41
0.02900000000000001
  0
VERTEX
  8
INNER8
 10
-0.0145
 20
  0
 42
  1
  0
VERTEX
  8
INNER8
 10
0.0145
 20
  0
 42
  1
  0
SEQEND
  8
INNER8
  0
POLYLINE
  8
INNER9
 66
1
 70
1
 40
0.02900000000000001
 41
0.02900000000000001
  0
VERTEX
  8
INNER9
 10
-0.0145
 20
  0
 42
  1
  0
VERTEX
  8
INNER9
 10
0.0145
 20
  0
 42
  1
  0
SEQEND
  8
INNER9
  0
POLYLINE
  8
INNER10
 66
1
 70
1
 40
0.02900000000000001
 41
0.02900000000000001
  0
VERTEX
  8
INNER10
 10
-0.0145
 20
  0
 42
  1
  0
VERTEX
  8
INNER10
 10
0.0145
 20
  0
 42
  1
  0
SEQEND
  8
INNER10
  0
POLYLINE
  8
INNER11
 66
1
 70
1
 40
0.02900000000000001
 41
0.02900000000000001
  0
VERTEX
  8
INNER11
 10
-0.0145
 20
  0
 42
  1
  0
VERTEX
  8
INNER11
 10
0.0145
 20
  0
 42
  1
  0
SEQEND
  8
INNER11
  0
POLYLINE
  8
INNER12
 66
1
 70
1
 40
0.02900000000000001
 41
0.02900000000000001
  0
VERTEX
  8
INNER12
 10
-0.0145
 20
  0
 42
  1
  0
VERTEX
  8
INNER12
 10
0.0145
 20
  0
 42
  1
  0
SEQEND
  8
INNER12
  0
POLYLINE
  8
SMTOP
 66
1
 70
1
 40
0.02900000000000001
 41
0.02900000000000001
  0
VERTEX
  8
SMTOP
 10
-0.0145
 20
  0
 42
  1
  0
VERTEX
  8
SMTOP
 10
0.0145
 20
  0
 42
  1
  0
SEQEND
  8
SMTOP
  0
POLYLINE
  8
SMBOT
 66
1
 70
1
 40
0.02900000000000001
 41
0.02900000000000001
  0
VERTEX
  8
SMBOT
 10
-0.0145
 20
  0
 42
  1
  0
VERTEX
  8
SMBOT
 10
0.0145
 20
  0
 42
  1
  0
SEQEND
  8
SMBOT
  0
POLYLINE
  8
ASYTOP
 66
1
 70
1
 40
0.02900000000000001
 41
0.02900000000000001
  0
VERTEX
  8
ASYTOP
 10
-0.0145
 20
  0
 42
  1
  0
VERTEX
  8
ASYTOP
 10
0.0145
 20
  0
 42
  1
  0
SEQEND
  8
ASYTOP
  0
POLYLINE
  8
ASYBOT
 66
1
 70
1
 40
0.02900000000000001
 41
0.02900000000000001
  0
VERTEX
  8
ASYBOT
 10
-0.0145
 20
  0
 42
  1
  0
VERTEX
  8
ASYBOT
 10
0.0145
 20
  0
 42
  1
  0
SEQEND
  8
ASYBOT
  0
POLYLINE
  8
DRLDWG
 66
1
 70
1
 40
0.01700000000000001
 41
0.01700000000000001
  0
VERTEX
  8
DRLDWG
 10
-0.008500000000000002
 20
  0
 42
  1
  0
VERTEX
  8
DRLDWG
 10
0.008500000000000002
 20
  0
 42
  1
  0
SEQEND
  8
DRLDWG
  0
POLYLINE
  8
DRILL
 66
1
 70
1
 40
0.01700000000000001
 41
0.01700000000000001
  0
VERTEX
  8
DRILL
 10
-0.008500000000000002
 20
  0
 42
  1
  0
VERTEX
  8
DRILL
 10
0.008500000000000002
 20
  0
 42
  1
  0
SEQEND
  8
DRILL
  0
ENDBLK
  0
BLOCK
  8
0
  2
padstack_DIP100T_llb_pad5_1
 10
0.0
 20
0.0
 30
0.0
 70
2
  0
POINT
  8
0
 10
  0
 20
  0
  0
POLYLINE
  8
TOP
 66
1
 70
1
 40
0.02900000000000001
 41
0.02900000000000001
  0
VERTEX
  8
TOP
 10
-0.0145
 20
  0
 42
  1
  0
VERTEX
  8
TOP
 10
0.0145
 20
  0
 42
  1
  0
SEQEND
  8
TOP
  0
POLYLINE
  8
BOTTOM
 66
1
 70
1
 40
0.02900000000000001
 41
0.02900000000000001
  0
VERTEX
  8
BOTTOM
 10
-0.0145
 20
  0
 42
  1
  0
VERTEX
  8
BOTTOM
 10
0.0145
 20
  0
 42
  1
  0
SEQEND
  8
BOTTOM
  0
POLYLINE
  8
GND
 66
1
 70
1
 40
0.03900000000000001
 41
0.03900000000000001
  0
VERTEX
  8
GND
 10
-0.0195
 20
  0
 42
  1
  0
VERTEX
  8
GND
 10
0.0195
 20
  0
 42
  1
  0
SEQEND
  8
GND
  0
POLYLINE
  8
POWER
 66
1
 70
1
 40
0.03900000000000001
 41
0.03900000000000001
  0
VERTEX
  8
POWER
 10
-0.0195
 20
  0
 42
  1
  0
VERTEX
  8
POWER
 10
0.0195
 20
  0
 42
  1
  0
SEQEND
  8
POWER
  0
POLYLINE
  8
INNER1
 66
1
 70
1
 40
0.02900000000000001
 41
0.02900000000000001
  0
VERTEX
  8
INNER1
 10
-0.0145
 20
  0
 42
  1
  0
VERTEX
  8
INNER1
 10
0.0145
 20
  0
 42
  1
  0
SEQEND
  8
INNER1
  0
POLYLINE
  8
INNER2
 66
1
 70
1
 40
0.02900000000000001
 41
0.02900000000000001
  0
VERTEX
  8
INNER2
 10
-0.0145
 20
  0
 42
  1
  0
VERTEX
  8
INNER2
 10
0.0145
 20
  0
 42
  1
  0
SEQEND
  8
INNER2
  0
POLYLINE
  8
INNER3
 66
1
 70
1
 40
0.02900000000000001
 41
0.02900000000000001
  0
VERTEX
  8
INNER3
 10
-0.0145
 20
  0
 42
  1
  0
VERTEX
  8
INNER3
 10
0.0145
 20
  0
 42
  1
  0
SEQEND
  8
INNER3
  0
POLYLINE
  8
INNER4
 66
1
 70
1
 40
0.02900000000000001
 41
0.02900000000000001
  0
VERTEX
  8
INNER4
 10
-0.0145
 20
  0
 42
  1
  0
VERTEX
  8
INNER4
 10
0.0145
 20
  0
 42
  1
  0
SEQEND
  8
INNER4
  0
POLYLINE
  8
INNER5
 66
1
 70
1
 40
0.02900000000000001
 41
0.02900000000000001
  0
VERTEX
  8
INNER5
 10
-0.0145
 20
  0
 42
  1
  0
VERTEX
  8
INNER5
 10
0.0145
 20
  0
 42
  1
  0
SEQEND
  8
INNER5
  0
POLYLINE
  8
INNER6
 66
1
 70
1
 40
0.02900000000000001
 41
0.02900000000000001
  0
VERTEX
  8
INNER6
 10
-0.0145
 20
  0
 42
  1
  0
VERTEX
  8
INNER6
 10
0.0145
 20
  0
 42
  1
  0
SEQEND
  8
INNER6
  0
POLYLINE
  8
INNER7
 66
1
 70
1
 40
0.02900000000000001
 41
0.02900000000000001
  0
VERTEX
  8
INNER7
 10
-0.0145
 20
  0
 42
  1
  0
VERTEX
  8
INNER7
 10
0.0145
 20
  0
 42
  1
  0
SEQEND
  8
INNER7
  0
POLYLINE
  8
INNER8
 66
1
 70
1
 40
0.02900000000000001
 41
0.02900000000000001
  0
VERTEX
  8
INNER8
 10
-0.0145
 20
  0
 42
  1
  0
VERTEX
  8
INNER8
 10
0.0145
 20
  0
 42
  1
  0
SEQEND
  8
INNER8
  0
POLYLINE
  8
INNER9
 66
1
 70
1
 40
0.02900000000000001
 41
0.02900000000000001
  0
VERTEX
  8
INNER9
 10
-0.0145
 20
  0
 42
  1
  0
VERTEX
  8
INNER9
 10
0.0145
 20
  0
 42
  1
  0
SEQEND
  8
INNER9
  0
POLYLINE
  8
INNER10
 66
1
 70
1
 40
0.02900000000000001
 41
0.02900000000000001
  0
VERTEX
  8
INNER10
 10
-0.0145
 20
  0
 42
  1
  0
VERTEX
  8
INNER10
 10
0.0145
 20
  0
 42
  1
  0
SEQEND
  8
INNER10
  0
POLYLINE
  8
INNER11
 66
1
 70
1
 40
0.02900000000000001
 41
0.02900000000000001
  0
VERTEX
  8
INNER11
 10
-0.0145
 20
  0
 42
  1
  0
VERTEX
  8
INNER11
 10
0.0145
 20
  0
 42
  1
  0
SEQEND
  8
INNER11
  0
POLYLINE
  8
INNER12
 66
1
 70
1
 40
0.02900000000000001
 41
0.02900000000000001
  0
VERTEX
  8
INNER12
 10
-0.0145
 20
  0
 42
  1
  0
VERTEX
  8
INNER12
 10
0.0145
 20
  0
 42
  1
  0
SEQEND
  8
INNER12
  0
POLYLINE
  8
SMTOP
 66
1
 70
1
 40
0.02900000000000001
 41
0.02900000000000001
  0
VERTEX
  8
SMTOP
 10
-0.0145
 20
  0
 42
  1
  0
VERTEX
  8
SMTOP
 10
0.0145
 20
  0
 42
  1
  0
SEQEND
  8
SMTOP
  0
POLYLINE
  8
SMBOT
 66
1
 70
1
 40
0.02900000000000001
 41
0.02900000000000001
  0
VERTEX
  8
SMBOT
 10
-0.0145
 20
  0
 42
  1
  0
VERTEX
  8
SMBOT
 10
0.0145
 20
  0
 42
  1
  0
SEQEND
  8
SMBOT
  0
POLYLINE
  8
ASYTOP
 66
1
 70
1
 40
0.02900000000000001
 41
0.02900000000000001
  0
VERTEX
  8
ASYTOP
 10
-0.0145
 20
  0
 42
  1
  0
VERTEX
  8
ASYTOP
 10
0.0145
 20
  0
 42
  1
  0
SEQEND
  8
ASYTOP
  0
POLYLINE
  8
ASYBOT
 66
1
 70
1
 40
0.02900000000000001
 41
0.02900000000000001
  0
VERTEX
  8
ASYBOT
 10
-0.0145
 20
  0
 42
  1
  0
VERTEX
  8
ASYBOT
 10
0.0145
 20
  0
 42
  1
  0
SEQEND
  8
ASYBOT
  0
POLYLINE
  8
DRLDWG
 66
1
 70
1
 40
0.01700000000000001
 41
0.01700000000000001
  0
VERTEX
  8
DRLDWG
 10
-0.008500000000000002
 20
  0
 42
  1
  0
VERTEX
  8
DRLDWG
 10
0.008500000000000002
 20
  0
 42
  1
  0
SEQEND
  8
DRLDWG
  0
POLYLINE
  8
DRILL
 66
1
 70
1
 40
0.01700000000000001
 41
0.01700000000000001
  0
VERTEX
  8
DRILL
 10
-0.008500000000000002
 20
  0
 42
  1
  0
VERTEX
  8
DRILL
 10
0.008500000000000002
 20
  0
 42
  1
  0
SEQEND
  8
DRILL
  0
ENDBLK
  0
BLOCK
  8
0
  2
padstack_TM_AXIAL_llb_pad2
 10
0.0
 20
0.0
 30
0.0
 70
2
  0
POINT
  8
0
 10
  0
 20
  0
  0
POLYLINE
  8
TOP
 66
1
 70
1
 40
0.02250000000000001
 41
0.02250000000000001
  0
VERTEX
  8
TOP
 10
-0.01125
 20
  0
 42
  1
  0
VERTEX
  8
TOP
 10
0.01125
 20
  0
 42
  1
  0
SEQEND
  8
TOP
  0
POLYLINE
  8
BOTTOM
 66
1
 70
1
 40
0.02250000000000001
 41
0.02250000000000001
  0
VERTEX
  8
BOTTOM
 10
-0.01125
 20
  0
 42
  1
  0
VERTEX
  8
BOTTOM
 10
0.01125
 20
  0
 42
  1
  0
SEQEND
  8
BOTTOM
  0
POLYLINE
  8
GND
 66
1
 70
1
 40
0.03250000000000001
 41
0.03250000000000001
  0
VERTEX
  8
GND
 10
-0.01625
 20
  0
 42
  1
  0
VERTEX
  8
GND
 10
0.01625
 20
  0
 42
  1
  0
SEQEND
  8
GND
  0
POLYLINE
  8
POWER
 66
1
 70
1
 40
0.03250000000000001
 41
0.03250000000000001
  0
VERTEX
  8
POWER
 10
-0.01625
 20
  0
 42
  1
  0
VERTEX
  8
POWER
 10
0.01625
 20
  0
 42
  1
  0
SEQEND
  8
POWER
  0
POLYLINE
  8
INNER1
 66
1
 70
1
 40
0.02250000000000001
 41
0.02250000000000001
  0
VERTEX
  8
INNER1
 10
-0.01125
 20
  0
 42
  1
  0
VERTEX
  8
INNER1
 10
0.01125
 20
  0
 42
  1
  0
SEQEND
  8
INNER1
  0
POLYLINE
  8
INNER2
 66
1
 70
1
 40
0.02250000000000001
 41
0.02250000000000001
  0
VERTEX
  8
INNER2
 10
-0.01125
 20
  0
 42
  1
  0
VERTEX
  8
INNER2
 10
0.01125
 20
  0
 42
  1
  0
SEQEND
  8
INNER2
  0
POLYLINE
  8
INNER3
 66
1
 70
1
 40
0.02250000000000001
 41
0.02250000000000001
  0
VERTEX
  8
INNER3
 10
-0.01125
 20
  0
 42
  1
  0
VERTEX
  8
INNER3
 10
0.01125
 20
  0
 42
  1
  0
SEQEND
  8
INNER3
  0
POLYLINE
  8
INNER4
 66
1
 70
1
 40
0.02250000000000001
 41
0.02250000000000001
  0
VERTEX
  8
INNER4
 10
-0.01125
 20
  0
 42
  1
  0
VERTEX
  8
INNER4
 10
0.01125
 20
  0
 42
  1
  0
SEQEND
  8
INNER4
  0
POLYLINE
  8
INNER5
 66
1
 70
1
 40
0.02250000000000001
 41
0.02250000000000001
  0
VERTEX
  8
INNER5
 10
-0.01125
 20
  0
 42
  1
  0
VERTEX
  8
INNER5
 10
0.01125
 20
  0
 42
  1
  0
SEQEND
  8
INNER5
  0
POLYLINE
  8
INNER6
 66
1
 70
1
 40
0.02250000000000001
 41
0.02250000000000001
  0
VERTEX
  8
INNER6
 10
-0.01125
 20
  0
 42
  1
  0
VERTEX
  8
INNER6
 10
0.01125
 20
  0
 42
  1
  0
SEQEND
  8
INNER6
  0
POLYLINE
  8
INNER7
 66
1
 70
1
 40
0.02250000000000001
 41
0.02250000000000001
  0
VERTEX
  8
INNER7
 10
-0.01125
 20
  0
 42
  1
  0
VERTEX
  8
INNER7
 10
0.01125
 20
  0
 42
  1
  0
SEQEND
  8
INNER7
  0
POLYLINE
  8
INNER8
 66
1
 70
1
 40
0.02250000000000001
 41
0.02250000000000001
  0
VERTEX
  8
INNER8
 10
-0.01125
 20
  0
 42
  1
  0
VERTEX
  8
INNER8
 10
0.01125
 20
  0
 42
  1
  0
SEQEND
  8
INNER8
  0
POLYLINE
  8
INNER9
 66
1
 70
1
 40
0.02250000000000001
 41
0.02250000000000001
  0
VERTEX
  8
INNER9
 10
-0.01125
 20
  0
 42
  1
  0
VERTEX
  8
INNER9
 10
0.01125
 20
  0
 42
  1
  0
SEQEND
  8
INNER9
  0
POLYLINE
  8
INNER10
 66
1
 70
1
 40
0.02250000000000001
 41
0.02250000000000001
  0
VERTEX
  8
INNER10
 10
-0.01125
 20
  0
 42
  1
  0
VERTEX
  8
INNER10
 10
0.01125
 20
  0
 42
  1
  0
SEQEND
  8
INNER10
  0
POLYLINE
  8
INNER11
 66
1
 70
1
 40
0.02250000000000001
 41
0.02250000000000001
  0
VERTEX
  8
INNER11
 10
-0.01125
 20
  0
 42
  1
  0
VERTEX
  8
INNER11
 10
0.01125
 20
  0
 42
  1
  0
SEQEND
  8
INNER11
  0
POLYLINE
  8
INNER12
 66
1
 70
1
 40
0.02250000000000001
 41
0.02250000000000001
  0
VERTEX
  8
INNER12
 10
-0.01125
 20
  0
 42
  1
  0
VERTEX
  8
INNER12
 10
0.01125
 20
  0
 42
  1
  0
SEQEND
  8
INNER12
  0
POLYLINE
  8
SMTOP
 66
1
 70
1
 40
0.02250000000000001
 41
0.02250000000000001
  0
VERTEX
  8
SMTOP
 10
-0.01125
 20
  0
 42
  1
  0
VERTEX
  8
SMTOP
 10
0.01125
 20
  0
 42
  1
  0
SEQEND
  8
SMTOP
  0
POLYLINE
  8
SMBOT
 66
1
 70
1
 40
0.02250000000000001
 41
0.02250000000000001
  0
VERTEX
  8
SMBOT
 10
-0.01125
 20
  0
 42
  1
  0
VERTEX
  8
SMBOT
 10
0.01125
 20
  0
 42
  1
  0
SEQEND
  8
SMBOT
  0
POLYLINE
  8
ASYTOP
 66
1
 70
1
 40
0.02250000000000001
 41
0.02250000000000001
  0
VERTEX
  8
ASYTOP
 10
-0.01125
 20
  0
 42
  1
  0
VERTEX
  8
ASYTOP
 10
0.01125
 20
  0
 42
  1
  0
SEQEND
  8
ASYTOP
  0
POLYLINE
  8
ASYBOT
 66
1
 70
1
 40
0.02250000000000001
 41
0.02250000000000001
  0
VERTEX
  8
ASYBOT
 10
-0.01125
 20
  0
 42
  1
  0
VERTEX
  8
ASYBOT
 10
0.01125
 20
  0
 42
  1
  0
SEQEND
  8
ASYBOT
  0
POLYLINE
  8
DRLDWG
 66
1
 70
1
 40
0.014
 41
0.014
  0
VERTEX
  8
DRLDWG
 10
-0.007000000000000002
 20
  0
 42
  1
  0
VERTEX
  8
DRLDWG
 10
0.007000000000000002
 20
  0
 42
  1
  0
SEQEND
  8
DRLDWG
  0
POLYLINE
  8
DRILL
 66
1
 70
1
 40
0.014
 41
0.014
  0
VERTEX
  8
DRILL
 10
-0.007000000000000002
 20
  0
 42
  1
  0
VERTEX
  8
DRILL
 10
0.007000000000000002
 20
  0
 42
  1
  0
SEQEND
  8
DRILL
  0
ENDBLK
  0
BLOCK
  8
0
  2
padstack_TM_RAD_llb_pad2
 10
0.0
 20
0.0
 30
0.0
 70
2
  0
POINT
  8
0
 10
  0
 20
  0
  0
POLYLINE
  8
TOP
 66
1
 70
1
 40
0.02600000000000001
 41
0.02600000000000001
  0
VERTEX
  8
TOP
 10
-0.013
 20
  0
 42
  1
  0
VERTEX
  8
TOP
 10
0.013
 20
  0
 42
  1
  0
SEQEND
  8
TOP
  0
POLYLINE
  8
BOTTOM
 66
1
 70
1
 40
0.02600000000000001
 41
0.02600000000000001
  0
VERTEX
  8
BOTTOM
 10
-0.013
 20
  0
 42
  1
  0
VERTEX
  8
BOTTOM
 10
0.013
 20
  0
 42
  1
  0
SEQEND
  8
BOTTOM
  0
POLYLINE
  8
GND
 66
1
 70
1
 40
0.03600000000000001
 41
0.03600000000000001
  0
VERTEX
  8
GND
 10
-0.01800000000000001
 20
  0
 42
  1
  0
VERTEX
  8
GND
 10
0.01800000000000001
 20
  0
 42
  1
  0
SEQEND
  8
GND
  0
POLYLINE
  8
POWER
 66
1
 70
1
 40
0.03600000000000001
 41
0.03600000000000001
  0
VERTEX
  8
POWER
 10
-0.01800000000000001
 20
  0
 42
  1
  0
VERTEX
  8
POWER
 10
0.01800000000000001
 20
  0
 42
  1
  0
SEQEND
  8
POWER
  0
POLYLINE
  8
INNER1
 66
1
 70
1
 40
0.02600000000000001
 41
0.02600000000000001
  0
VERTEX
  8
INNER1
 10
-0.013
 20
  0
 42
  1
  0
VERTEX
  8
INNER1
 10
0.013
 20
  0
 42
  1
  0
SEQEND
  8
INNER1
  0
POLYLINE
  8
INNER2
 66
1
 70
1
 40
0.02600000000000001
 41
0.02600000000000001
  0
VERTEX
  8
INNER2
 10
-0.013
 20
  0
 42
  1
  0
VERTEX
  8
INNER2
 10
0.013
 20
  0
 42
  1
  0
SEQEND
  8
INNER2
  0
POLYLINE
  8
INNER3
 66
1
 70
1
 40
0.02600000000000001
 41
0.02600000000000001
  0
VERTEX
  8
INNER3
 10
-0.013
 20
  0
 42
  1
  0
VERTEX
  8
INNER3
 10
0.013
 20
  0
 42
  1
  0
SEQEND
  8
INNER3
  0
POLYLINE
  8
INNER4
 66
1
 70
1
 40
0.02600000000000001
 41
0.02600000000000001
  0
VERTEX
  8
INNER4
 10
-0.013
 20
  0
 42
  1
  0
VERTEX
  8
INNER4
 10
0.013
 20
  0
 42
  1
  0
SEQEND
  8
INNER4
  0
POLYLINE
  8
INNER5
 66
1
 70
1
 40
0.02600000000000001
 41
0.02600000000000001
  0
VERTEX
  8
INNER5
 10
-0.013
 20
  0
 42
  1
  0
VERTEX
  8
INNER5
 10
0.013
 20
  0
 42
  1
  0
SEQEND
  8
INNER5
  0
POLYLINE
  8
INNER6
 66
1
 70
1
 40
0.02600000000000001
 41
0.02600000000000001
  0
VERTEX
  8
INNER6
 10
-0.013
 20
  0
 42
  1
  0
VERTEX
  8
INNER6
 10
0.013
 20
  0
 42
  1
  0
SEQEND
  8
INNER6
  0
POLYLINE
  8
INNER7
 66
1
 70
1
 40
0.02600000000000001
 41
0.02600000000000001
  0
VERTEX
  8
INNER7
 10
-0.013
 20
  0
 42
  1
  0
VERTEX
  8
INNER7
 10
0.013
 20
  0
 42
  1
  0
SEQEND
  8
INNER7
  0
POLYLINE
  8
INNER8
 66
1
 70
1
 40
0.02600000000000001
 41
0.02600000000000001
  0
VERTEX
  8
INNER8
 10
-0.013
 20
  0
 42
  1
  0
VERTEX
  8
INNER8
 10
0.013
 20
  0
 42
  1
  0
SEQEND
  8
INNER8
  0
POLYLINE
  8
INNER9
 66
1
 70
1
 40
0.02600000000000001
 41
0.02600000000000001
  0
VERTEX
  8
INNER9
 10
-0.013
 20
  0
 42
  1
  0
VERTEX
  8
INNER9
 10
0.013
 20
  0
 42
  1
  0
SEQEND
  8
INNER9
  0
POLYLINE
  8
INNER10
 66
1
 70
1
 40
0.02600000000000001
 41
0.02600000000000001
  0
VERTEX
  8
INNER10
 10
-0.013
 20
  0
 42
  1
  0
VERTEX
  8
INNER10
 10
0.013
 20
  0
 42
  1
  0
SEQEND
  8
INNER10
  0
POLYLINE
  8
INNER11
 66
1
 70
1
 40
0.02600000000000001
 41
0.02600000000000001
  0
VERTEX
  8
INNER11
 10
-0.013
 20
  0
 42
  1
  0
VERTEX
  8
INNER11
 10
0.013
 20
  0
 42
  1
  0
SEQEND
  8
INNER11
  0
POLYLINE
  8
INNER12
 66
1
 70
1
 40
0.02600000000000001
 41
0.02600000000000001
  0
VERTEX
  8
INNER12
 10
-0.013
 20
  0
 42
  1
  0
VERTEX
  8
INNER12
 10
0.013
 20
  0
 42
  1
  0
SEQEND
  8
INNER12
  0
POLYLINE
  8
SMTOP
 66
1
 70
1
 40
0.02600000000000001
 41
0.02600000000000001
  0
VERTEX
  8
SMTOP
 10
-0.013
 20
  0
 42
  1
  0
VERTEX
  8
SMTOP
 10
0.013
 20
  0
 42
  1
  0
SEQEND
  8
SMTOP
  0
POLYLINE
  8
SMBOT
 66
1
 70
1
 40
0.02600000000000001
 41
0.02600000000000001
  0
VERTEX
  8
SMBOT
 10
-0.013
 20
  0
 42
  1
  0
VERTEX
  8
SMBOT
 10
0.013
 20
  0
 42
  1
  0
SEQEND
  8
SMBOT
  0
POLYLINE
  8
ASYTOP
 66
1
 70
1
 40
0.02600000000000001
 41
0.02600000000000001
  0
VERTEX
  8
ASYTOP
 10
-0.013
 20
  0
 42
  1
  0
VERTEX
  8
ASYTOP
 10
0.013
 20
  0
 42
  1
  0
SEQEND
  8
ASYTOP
  0
POLYLINE
  8
ASYBOT
 66
1
 70
1
 40
0.02600000000000001
 41
0.02600000000000001
  0
VERTEX
  8
ASYBOT
 10
-0.013
 20
  0
 42
  1
  0
VERTEX
  8
ASYBOT
 10
0.013
 20
  0
 42
  1
  0
SEQEND
  8
ASYBOT
  0
POLYLINE
  8
DRLDWG
 66
1
 70
1
 40
0.0155
 41
0.0155
  0
VERTEX
  8
DRLDWG
 10
-0.007750000000000002
 20
  0
 42
  1
  0
VERTEX
  8
DRLDWG
 10
0.007750000000000002
 20
  0
 42
  1
  0
SEQEND
  8
DRLDWG
  0
POLYLINE
  8
DRILL
 66
1
 70
1
 40
0.0155
 41
0.0155
  0
VERTEX
  8
DRILL
 10
-0.007750000000000002
 20
  0
 42
  1
  0
VERTEX
  8
DRILL
 10
0.007750000000000002
 20
  0
 42
  1
  0
SEQEND
  8
DRILL
  0
ENDBLK
  0
BLOCK
  8
0
  2
padstack_BCON100T_llb_pad3
 10
0.0
 20
0.0
 30
0.0
 70
2
  0
POINT
  8
0
 10
  0
 20
  0
  0
POLYLINE
  8
TOP
 66
1
 70
0
 40
0.06200000000000001
 41
0.06200000000000001
  0
VERTEX
  8
TOP
 10
-0.03100000000000001
 20
  0
  0
VERTEX
  8
TOP
 10
0.03100000000000001
 20
  0
  0
SEQEND
  8
TOP
  0
POLYLINE
  8
BOTTOM
 66
1
 70
0
 40
0.06200000000000001
 41
0.06200000000000001
  0
VERTEX
  8
BOTTOM
 10
-0.03100000000000001
 20
  0
  0
VERTEX
  8
BOTTOM
 10
0.03100000000000001
 20
  0
  0
SEQEND
  8
BOTTOM
  0
POLYLINE
  8
GND
 66
1
 70
0
 40
0.08200000000000002
 41
0.08200000000000002
  0
VERTEX
  8
GND
 10
-0.04100000000000001
 20
  0
  0
VERTEX
  8
GND
 10
0.04100000000000001
 20
  0
  0
SEQEND
  8
GND
  0
POLYLINE
  8
POWER
 66
1
 70
0
 40
0.08200000000000002
 41
0.08200000000000002
  0
VERTEX
  8
POWER
 10
-0.04100000000000001
 20
  0
  0
VERTEX
  8
POWER
 10
0.04100000000000001
 20
  0
  0
SEQEND
  8
POWER
  0
POLYLINE
  8
INNER1
 66
1
 70
0
 40
0.06200000000000001
 41
0.06200000000000001
  0
VERTEX
  8
INNER1
 10
-0.03100000000000001
 20
  0
  0
VERTEX
  8
INNER1
 10
0.03100000000000001
 20
  0
  0
SEQEND
  8
INNER1
  0
POLYLINE
  8
INNER2
 66
1
 70
0
 40
0.06200000000000001
 41
0.06200000000000001
  0
VERTEX
  8
INNER2
 10
-0.03100000000000001
 20
  0
  0
VERTEX
  8
INNER2
 10
0.03100000000000001
 20
  0
  0
SEQEND
  8
INNER2
  0
POLYLINE
  8
INNER3
 66
1
 70
0
 40
0.06200000000000001
 41
0.06200000000000001
  0
VERTEX
  8
INNER3
 10
-0.03100000000000001
 20
  0
  0
VERTEX
  8
INNER3
 10
0.03100000000000001
 20
  0
  0
SEQEND
  8
INNER3
  0
POLYLINE
  8
INNER4
 66
1
 70
0
 40
0.06200000000000001
 41
0.06200000000000001
  0
VERTEX
  8
INNER4
 10
-0.03100000000000001
 20
  0
  0
VERTEX
  8
INNER4
 10
0.03100000000000001
 20
  0
  0
SEQEND
  8
INNER4
  0
POLYLINE
  8
INNER5
 66
1
 70
0
 40
0.06200000000000001
 41
0.06200000000000001
  0
VERTEX
  8
INNER5
 10
-0.03100000000000001
 20
  0
  0
VERTEX
  8
INNER5
 10
0.03100000000000001
 20
  0
  0
SEQEND
  8
INNER5
  0
POLYLINE
  8
INNER6
 66
1
 70
0
 40
0.06200000000000001
 41
0.06200000000000001
  0
VERTEX
  8
INNER6
 10
-0.03100000000000001
 20
  0
  0
VERTEX
  8
INNER6
 10
0.03100000000000001
 20
  0
  0
SEQEND
  8
INNER6
  0
POLYLINE
  8
INNER7
 66
1
 70
0
 40
0.06200000000000001
 41
0.06200000000000001
  0
VERTEX
  8
INNER7
 10
-0.03100000000000001
 20
  0
  0
VERTEX
  8
INNER7
 10
0.03100000000000001
 20
  0
  0
SEQEND
  8
INNER7
  0
POLYLINE
  8
INNER8
 66
1
 70
0
 40
0.06200000000000001
 41
0.06200000000000001
  0
VERTEX
  8
INNER8
 10
-0.03100000000000001
 20
  0
  0
VERTEX
  8
INNER8
 10
0.03100000000000001
 20
  0
  0
SEQEND
  8
INNER8
  0
POLYLINE
  8
INNER9
 66
1
 70
0
 40
0.06200000000000001
 41
0.06200000000000001
  0
VERTEX
  8
INNER9
 10
-0.03100000000000001
 20
  0
  0
VERTEX
  8
INNER9
 10
0.03100000000000001
 20
  0
  0
SEQEND
  8
INNER9
  0
POLYLINE
  8
INNER10
 66
1
 70
0
 40
0.06200000000000001
 41
0.06200000000000001
  0
VERTEX
  8
INNER10
 10
-0.03100000000000001
 20
  0
  0
VERTEX
  8
INNER10
 10
0.03100000000000001
 20
  0
  0
SEQEND
  8
INNER10
  0
POLYLINE
  8
INNER11
 66
1
 70
0
 40
0.06200000000000001
 41
0.06200000000000001
  0
VERTEX
  8
INNER11
 10
-0.03100000000000001
 20
  0
  0
VERTEX
  8
INNER11
 10
0.03100000000000001
 20
  0
  0
SEQEND
  8
INNER11
  0
POLYLINE
  8
INNER12
 66
1
 70
0
 40
0.06200000000000001
 41
0.06200000000000001
  0
VERTEX
  8
INNER12
 10
-0.03100000000000001
 20
  0
  0
VERTEX
  8
INNER12
 10
0.03100000000000001
 20
  0
  0
SEQEND
  8
INNER12
  0
POLYLINE
  8
SMTOP
 66
1
 70
0
 40
0.06200000000000001
 41
0.06200000000000001
  0
VERTEX
  8
SMTOP
 10
-0.03100000000000001
 20
  0
  0
VERTEX
  8
SMTOP
 10
0.03100000000000001
 20
  0
  0
SEQEND
  8
SMTOP
  0
POLYLINE
  8
SMBOT
 66
1
 70
0
 40
0.06200000000000001
 41
0.06200000000000001
  0
VERTEX
  8
SMBOT
 10
-0.03100000000000001
 20
  0
  0
VERTEX
  8
SMBOT
 10
0.03100000000000001
 20
  0
  0
SEQEND
  8
SMBOT
  0
POLYLINE
  8
ASYTOP
 66
1
 70
0
 40
0.06200000000000001
 41
0.06200000000000001
  0
VERTEX
  8
ASYTOP
 10
-0.03100000000000001
 20
  0
  0
VERTEX
  8
ASYTOP
 10
0.03100000000000001
 20
  0
  0
SEQEND
  8
ASYTOP
  0
POLYLINE
  8
ASYBOT
 66
1
 70
0
 40
0.06200000000000001
 41
0.06200000000000001
  0
VERTEX
  8
ASYBOT
 10
-0.03100000000000001
 20
  0
  0
VERTEX
  8
ASYBOT
 10
0.03100000000000001
 20
  0
  0
SEQEND
  8
ASYBOT
  0
POLYLINE
  8
DRLDWG
 66
1
 70
1
 40
0.02100000000000001
 41
0.02100000000000001
  0
VERTEX
  8
DRLDWG
 10
-0.0105
 20
  0
 42
  1
  0
VERTEX
  8
DRLDWG
 10
0.0105
 20
  0
 42
  1
  0
SEQEND
  8
DRLDWG
  0
POLYLINE
  8
DRILL
 66
1
 70
1
 40
0.02100000000000001
 41
0.02100000000000001
  0
VERTEX
  8
DRILL
 10
-0.0105
 20
  0
 42
  1
  0
VERTEX
  8
DRILL
 10
0.0105
 20
  0
 42
  1
  0
SEQEND
  8
DRILL
  0
ENDBLK
  0
BLOCK
  8
0
  2
padstack_BCON100T_llb_pad4
 10
0.0
 20
0.0
 30
0.0
 70
2
  0
POINT
  8
0
 10
  0
 20
  0
  0
POLYLINE
  8
TOP
 66
1
 70
1
 40
0.03100000000000001
 41
0.03100000000000001
  0
VERTEX
  8
TOP
 10
-0.0155
 20
  0
 42
  1
  0
VERTEX
  8
TOP
 10
0.0155
 20
  0
 42
  1
  0
SEQEND
  8
TOP
  0
POLYLINE
  8
BOTTOM
 66
1
 70
1
 40
0.03100000000000001
 41
0.03100000000000001
  0
VERTEX
  8
BOTTOM
 10
-0.0155
 20
  0
 42
  1
  0
VERTEX
  8
BOTTOM
 10
0.0155
 20
  0
 42
  1
  0
SEQEND
  8
BOTTOM
  0
POLYLINE
  8
GND
 66
1
 70
1
 40
0.04100000000000001
 41
0.04100000000000001
  0
VERTEX
  8
GND
 10
-0.0205
 20
  0
 42
  1
  0
VERTEX
  8
GND
 10
0.0205
 20
  0
 42
  1
  0
SEQEND
  8
GND
  0
POLYLINE
  8
POWER
 66
1
 70
1
 40
0.04100000000000001
 41
0.04100000000000001
  0
VERTEX
  8
POWER
 10
-0.0205
 20
  0
 42
  1
  0
VERTEX
  8
POWER
 10
0.0205
 20
  0
 42
  1
  0
SEQEND
  8
POWER
  0
POLYLINE
  8
INNER1
 66
1
 70
1
 40
0.03100000000000001
 41
0.03100000000000001
  0
VERTEX
  8
INNER1
 10
-0.0155
 20
  0
 42
  1
  0
VERTEX
  8
INNER1
 10
0.0155
 20
  0
 42
  1
  0
SEQEND
  8
INNER1
  0
POLYLINE
  8
INNER2
 66
1
 70
1
 40
0.03100000000000001
 41
0.03100000000000001
  0
VERTEX
  8
INNER2
 10
-0.0155
 20
  0
 42
  1
  0
VERTEX
  8
INNER2
 10
0.0155
 20
  0
 42
  1
  0
SEQEND
  8
INNER2
  0
POLYLINE
  8
INNER3
 66
1
 70
1
 40
0.03100000000000001
 41
0.03100000000000001
  0
VERTEX
  8
INNER3
 10
-0.0155
 20
  0
 42
  1
  0
VERTEX
  8
INNER3
 10
0.0155
 20
  0
 42
  1
  0
SEQEND
  8
INNER3
  0
POLYLINE
  8
INNER4
 66
1
 70
1
 40
0.03100000000000001
 41
0.03100000000000001
  0
VERTEX
  8
INNER4
 10
-0.0155
 20
  0
 42
  1
  0
VERTEX
  8
INNER4
 10
0.0155
 20
  0
 42
  1
  0
SEQEND
  8
INNER4
  0
POLYLINE
  8
INNER5
 66
1
 70
1
 40
0.03100000000000001
 41
0.03100000000000001
  0
VERTEX
  8
INNER5
 10
-0.0155
 20
  0
 42
  1
  0
VERTEX
  8
INNER5
 10
0.0155
 20
  0
 42
  1
  0
SEQEND
  8
INNER5
  0
POLYLINE
  8
INNER6
 66
1
 70
1
 40
0.03100000000000001
 41
0.03100000000000001
  0
VERTEX
  8
INNER6
 10
-0.0155
 20
  0
 42
  1
  0
VERTEX
  8
INNER6
 10
0.0155
 20
  0
 42
  1
  0
SEQEND
  8
INNER6
  0
POLYLINE
  8
INNER7
 66
1
 70
1
 40
0.03100000000000001
 41
0.03100000000000001
  0
VERTEX
  8
INNER7
 10
-0.0155
 20
  0
 42
  1
  0
VERTEX
  8
INNER7
 10
0.0155
 20
  0
 42
  1
  0
SEQEND
  8
INNER7
  0
POLYLINE
  8
INNER8
 66
1
 70
1
 40
0.03100000000000001
 41
0.03100000000000001
  0
VERTEX
  8
INNER8
 10
-0.0155
 20
  0
 42
  1
  0
VERTEX
  8
INNER8
 10
0.0155
 20
  0
 42
  1
  0
SEQEND
  8
INNER8
  0
POLYLINE
  8
INNER9
 66
1
 70
1
 40
0.03100000000000001
 41
0.03100000000000001
  0
VERTEX
  8
INNER9
 10
-0.0155
 20
  0
 42
  1
  0
VERTEX
  8
INNER9
 10
0.0155
 20
  0
 42
  1
  0
SEQEND
  8
INNER9
  0
POLYLINE
  8
INNER10
 66
1
 70
1
 40
0.03100000000000001
 41
0.03100000000000001
  0
VERTEX
  8
INNER10
 10
-0.0155
 20
  0
 42
  1
  0
VERTEX
  8
INNER10
 10
0.0155
 20
  0
 42
  1
  0
SEQEND
  8
INNER10
  0
POLYLINE
  8
INNER11
 66
1
 70
1
 40
0.03100000000000001
 41
0.03100000000000001
  0
VERTEX
  8
INNER11
 10
-0.0155
 20
  0
 42
  1
  0
VERTEX
  8
INNER11
 10
0.0155
 20
  0
 42
  1
  0
SEQEND
  8
INNER11
  0
POLYLINE
  8
INNER12
 66
1
 70
1
 40
0.03100000000000001
 41
0.03100000000000001
  0
VERTEX
  8
INNER12
 10
-0.0155
 20
  0
 42
  1
  0
VERTEX
  8
INNER12
 10
0.0155
 20
  0
 42
  1
  0
SEQEND
  8
INNER12
  0
POLYLINE
  8
SMTOP
 66
1
 70
1
 40
0.03100000000000001
 41
0.03100000000000001
  0
VERTEX
  8
SMTOP
 10
-0.0155
 20
  0
 42
  1
  0
VERTEX
  8
SMTOP
 10
0.0155
 20
  0
 42
  1
  0
SEQEND
  8
SMTOP
  0
POLYLINE
  8
SMBOT
 66
1
 70
1
 40
0.03100000000000001
 41
0.03100000000000001
  0
VERTEX
  8
SMBOT
 10
-0.0155
 20
  0
 42
  1
  0
VERTEX
  8
SMBOT
 10
0.0155
 20
  0
 42
  1
  0
SEQEND
  8
SMBOT
  0
POLYLINE
  8
ASYTOP
 66
1
 70
1
 40
0.03100000000000001
 41
0.03100000000000001
  0
VERTEX
  8
ASYTOP
 10
-0.0155
 20
  0
 42
  1
  0
VERTEX
  8
ASYTOP
 10
0.0155
 20
  0
 42
  1
  0
SEQEND
  8
ASYTOP
  0
POLYLINE
  8
ASYBOT
 66
1
 70
1
 40
0.03100000000000001
 41
0.03100000000000001
  0
VERTEX
  8
ASYBOT
 10
-0.0155
 20
  0
 42
  1
  0
VERTEX
  8
ASYBOT
 10
0.0155
 20
  0
 42
  1
  0
SEQEND
  8
ASYBOT
  0
POLYLINE
  8
DRLDWG
 66
1
 70
1
 40
0.02100000000000001
 41
0.02100000000000001
  0
VERTEX
  8
DRLDWG
 10
-0.0105
 20
  0
 42
  1
  0
VERTEX
  8
DRLDWG
 10
0.0105
 20
  0
 42
  1
  0
SEQEND
  8
DRLDWG
  0
POLYLINE
  8
DRILL
 66
1
 70
1
 40
0.02100000000000001
 41
0.02100000000000001
  0
VERTEX
  8
DRILL
 10
-0.0105
 20
  0
 42
  1
  0
VERTEX
  8
DRILL
 10
0.0105
 20
  0
 42
  1
  0
SEQEND
  8
DRILL
  0
ENDBLK
  0
BLOCK
  8
0
  2
padstack_TM_CYLND_llb_pad3
 10
0.0
 20
0.0
 30
0.0
 70
2
  0
POINT
  8
0
 10
  0
 20
  0
  0
POLYLINE
  8
TOP
 66
1
 70
0
 40
0.05200000000000001
 41
0.05200000000000001
  0
VERTEX
  8
TOP
 10
-0.02600000000000001
 20
  0
  0
VERTEX
  8
TOP
 10
0.02600000000000001
 20
  0
  0
SEQEND
  8
TOP
  0
POLYLINE
  8
BOTTOM
 66
1
 70
0
 40
0.05200000000000001
 41
0.05200000000000001
  0
VERTEX
  8
BOTTOM
 10
-0.02600000000000001
 20
  0
  0
VERTEX
  8
BOTTOM
 10
0.02600000000000001
 20
  0
  0
SEQEND
  8
BOTTOM
  0
POLYLINE
  8
GND
 66
1
 70
0
 40
0.07200000000000002
 41
0.07200000000000002
  0
VERTEX
  8
GND
 10
-0.03600000000000001
 20
  0
  0
VERTEX
  8
GND
 10
0.03600000000000001
 20
  0
  0
SEQEND
  8
GND
  0
POLYLINE
  8
POWER
 66
1
 70
0
 40
0.07200000000000002
 41
0.07200000000000002
  0
VERTEX
  8
POWER
 10
-0.03600000000000001
 20
  0
  0
VERTEX
  8
POWER
 10
0.03600000000000001
 20
  0
  0
SEQEND
  8
POWER
  0
POLYLINE
  8
INNER1
 66
1
 70
0
 40
0.05200000000000001
 41
0.05200000000000001
  0
VERTEX
  8
INNER1
 10
-0.02600000000000001
 20
  0
  0
VERTEX
  8
INNER1
 10
0.02600000000000001
 20
  0
  0
SEQEND
  8
INNER1
  0
POLYLINE
  8
INNER2
 66
1
 70
0
 40
0.05200000000000001
 41
0.05200000000000001
  0
VERTEX
  8
INNER2
 10
-0.02600000000000001
 20
  0
  0
VERTEX
  8
INNER2
 10
0.02600000000000001
 20
  0
  0
SEQEND
  8
INNER2
  0
POLYLINE
  8
INNER3
 66
1
 70
0
 40
0.05200000000000001
 41
0.05200000000000001
  0
VERTEX
  8
INNER3
 10
-0.02600000000000001
 20
  0
  0
VERTEX
  8
INNER3
 10
0.02600000000000001
 20
  0
  0
SEQEND
  8
INNER3
  0
POLYLINE
  8
INNER4
 66
1
 70
0
 40
0.05200000000000001
 41
0.05200000000000001
  0
VERTEX
  8
INNER4
 10
-0.02600000000000001
 20
  0
  0
VERTEX
  8
INNER4
 10
0.02600000000000001
 20
  0
  0
SEQEND
  8
INNER4
  0
POLYLINE
  8
INNER5
 66
1
 70
0
 40
0.05200000000000001
 41
0.05200000000000001
  0
VERTEX
  8
INNER5
 10
-0.02600000000000001
 20
  0
  0
VERTEX
  8
INNER5
 10
0.02600000000000001
 20
  0
  0
SEQEND
  8
INNER5
  0
POLYLINE
  8
INNER6
 66
1
 70
0
 40
0.05200000000000001
 41
0.05200000000000001
  0
VERTEX
  8
INNER6
 10
-0.02600000000000001
 20
  0
  0
VERTEX
  8
INNER6
 10
0.02600000000000001
 20
  0
  0
SEQEND
  8
INNER6
  0
POLYLINE
  8
INNER7
 66
1
 70
0
 40
0.05200000000000001
 41
0.05200000000000001
  0
VERTEX
  8
INNER7
 10
-0.02600000000000001
 20
  0
  0
VERTEX
  8
INNER7
 10
0.02600000000000001
 20
  0
  0
SEQEND
  8
INNER7
  0
POLYLINE
  8
INNER8
 66
1
 70
0
 40
0.05200000000000001
 41
0.05200000000000001
  0
VERTEX
  8
INNER8
 10
-0.02600000000000001
 20
  0
  0
VERTEX
  8
INNER8
 10
0.02600000000000001
 20
  0
  0
SEQEND
  8
INNER8
  0
POLYLINE
  8
INNER9
 66
1
 70
0
 40
0.05200000000000001
 41
0.05200000000000001
  0
VERTEX
  8
INNER9
 10
-0.02600000000000001
 20
  0
  0
VERTEX
  8
INNER9
 10
0.02600000000000001
 20
  0
  0
SEQEND
  8
INNER9
  0
POLYLINE
  8
INNER10
 66
1
 70
0
 40
0.05200000000000001
 41
0.05200000000000001
  0
VERTEX
  8
INNER10
 10
-0.02600000000000001
 20
  0
  0
VERTEX
  8
INNER10
 10
0.02600000000000001
 20
  0
  0
SEQEND
  8
INNER10
  0
POLYLINE
  8
INNER11
 66
1
 70
0
 40
0.05200000000000001
 41
0.05200000000000001
  0
VERTEX
  8
INNER11
 10
-0.02600000000000001
 20
  0
  0
VERTEX
  8
INNER11
 10
0.02600000000000001
 20
  0
  0
SEQEND
  8
INNER11
  0
POLYLINE
  8
INNER12
 66
1
 70
0
 40
0.05200000000000001
 41
0.05200000000000001
  0
VERTEX
  8
INNER12
 10
-0.02600000000000001
 20
  0
  0
VERTEX
  8
INNER12
 10
0.02600000000000001
 20
  0
  0
SEQEND
  8
INNER12
  0
POLYLINE
  8
SMTOP
 66
1
 70
0
 40
0.05200000000000001
 41
0.05200000000000001
  0
VERTEX
  8
SMTOP
 10
-0.02600000000000001
 20
  0
  0
VERTEX
  8
SMTOP
 10
0.02600000000000001
 20
  0
  0
SEQEND
  8
SMTOP
  0
POLYLINE
  8
SMBOT
 66
1
 70
0
 40
0.05200000000000001
 41
0.05200000000000001
  0
VERTEX
  8
SMBOT
 10
-0.02600000000000001
 20
  0
  0
VERTEX
  8
SMBOT
 10
0.02600000000000001
 20
  0
  0
SEQEND
  8
SMBOT
  0
POLYLINE
  8
ASYTOP
 66
1
 70
0
 40
0.05200000000000001
 41
0.05200000000000001
  0
VERTEX
  8
ASYTOP
 10
-0.02600000000000001
 20
  0
  0
VERTEX
  8
ASYTOP
 10
0.02600000000000001
 20
  0
  0
SEQEND
  8
ASYTOP
  0
POLYLINE
  8
ASYBOT
 66
1
 70
0
 40
0.05200000000000001
 41
0.05200000000000001
  0
VERTEX
  8
ASYBOT
 10
-0.02600000000000001
 20
  0
  0
VERTEX
  8
ASYBOT
 10
0.02600000000000001
 20
  0
  0
SEQEND
  8
ASYBOT
  0
POLYLINE
  8
DRLDWG
 66
1
 70
1
 40
0.0155
 41
0.0155
  0
VERTEX
  8
DRLDWG
 10
-0.007750000000000002
 20
  0
 42
  1
  0
VERTEX
  8
DRLDWG
 10
0.007750000000000002
 20
  0
 42
  1
  0
SEQEND
  8
DRLDWG
  0
POLYLINE
  8
DRILL
 66
1
 70
1
 40
0.0155
 41
0.0155
  0
VERTEX
  8
DRILL
 10
-0.007750000000000002
 20
  0
 42
  1
  0
VERTEX
  8
DRILL
 10
0.007750000000000002
 20
  0
 42
  1
  0
SEQEND
  8
DRILL
  0
ENDBLK
  0
BLOCK
  8
0
  2
padstack_TM_CYLND_llb_pad4
 10
0.0
 20
0.0
 30
0.0
 70
2
  0
POINT
  8
0
 10
  0
 20
  0
  0
POLYLINE
  8
TOP
 66
1
 70
1
 40
0.02600000000000001
 41
0.02600000000000001
  0
VERTEX
  8
TOP
 10
-0.013
 20
  0
 42
  1
  0
VERTEX
  8
TOP
 10
0.013
 20
  0
 42
  1
  0
SEQEND
  8
TOP
  0
POLYLINE
  8
BOTTOM
 66
1
 70
1
 40
0.02600000000000001
 41
0.02600000000000001
  0
VERTEX
  8
BOTTOM
 10
-0.013
 20
  0
 42
  1
  0
VERTEX
  8
BOTTOM
 10
0.013
 20
  0
 42
  1
  0
SEQEND
  8
BOTTOM
  0
POLYLINE
  8
GND
 66
1
 70
1
 40
0.03600000000000001
 41
0.03600000000000001
  0
VERTEX
  8
GND
 10
-0.01800000000000001
 20
  0
 42
  1
  0
VERTEX
  8
GND
 10
0.01800000000000001
 20
  0
 42
  1
  0
SEQEND
  8
GND
  0
POLYLINE
  8
POWER
 66
1
 70
1
 40
0.03600000000000001
 41
0.03600000000000001
  0
VERTEX
  8
POWER
 10
-0.01800000000000001
 20
  0
 42
  1
  0
VERTEX
  8
POWER
 10
0.01800000000000001
 20
  0
 42
  1
  0
SEQEND
  8
POWER
  0
POLYLINE
  8
INNER1
 66
1
 70
1
 40
0.02600000000000001
 41
0.02600000000000001
  0
VERTEX
  8
INNER1
 10
-0.013
 20
  0
 42
  1
  0
VERTEX
  8
INNER1
 10
0.013
 20
  0
 42
  1
  0
SEQEND
  8
INNER1
  0
POLYLINE
  8
INNER2
 66
1
 70
1
 40
0.02600000000000001
 41
0.02600000000000001
  0
VERTEX
  8
INNER2
 10
-0.013
 20
  0
 42
  1
  0
VERTEX
  8
INNER2
 10
0.013
 20
  0
 42
  1
  0
SEQEND
  8
INNER2
  0
POLYLINE
  8
INNER3
 66
1
 70
1
 40
0.02600000000000001
 41
0.02600000000000001
  0
VERTEX
  8
INNER3
 10
-0.013
 20
  0
 42
  1
  0
VERTEX
  8
INNER3
 10
0.013
 20
  0
 42
  1
  0
SEQEND
  8
INNER3
  0
POLYLINE
  8
INNER4
 66
1
 70
1
 40
0.02600000000000001
 41
0.02600000000000001
  0
VERTEX
  8
INNER4
 10
-0.013
 20
  0
 42
  1
  0
VERTEX
  8
INNER4
 10
0.013
 20
  0
 42
  1
  0
SEQEND
  8
INNER4
  0
POLYLINE
  8
INNER5
 66
1
 70
1
 40
0.02600000000000001
 41
0.02600000000000001
  0
VERTEX
  8
INNER5
 10
-0.013
 20
  0
 42
  1
  0
VERTEX
  8
INNER5
 10
0.013
 20
  0
 42
  1
  0
SEQEND
  8
INNER5
  0
POLYLINE
  8
INNER6
 66
1
 70
1
 40
0.02600000000000001
 41
0.02600000000000001
  0
VERTEX
  8
INNER6
 10
-0.013
 20
  0
 42
  1
  0
VERTEX
  8
INNER6
 10
0.013
 20
  0
 42
  1
  0
SEQEND
  8
INNER6
  0
POLYLINE
  8
INNER7
 66
1
 70
1
 40
0.02600000000000001
 41
0.02600000000000001
  0
VERTEX
  8
INNER7
 10
-0.013
 20
  0
 42
  1
  0
VERTEX
  8
INNER7
 10
0.013
 20
  0
 42
  1
  0
SEQEND
  8
INNER7
  0
POLYLINE
  8
INNER8
 66
1
 70
1
 40
0.02600000000000001
 41
0.02600000000000001
  0
VERTEX
  8
INNER8
 10
-0.013
 20
  0
 42
  1
  0
VERTEX
  8
INNER8
 10
0.013
 20
  0
 42
  1
  0
SEQEND
  8
INNER8
  0
POLYLINE
  8
INNER9
 66
1
 70
1
 40
0.02600000000000001
 41
0.02600000000000001
  0
VERTEX
  8
INNER9
 10
-0.013
 20
  0
 42
  1
  0
VERTEX
  8
INNER9
 10
0.013
 20
  0
 42
  1
  0
SEQEND
  8
INNER9
  0
POLYLINE
  8
INNER10
 66
1
 70
1
 40
0.02600000000000001
 41
0.02600000000000001
  0
VERTEX
  8
INNER10
 10
-0.013
 20
  0
 42
  1
  0
VERTEX
  8
INNER10
 10
0.013
 20
  0
 42
  1
  0
SEQEND
  8
INNER10
  0
POLYLINE
  8
INNER11
 66
1
 70
1
 40
0.02600000000000001
 41
0.02600000000000001
  0
VERTEX
  8
INNER11
 10
-0.013
 20
  0
 42
  1
  0
VERTEX
  8
INNER11
 10
0.013
 20
  0
 42
  1
  0
SEQEND
  8
INNER11
  0
POLYLINE
  8
INNER12
 66
1
 70
1
 40
0.02600000000000001
 41
0.02600000000000001
  0
VERTEX
  8
INNER12
 10
-0.013
 20
  0
 42
  1
  0
VERTEX
  8
INNER12
 10
0.013
 20
  0
 42
  1
  0
SEQEND
  8
INNER12
  0
POLYLINE
  8
SMTOP
 66
1
 70
1
 40
0.02600000000000001
 41
0.02600000000000001
  0
VERTEX
  8
SMTOP
 10
-0.013
 20
  0
 42
  1
  0
VERTEX
  8
SMTOP
 10
0.013
 20
  0
 42
  1
  0
SEQEND
  8
SMTOP
  0
POLYLINE
  8
SMBOT
 66
1
 70
1
 40
0.02600000000000001
 41
0.02600000000000001
  0
VERTEX
  8
SMBOT
 10
-0.013
 20
  0
 42
  1
  0
VERTEX
  8
SMBOT
 10
0.013
 20
  0
 42
  1
  0
SEQEND
  8
SMBOT
  0
POLYLINE
  8
ASYTOP
 66
1
 70
1
 40
0.02600000000000001
 41
0.02600000000000001
  0
VERTEX
  8
ASYTOP
 10
-0.013
 20
  0
 42
  1
  0
VERTEX
  8
ASYTOP
 10
0.013
 20
  0
 42
  1
  0
SEQEND
  8
ASYTOP
  0
POLYLINE
  8
ASYBOT
 66
1
 70
1
 40
0.02600000000000001
 41
0.02600000000000001
  0
VERTEX
  8
ASYBOT
 10
-0.013
 20
  0
 42
  1
  0
VERTEX
  8
ASYBOT
 10
0.013
 20
  0
 42
  1
  0
SEQEND
  8
ASYBOT
  0
POLYLINE
  8
DRLDWG
 66
1
 70
1
 40
0.0155
 41
0.0155
  0
VERTEX
  8
DRLDWG
 10
-0.007750000000000002
 20
  0
 42
  1
  0
VERTEX
  8
DRLDWG
 10
0.007750000000000002
 20
  0
 42
  1
  0
SEQEND
  8
DRLDWG
  0
POLYLINE
  8
DRILL
 66
1
 70
1
 40
0.0155
 41
0.0155
  0
VERTEX
  8
DRILL
 10
-0.007750000000000002
 20
  0
 42
  1
  0
VERTEX
  8
DRILL
 10
0.007750000000000002
 20
  0
 42
  1
  0
SEQEND
  8
DRILL
  0
ENDBLK
  0
BLOCK
  8
0
  2
footprint_VIA1
 10
0.0
 20
0.0
 30
0.0
 70
2
  0
INSERT
  8
PADSTACKS
  2
viastack_VIA1
 10
  0
 20
  0
 30
  0
 50
  0
 41
  1
 42
  1
 43
  1
  0
ENDBLK
  0
BLOCK
  8
0
  2
footprint_VIA2
 10
0.0
 20
0.0
 30
0.0
 70
2
  0
INSERT
  8
PADSTACKS
  2
viastack_VIA2
 10
  0
 20
  0
 30
  0
 50
  0
 41
  1
 42
  1
 43
  1
  0
ENDBLK
  0
BLOCK
  8
0
  2
footprint_VIA3
 10
0.0
 20
0.0
 30
0.0
 70
2
  0
INSERT
  8
PADSTACKS
  2
viastack_VIA3
 10
  0
 20
  0
 30
  0
 50
  0
 41
  1
 42
  1
 43
  1
  0
ENDBLK
  0
BLOCK
  8
0
  2
footprint_VIA4
 10
0.0
 20
0.0
 30
0.0
 70
2
  0
INSERT
  8
PADSTACKS
  2
viastack_VIA4
 10
  0
 20
  0
 30
  0
 50
  0
 41
  1
 42
  1
 43
  1
  0
ENDBLK
  0
BLOCK
  8
0
  2
footprint_VIA5
 10
0.0
 20
0.0
 30
0.0
 70
2
  0
INSERT
  8
PADSTACKS
  2
viastack_VIA5
 10
  0
 20
  0
 30
  0
 50
  0
 41
  1
 42
  1
 43
  1
  0
ENDBLK
  0
BLOCK
  8
0
  2
footprint_VIA6
 10
0.0
 20
0.0
 30
0.0
 70
2
  0
INSERT
  8
PADSTACKS
  2
viastack_VIA6
 10
  0
 20
  0
 30
  0
 50
  0
 41
  1
 42
  1
 43
  1
  0
ENDBLK
  0
BLOCK
  8
0
  2
footprint_VIA7
 10
0.0
 20
0.0
 30
0.0
 70
2
  0
INSERT
  8
PADSTACKS
  2
viastack_VIA7
 10
  0
 20
  0
 30
  0
 50
  0
 41
  1
 42
  1
 43
  1
  0
ENDBLK
  0
BLOCK
  8
0
  2
footprint_VIA8
 10
0.0
 20
0.0
 30
0.0
 70
2
  0
INSERT
  8
PADSTACKS
  2
viastack_VIA8
 10
  0
 20
  0
 30
  0
 50
  0
 41
  1
 42
  1
 43
  1
  0
ENDBLK
  0
BLOCK
  8
0
  2
footprint_VIA9
 10
0.0
 20
0.0
 30
0.0
 70
2
  0
INSERT
  8
PADSTACKS
  2
viastack_VIA9
 10
  0
 20
  0
 30
  0
 50
  0
 41
  1
 42
  1
 43
  1
  0
ENDBLK
  0
BLOCK
  8
0
  2
footprint_VIA10
 10
0.0
 20
0.0
 30
0.0
 70
2
  0
INSERT
  8
PADSTACKS
  2
viastack_VIA10
 10
  0
 20
  0
 30
  0
 50
  0
 41
  1
 42
  1
 43
  1
  0
ENDBLK
  0
BLOCK
  8
0
  2
footprint_VIA11
 10
0.0
 20
0.0
 30
0.0
 70
2
  0
INSERT
  8
PADSTACKS
  2
viastack_VIA11
 10
  0
 20
  0
 30
  0
 50
  0
 41
  1
 42
  1
 43
  1
  0
ENDBLK
  0
BLOCK
  8
0
  2
footprint_VIA12
 10
0.0
 20
0.0
 30
0.0
 70
2
  0
INSERT
  8
PADSTACKS
  2
viastack_VIA12
 10
  0
 20
  0
 30
  0
 50
  0
 41
  1
 42
  1
 43
  1
  0
ENDBLK
  0
BLOCK
  8
0
  2
footprint_VIA13
 10
0.0
 20
0.0
 30
0.0
 70
2
  0
INSERT
  8
PADSTACKS
  2
viastack_VIA13
 10
  0
 20
  0
 30
  0
 50
  0
 41
  1
 42
  1
 43
  1
  0
ENDBLK
  0
BLOCK
  8
0
  2
footprint_VIA14
 10
0.0
 20
0.0
 30
0.0
 70
2
  0
INSERT
  8
PADSTACKS
  2
viastack_VIA14
 10
  0
 20
  0
 30
  0
 50
  0
 41
  1
 42
  1
 43
  1
  0
ENDBLK
  0
BLOCK
  8
0
  2
footprint_VIA15
 10
0.0
 20
0.0
 30
0.0
 70
2
  0
INSERT
  8
PADSTACKS
  2
viastack_VIA15
 10
  0
 20
  0
 30
  0
 50
  0
 41
  1
 42
  1
 43
  1
  0
ENDBLK
  0
BLOCK
  8
0
  2
footprint_VIA16
 10
0.0
 20
0.0
 30
0.0
 70
2
  0
INSERT
  8
PADSTACKS
  2
viastack_VIA16
 10
  0
 20
  0
 30
  0
 50
  0
 41
  1
 42
  1
 43
  1
  0
ENDBLK
  0
BLOCK
  8
0
  2
footprint_BLKCON_156_RH_TM1SQS_
 10
0.0
 20
0.0
 30
0.0
 70
2
  0
POLYLINE
  8
OBS_SSTOP
 66
1
 70
0
 40
0.008000000000000002
 41
0.008000000000000002
  0
VERTEX
  8
OBS_SSTOP
 10
0.9360000000000003
 20
0.07800000000000001
  0
VERTEX
  8
OBS_SSTOP
 10
0.9360000000000003
 20
0.5460000000000002
  0
SEQEND
  8
OBS_SSTOP
  0
POLYLINE
  8
OBS_ASYTOP
 66
1
 70
0
 40
0.008000000000000002
 41
0.008000000000000002
  0
VERTEX
  8
OBS_ASYTOP
 10
0.9360000000000003
 20
0.07800000000000001
  0
VERTEX
  8
OBS_ASYTOP
 10
0.9360000000000003
 20
0.5460000000000002
  0
SEQEND
  8
OBS_ASYTOP
  0
POLYLINE
  8
OBS_SSTOP
 66
1
 70
0
 40
0.008000000000000002
 41
0.008000000000000002
  0
VERTEX
  8
OBS_SSTOP
 10
0.6240000000000001
 20
0.5460000000000002
  0
VERTEX
  8
OBS_SSTOP
 10
0.6240000000000001
 20
0.07800000000000001
  0
SEQEND
  8
OBS_SSTOP
  0
POLYLINE
  8
OBS_ASYTOP
 66
1
 70
0
 40
0.008000000000000002
 41
0.008000000000000002
  0
VERTEX
  8
OBS_ASYTOP
 10
0.6240000000000001
 20
0.5460000000000002
  0
VERTEX
  8
OBS_ASYTOP
 10
0.6240000000000001
 20
0.07800000000000001
  0
SEQEND
  8
OBS_ASYTOP
  0
POLYLINE
  8
OBS_SSTOP
 66
1
 70
0
 40
0.008000000000000002
 41
0.008000000000000002
  0
VERTEX
  8
OBS_SSTOP
 10
0.3120000000000001
 20
0.07800000000000001
  0
VERTEX
  8
OBS_SSTOP
 10
0.3120000000000001
 20
0.5460000000000002
  0
SEQEND
  8
OBS_SSTOP
  0
POLYLINE
  8
OBS_ASYTOP
 66
1
 70
0
 40
0.008000000000000002
 41
0.008000000000000002
  0
VERTEX
  8
OBS_ASYTOP
 10
0.3120000000000001
 20
0.07800000000000001
  0
VERTEX
  8
OBS_ASYTOP
 10
0.3120000000000001
 20
0.5460000000000002
  0
SEQEND
  8
OBS_ASYTOP
  0
POLYLINE
  8
OBS_SSTOP
 66
1
 70
0
 40
0.008000000000000002
 41
0.008000000000000002
  0
VERTEX
  8
OBS_SSTOP
 10
  0
 20
0.5460000000000002
  0
VERTEX
  8
OBS_SSTOP
 10
  0
 20
0.07800000000000001
  0
SEQEND
  8
OBS_SSTOP
  0
POLYLINE
  8
OBS_ASYTOP
 66
1
 70
0
 40
0.008000000000000002
 41
0.008000000000000002
  0
VERTEX
  8
OBS_ASYTOP
 10
  0
 20
0.5460000000000002
  0
VERTEX
  8
OBS_ASYTOP
 10
  0
 20
0.07800000000000001
  0
SEQEND
  8
OBS_ASYTOP
  0
POLYLINE
  8
OBS_SSTOP
 66
1
 70
0
 40
0.008000000000000002
 41
0.008000000000000002
  0
VERTEX
  8
OBS_SSTOP
 10
1.95
 20
0.07800000000000001
  0
VERTEX
  8
OBS_SSTOP
 10
-0.08580000000000002
 20
0.07800000000000001
  0
VERTEX
  8
OBS_SSTOP
 10
-0.08580000000000002
 20
-0.07800000000000001
  0
VERTEX
  8
OBS_SSTOP
 10
  0
 20
-0.07800000000000001
  0
VERTEX
  8
OBS_SSTOP
 10
0.3120000000000001
 20
-0.07800000000000001
  0
VERTEX
  8
OBS_SSTOP
 10
0.6240000000000001
 20
-0.07800000000000001
  0
VERTEX
  8
OBS_SSTOP
 10
0.9360000000000003
 20
-0.07800000000000001
  0
VERTEX
  8
OBS_SSTOP
 10
1.248
 20
-0.07800000000000001
  0
VERTEX
  8
OBS_SSTOP
 10
1.560000000000001
 20
-0.07800000000000001
  0
VERTEX
  8
OBS_SSTOP
 10
1.872000000000001
 20
-0.07800000000000001
  0
VERTEX
  8
OBS_SSTOP
 10
1.872000000000001
 20
-0.07800000000000001
  0
VERTEX
  8
OBS_SSTOP
 10
1.95
 20
-0.07800000000000001
  0
VERTEX
  8
OBS_SSTOP
 10
1.9578
 20
-0.07800000000000001
  0
VERTEX
  8
OBS_SSTOP
 10
1.9578
 20
0.07800000000000001
  0
VERTEX
  8
OBS_SSTOP
 10
1.95
 20
0.07800000000000001
  0
SEQEND
  8
OBS_SSTOP
  0
POLYLINE
  8
OBS_ASYTOP
 66
1
 70
0
 40
0.008000000000000002
 41
0.008000000000000002
  0
VERTEX
  8
OBS_ASYTOP
 10
1.95
 20
0.07800000000000001
  0
VERTEX
  8
OBS_ASYTOP
 10
-0.08580000000000002
 20
0.07800000000000001
  0
VERTEX
  8
OBS_ASYTOP
 10
-0.08580000000000002
 20
-0.07800000000000001
  0
VERTEX
  8
OBS_ASYTOP
 10
  0
 20
-0.07800000000000001
  0
VERTEX
  8
OBS_ASYTOP
 10
0.3120000000000001
 20
-0.07800000000000001
  0
VERTEX
  8
OBS_ASYTOP
 10
0.6240000000000001
 20
-0.07800000000000001
  0
VERTEX
  8
OBS_ASYTOP
 10
0.9360000000000003
 20
-0.07800000000000001
  0
VERTEX
  8
OBS_ASYTOP
 10
1.248
 20
-0.07800000000000001
  0
VERTEX
  8
OBS_ASYTOP
 10
1.560000000000001
 20
-0.07800000000000001
  0
VERTEX
  8
OBS_ASYTOP
 10
1.872000000000001
 20
-0.07800000000000001
  0
VERTEX
  8
OBS_ASYTOP
 10
1.872000000000001
 20
-0.07800000000000001
  0
VERTEX
  8
OBS_ASYTOP
 10
1.95
 20
-0.07800000000000001
  0
VERTEX
  8
OBS_ASYTOP
 10
1.9578
 20
-0.07800000000000001
  0
VERTEX
  8
OBS_ASYTOP
 10
1.9578
 20
0.07800000000000001
  0
VERTEX
  8
OBS_ASYTOP
 10
1.95
 20
0.07800000000000001
  0
SEQEND
  8
OBS_ASYTOP
  0
POLYLINE
  8
OBS_GLOBAL_LAYER
 66
1
 39
0.001
 70
1
 40
8.333333333333335e-006
 41
8.333333333333335e-006
  0
VERTEX
  8
OBS_GLOBAL_LAYER
 10
-0.08980000000000002
 20
-0.08200000000000002
  0
VERTEX
  8
OBS_GLOBAL_LAYER
 10
1.9618
 20
-0.08200000000000002
  0
VERTEX
  8
OBS_GLOBAL_LAYER
 10
1.9618
 20
0.5500000000000002
  0
VERTEX
  8
OBS_GLOBAL_LAYER
 10
-0.08980000000000002
 20
0.5500000000000002
  0
VERTEX
  8
OBS_GLOBAL_LAYER
 10
-0.08980000000000002
 20
-0.08200000000000002
  0
SEQEND
  8
OBS_GLOBAL_LAYER
  0
POLYLINE
  8
OBS_SSTOP
 66
1
 70
0
 40
0.008000000000000002
 41
0.008000000000000002
  0
VERTEX
  8
OBS_SSTOP
 10
1.872000000000001
 20
0.5460000000000002
  0
VERTEX
  8
OBS_SSTOP
 10
1.872000000000001
 20
0.07800000000000001
  0
SEQEND
  8
OBS_SSTOP
  0
POLYLINE
  8
OBS_ASYTOP
 66
1
 70
0
 40
0.008000000000000002
 41
0.008000000000000002
  0
VERTEX
  8
OBS_ASYTOP
 10
1.872000000000001
 20
0.5460000000000002
  0
VERTEX
  8
OBS_ASYTOP
 10
1.872000000000001
 20
0.07800000000000001
  0
SEQEND
  8
OBS_ASYTOP
  0
POLYLINE
  8
OBS_SSTOP
 66
1
 70
0
 40
0.008000000000000002
 41
0.008000000000000002
  0
VERTEX
  8
OBS_SSTOP
 10
1.560000000000001
 20
0.07800000000000001
  0
VERTEX
  8
OBS_SSTOP
 10
1.560000000000001
 20
0.5460000000000002
  0
SEQEND
  8
OBS_SSTOP
  0
POLYLINE
  8
OBS_ASYTOP
 66
1
 70
0
 40
0.008000000000000002
 41
0.008000000000000002
  0
VERTEX
  8
OBS_ASYTOP
 10
1.560000000000001
 20
0.07800000000000001
  0
VERTEX
  8
OBS_ASYTOP
 10
1.560000000000001
 20
0.5460000000000002
  0
SEQEND
  8
OBS_ASYTOP
  0
POLYLINE
  8
OBS_SSTOP
 66
1
 70
0
 40
0.008000000000000002
 41
0.008000000000000002
  0
VERTEX
  8
OBS_SSTOP
 10
1.248
 20
0.5460000000000002
  0
VERTEX
  8
OBS_SSTOP
 10
1.248
 20
0.07800000000000001
  0
SEQEND
  8
OBS_SSTOP
  0
POLYLINE
  8
OBS_ASYTOP
 66
1
 70
0
 40
0.008000000000000002
 41
0.008000000000000002
  0
VERTEX
  8
OBS_ASYTOP
 10
1.248
 20
0.5460000000000002
  0
VERTEX
  8
OBS_ASYTOP
 10
1.248
 20
0.07800000000000001
  0
SEQEND
  8
OBS_ASYTOP
  0
INSERT
  8
PADSTACKS
  2
padstack_BCON156T_llb_pad1
 10
  0
 20
  0
 30
  0
 50
  0
 41
  1
 42
  1
 43
  1
  0
INSERT
  8
PADSTACKS
  2
padstack_BCON156T_llb_pad2
 10
0.156
 20
  0
 30
  0
 50
  0
 41
  1
 42
  1
 43
  1
  0
INSERT
  8
PADSTACKS
  2
padstack_BCON156T_llb_pad2
 10
0.3120000000000001
 20
  0
 30
  0
 50
  0
 41
  1
 42
  1
 43
  1
  0
INSERT
  8
PADSTACKS
  2
padstack_BCON156T_llb_pad2
 10
0.4680000000000001
 20
  0
 30
  0
 50
  0
 41
  1
 42
  1
 43
  1
  0
INSERT
  8
PADSTACKS
  2
padstack_BCON156T_llb_pad2
 10
0.6240000000000001
 20
  0
 30
  0
 50
  0
 41
  1
 42
  1
 43
  1
  0
INSERT
  8
PADSTACKS
  2
padstack_BCON156T_llb_pad2
 10
0.7800000000000003
 20
  0
 30
  0
 50
  0
 41
  1
 42
  1
 43
  1
  0
INSERT
  8
PADSTACKS
  2
padstack_BCON156T_llb_pad2
 10
0.9360000000000003
 20
  0
 30
  0
 50
  0
 41
  1
 42
  1
 43
  1
  0
INSERT
  8
PADSTACKS
  2
padstack_BCON156T_llb_pad2
 10
1.092
 20
  0
 30
  0
 50
  0
 41
  1
 42
  1
 43
  1
  0
INSERT
  8
PADSTACKS
  2
padstack_BCON156T_llb_pad2
 10
1.248
 20
  0
 30
  0
 50
  0
 41
  1
 42
  1
 43
  1
  0
INSERT
  8
PADSTACKS
  2
padstack_BCON156T_llb_pad1
 10
1.404
 20
  0
 30
  0
 50
  0
 41
  1
 42
  1
 43
  1
  0
INSERT
  8
PADSTACKS
  2
padstack_BCON156T_llb_pad2
 10
1.560000000000001
 20
  0
 30
  0
 50
  0
 41
  1
 42
  1
 43
  1
  0
INSERT
  8
PADSTACKS
  2
padstack_BCON156T_llb_pad2
 10
1.716
 20
  0
 30
  0
 50
  0
 41
  1
 42
  1
 43
  1
  0
INSERT
  8
PADSTACKS
  2
padstack_BCON156T_llb_pad2
 10
1.872000000000001
 20
  0
 30
  0
 50
  0
 41
  1
 42
  1
 43
  1
  0
TEXT
  8
SSTOP
 72
0
 10
2.000216666666667
 20
-0.03063333333333334
 30
  0
 40
0.03750000000000001
 50
  0
  1
13
  0
TEXT
  8
ASYTOP
 72
0
 10
2.000216666666667
 20
-0.03063333333333334
 30
  0
 40
0.03750000000000001
 50
  0
  1
13
  0
TEXT
  8
SSTOP
 72
0
 10
-0.1308833333333334
 20
-0.03063333333333334
 30
  0
 40
0.03750000000000001
 50
  0
  1
1
  0
TEXT
  8
ASYTOP
 72
0
 10
-0.1308833333333334
 20
-0.03063333333333334
 30
  0
 40
0.03750000000000001
 50
  0
  1
1
  0
ATTDEF
  8
ASYTOP
 70
0
 72
0
  1
BLKCON.156/RH/TM1SQS/W.545/13
  2
SYM_NAME
  3

 10
-27.88395000000001
 20
-28.10075000000001
 30
  0
 40
0.02250000000000001
 50
  0
  0
ENDBLK
  0
BLOCK
  8
0
  2
footprint_BLKCON_156_RH_TM1SQ_2
 10
0.0
 20
0.0
 30
0.0
 70
2
  0
INSERT
  8
PADSTACKS
  2
padstack_BCON156T_llb_pad1
 10
  0
 20
  0
 30
  0
 50
  0
 41
  1
 42
  1
 43
  1
  0
INSERT
  8
PADSTACKS
  2
padstack_BCON156T_llb_pad2
 10
0.156
 20
  0
 30
  0
 50
  0
 41
  1
 42
  1
 43
  1
  0
INSERT
  8
PADSTACKS
  2
padstack_BCON156T_llb_pad2
 10
0.3120000000000001
 20
  0
 30
  0
 50
  0
 41
  1
 42
  1
 43
  1
  0
INSERT
  8
PADSTACKS
  2
padstack_BCON156T_llb_pad2
 10
0.4680000000000001
 20
  0
 30
  0
 50
  0
 41
  1
 42
  1
 43
  1
  0
INSERT
  8
PADSTACKS
  2
padstack_BCON156T_llb_pad2
 10
0.6240000000000001
 20
  0
 30
  0
 50
  0
 41
  1
 42
  1
 43
  1
  0
INSERT
  8
PADSTACKS
  2
padstack_BCON156T_llb_pad2
 10
0.7800000000000003
 20
  0
 30
  0
 50
  0
 41
  1
 42
  1
 43
  1
  0
INSERT
  8
PADSTACKS
  2
padstack_BCON156T_llb_pad2
 10
0.9360000000000003
 20
  0
 30
  0
 50
  0
 41
  1
 42
  1
 43
  1
  0
INSERT
  8
PADSTACKS
  2
padstack_BCON156T_llb_pad2
 10
1.092
 20
  0
 30
  0
 50
  0
 41
  1
 42
  1
 43
  1
  0
INSERT
  8
PADSTACKS
  2
padstack_BCON156T_llb_pad2
 10
1.248
 20
  0
 30
  0
 50
  0
 41
  1
 42
  1
 43
  1
  0
INSERT
  8
PADSTACKS
  2
padstack_BCON156T_llb_pad1
 10
1.404
 20
  0
 30
  0
 50
  0
 41
  1
 42
  1
 43
  1
  0
INSERT
  8
PADSTACKS
  2
padstack_BCON156T_llb_pad2
 10
1.560000000000001
 20
  0
 30
  0
 50
  0
 41
  1
 42
  1
 43
  1
  0
INSERT
  8
PADSTACKS
  2
padstack_BCON156T_llb_pad2
 10
1.716
 20
  0
 30
  0
 50
  0
 41
  1
 42
  1
 43
  1
  0
INSERT
  8
PADSTACKS
  2
padstack_BCON156T_llb_pad2
 10
1.872000000000001
 20
  0
 30
  0
 50
  0
 41
  1
 42
  1
 43
  1
  0
ENDBLK
  0
BLOCK
  8
0
  2
footprint_BGA10M_1_27_64_B_76_W
 10
0.0
 20
0.0
 30
0.0
 70
2
  0
POLYLINE
  8
OBS_TOP
 66
1
 39
0.001
 70
1
 40
8.333333333333335e-006
 41
8.333333333333335e-006
  0
VERTEX
  8
OBS_TOP
 10
-0.05900000000000002
 20
-0.05900000000000002
  0
VERTEX
  8
OBS_TOP
 10
0.4840000000000001
 20
-0.05900000000000002
  0
VERTEX
  8
OBS_TOP
 10
0.4840000000000001
 20
0.4840000000000001
  0
VERTEX
  8
OBS_TOP
 10
-0.05900000000000002
 20
0.4840000000000001
  0
VERTEX
  8
OBS_TOP
 10
-0.05900000000000002
 20
-0.05900000000000002
  0
SEQEND
  8
OBS_TOP
  0
POLYLINE
  8
OBS_SSTOP
 66
1
 70
0
 40
0.008000000000000002
 41
0.008000000000000002
  0
VERTEX
  8
OBS_SSTOP
 10
-0.03000000000000001
 20
0.4800000000000001
  0
VERTEX
  8
OBS_SSTOP
 10
-0.03000000000000001
 20
-0.05500000000000001
  0
VERTEX
  8
OBS_SSTOP
 10
-0.05500000000000001
 20
-0.05500000000000001
  0
VERTEX
  8
OBS_SSTOP
 10
-0.05500000000000001
 20
-0.03000000000000001
  0
VERTEX
  8
OBS_SSTOP
 10
0.4800000000000001
 20
-0.03000000000000001
  0
VERTEX
  8
OBS_SSTOP
 10
0.4800000000000001
 20
0.4800000000000001
  0
VERTEX
  8
OBS_SSTOP
 10
-0.03000000000000001
 20
0.4800000000000001
  0
SEQEND
  8
OBS_SSTOP
  0
POLYLINE
  8
OBS_ASYTOP
 66
1
 70
0
 40
0.008000000000000002
 41
0.008000000000000002
  0
VERTEX
  8
OBS_ASYTOP
 10
-0.03000000000000001
 20
0.4800000000000001
  0
VERTEX
  8
OBS_ASYTOP
 10
-0.03000000000000001
 20
-0.05500000000000001
  0
VERTEX
  8
OBS_ASYTOP
 10
-0.05500000000000001
 20
-0.05500000000000001
  0
VERTEX
  8
OBS_ASYTOP
 10
-0.05500000000000001
 20
-0.03000000000000001
  0
VERTEX
  8
OBS_ASYTOP
 10
0.4800000000000001
 20
-0.03000000000000001
  0
VERTEX
  8
OBS_ASYTOP
 10
0.4800000000000001
 20
0.4800000000000001
  0
VERTEX
  8
OBS_ASYTOP
 10
-0.03000000000000001
 20
0.4800000000000001
  0
SEQEND
  8
OBS_ASYTOP
  0
INSERT
  8
PADSTACKS
  2
padstack_BGA_llb_pad1_1
 10
  0
 20
  0
 30
  0
 50
 90
 41
  1
 42
  1
 43
  1
  0
INSERT
  8
PADSTACKS
  2
padstack_BGA_llb_pad2_1
 10
  0
 20
0.05000000000000001
 30
  0
 50
  0
 41
  1
 42
  1
 43
  1
  0
INSERT
  8
PADSTACKS
  2
padstack_BGA_llb_pad2_1
 10
  0
 20
0.1
 30
  0
 50
  0
 41
  1
 42
  1
 43
  1
  0
INSERT
  8
PADSTACKS
  2
padstack_BGA_llb_pad2_1
 10
  0
 20
0.1500000000000001
 30
  0
 50
  0
 41
  1
 42
  1
 43
  1
  0
INSERT
  8
PADSTACKS
  2
padstack_BGA_llb_pad2_1
 10
  0
 20
0.2
 30
  0
 50
  0
 41
  1
 42
  1
 43
  1
  0
INSERT
  8
PADSTACKS
  2
padstack_BGA_llb_pad2_1
 10
  0
 20
0.2500000000000001
 30
  0
 50
  0
 41
  1
 42
  1
 43
  1
  0
INSERT
  8
PADSTACKS
  2
padstack_BGA_llb_pad2_1
 10
  0
 20
0.3000000000000001
 30
  0
 50
  0
 41
  1
 42
  1
 43
  1
  0
INSERT
  8
PADSTACKS
  2
padstack_BGA_llb_pad2_1
 10
  0
 20
0.3500000000000001
 30
  0
 50
  0
 41
  1
 42
  1
 43
  1
  0
INSERT
  8
PADSTACKS
  2
padstack_BGA_llb_pad2_1
 10
  0
 20
0.4000000000000001
 30
  0
 50
  0
 41
  1
 42
  1
 43
  1
  0
INSERT
  8
PADSTACKS
  2
padstack_BGA_llb_pad2_1
 10
  0
 20
0.4500000000000001
 30
  0
 50
  0
 41
  1
 42
  1
 43
  1
  0
INSERT
  8
PADSTACKS
  2
padstack_BGA_llb_pad2_1
 10
0.05000000000000001
 20
  0
 30
  0
 50
  0
 41
  1
 42
  1
 43
  1
  0
INSERT
  8
PADSTACKS
  2
padstack_BGA_llb_pad2_1
 10
0.05000000000000001
 20
0.05000000000000001
 30
  0
 50
  0
 41
  1
 42
  1
 43
  1
  0
INSERT
  8
PADSTACKS
  2
padstack_BGA_llb_pad2_1
 10
0.05000000000000001
 20
0.1
 30
  0
 50
  0
 41
  1
 42
  1
 43
  1
  0
INSERT
  8
PADSTACKS
  2
padstack_BGA_llb_pad2_1
 10
0.05000000000000001
 20
0.1500000000000001
 30
  0
 50
  0
 41
  1
 42
  1
 43
  1
  0
INSERT
  8
PADSTACKS
  2
padstack_BGA_llb_pad2_1
 10
0.05000000000000001
 20
0.2
 30
  0
 50
  0
 41
  1
 42
  1
 43
  1
  0
INSERT
  8
PADSTACKS
  2
padstack_BGA_llb_pad2_1
 10
0.05000000000000001
 20
0.2500000000000001
 30
  0
 50
  0
 41
  1
 42
  1
 43
  1
  0
INSERT
  8
PADSTACKS
  2
padstack_BGA_llb_pad2_1
 10
0.05000000000000001
 20
0.3000000000000001
 30
  0
 50
  0
 41
  1
 42
  1
 43
  1
  0
INSERT
  8
PADSTACKS
  2
padstack_BGA_llb_pad2_1
 10
0.05000000000000001
 20
0.3500000000000001
 30
  0
 50
  0
 41
  1
 42
  1
 43
  1
  0
INSERT
  8
PADSTACKS
  2
padstack_BGA_llb_pad2_1
 10
0.05000000000000001
 20
0.4000000000000001
 30
  0
 50
  0
 41
  1
 42
  1
 43
  1
  0
INSERT
  8
PADSTACKS
  2
padstack_BGA_llb_pad2_1
 10
0.05000000000000001
 20
0.4500000000000001
 30
  0
 50
  0
 41
  1
 42
  1
 43
  1
  0
INSERT
  8
PADSTACKS
  2
padstack_BGA_llb_pad2_1
 10
0.1
 20
  0
 30
  0
 50
  0
 41
  1
 42
  1
 43
  1
  0
INSERT
  8
PADSTACKS
  2
padstack_BGA_llb_pad2_1
 10
0.1
 20
0.05000000000000001
 30
  0
 50
  0
 41
  1
 42
  1
 43
  1
  0
INSERT
  8
PADSTACKS
  2
padstack_BGA_llb_pad2_1
 10
0.1
 20
0.4000000000000001
 30
  0
 50
  0
 41
  1
 42
  1
 43
  1
  0
INSERT
  8
PADSTACKS
  2
padstack_BGA_llb_pad2_1
 10
0.1
 20
0.4500000000000001
 30
  0
 50
  0
 41
  1
 42
  1
 43
  1
  0
INSERT
  8
PADSTACKS
  2
padstack_BGA_llb_pad2_1
 10
0.1500000000000001
 20
  0
 30
  0
 50
  0
 41
  1
 42
  1
 43
  1
  0
INSERT
  8
PADSTACKS
  2
padstack_BGA_llb_pad2_1
 10
0.1500000000000001
 20
0.05000000000000001
 30
  0
 50
  0
 41
  1
 42
  1
 43
  1
  0
INSERT
  8
PADSTACKS
  2
padstack_BGA_llb_pad2_1
 10
0.1500000000000001
 20
0.4000000000000001
 30
  0
 50
  0
 41
  1
 42
  1
 43
  1
  0
INSERT
  8
PADSTACKS
  2
padstack_BGA_llb_pad2_1
 10
0.1500000000000001
 20
0.4500000000000001
 30
  0
 50
  0
 41
  1
 42
  1
 43
  1
  0
INSERT
  8
PADSTACKS
  2
padstack_BGA_llb_pad2_1
 10
0.2
 20
  0
 30
  0
 50
  0
 41
  1
 42
  1
 43
  1
  0
INSERT
  8
PADSTACKS
  2
padstack_BGA_llb_pad2_1
 10
0.2
 20
0.05000000000000001
 30
  0
 50
  0
 41
  1
 42
  1
 43
  1
  0
INSERT
  8
PADSTACKS
  2
padstack_BGA_llb_pad2_1
 10
0.2
 20
0.4000000000000001
 30
  0
 50
  0
 41
  1
 42
  1
 43
  1
  0
INSERT
  8
PADSTACKS
  2
padstack_BGA_llb_pad2_1
 10
0.2
 20
0.4500000000000001
 30
  0
 50
  0
 41
  1
 42
  1
 43
  1
  0
INSERT
  8
PADSTACKS
  2
padstack_BGA_llb_pad2_1
 10
0.2500000000000001
 20
  0
 30
  0
 50
  0
 41
  1
 42
  1
 43
  1
  0
INSERT
  8
PADSTACKS
  2
padstack_BGA_llb_pad2_1
 10
0.2500000000000001
 20
0.05000000000000001
 30
  0
 50
  0
 41
  1
 42
  1
 43
  1
  0
INSERT
  8
PADSTACKS
  2
padstack_BGA_llb_pad2_1
 10
0.2500000000000001
 20
0.4000000000000001
 30
  0
 50
  0
 41
  1
 42
  1
 43
  1
  0
INSERT
  8
PADSTACKS
  2
padstack_BGA_llb_pad2_1
 10
0.2500000000000001
 20
0.4500000000000001
 30
  0
 50
  0
 41
  1
 42
  1
 43
  1
  0
INSERT
  8
PADSTACKS
  2
padstack_BGA_llb_pad2_1
 10
0.3000000000000001
 20
  0
 30
  0
 50
  0
 41
  1
 42
  1
 43
  1
  0
INSERT
  8
PADSTACKS
  2
padstack_BGA_llb_pad2_1
 10
0.3000000000000001
 20
0.05000000000000001
 30
  0
 50
  0
 41
  1
 42
  1
 43
  1
  0
INSERT
  8
PADSTACKS
  2
padstack_BGA_llb_pad2_1
 10
0.3000000000000001
 20
0.4000000000000001
 30
  0
 50
  0
 41
  1
 42
  1
 43
  1
  0
INSERT
  8
PADSTACKS
  2
padstack_BGA_llb_pad2_1
 10
0.3000000000000001
 20
0.4500000000000001
 30
  0
 50
  0
 41
  1
 42
  1
 43
  1
  0
INSERT
  8
PADSTACKS
  2
padstack_BGA_llb_pad2_1
 10
0.3500000000000001
 20
  0
 30
  0
 50
  0
 41
  1
 42
  1
 43
  1
  0
INSERT
  8
PADSTACKS
  2
padstack_BGA_llb_pad2_1
 10
0.3500000000000001
 20
0.05000000000000001
 30
  0
 50
  0
 41
  1
 42
  1
 43
  1
  0
INSERT
  8
PADSTACKS
  2
padstack_BGA_llb_pad2_1
 10
0.3500000000000001
 20
0.4000000000000001
 30
  0
 50
  0
 41
  1
 42
  1
 43
  1
  0
INSERT
  8
PADSTACKS
  2
padstack_BGA_llb_pad2_1
 10
0.3500000000000001
 20
0.4500000000000001
 30
  0
 50
  0
 41
  1
 42
  1
 43
  1
  0
INSERT
  8
PADSTACKS
  2
padstack_BGA_llb_pad2_1
 10
0.4000000000000001
 20
  0
 30
  0
 50
  0
 41
  1
 42
  1
 43
  1
  0
INSERT
  8
PADSTACKS
  2
padstack_BGA_llb_pad2_1
 10
0.4000000000000001
 20
0.05000000000000001
 30
  0
 50
  0
 41
  1
 42
  1
 43
  1
  0
INSERT
  8
PADSTACKS
  2
padstack_BGA_llb_pad2_1
 10
0.4000000000000001
 20
0.1
 30
  0
 50
  0
 41
  1
 42
  1
 43
  1
  0
INSERT
  8
PADSTACKS
  2
padstack_BGA_llb_pad2_1
 10
0.4000000000000001
 20
0.1500000000000001
 30
  0
 50
  0
 41
  1
 42
  1
 43
  1
  0
INSERT
  8
PADSTACKS
  2
padstack_BGA_llb_pad2_1
 10
0.4000000000000001
 20
0.2
 30
  0
 50
  0
 41
  1
 42
  1
 43
  1
  0
INSERT
  8
PADSTACKS
  2
padstack_BGA_llb_pad2_1
 10
0.4000000000000001
 20
0.2500000000000001
 30
  0
 50
  0
 41
  1
 42
  1
 43
  1
  0
INSERT
  8
PADSTACKS
  2
padstack_BGA_llb_pad2_1
 10
0.4000000000000001
 20
0.3000000000000001
 30
  0
 50
  0
 41
  1
 42
  1
 43
  1
  0
INSERT
  8
PADSTACKS
  2
padstack_BGA_llb_pad2_1
 10
0.4000000000000001
 20
0.3500000000000001
 30
  0
 50
  0
 41
  1
 42
  1
 43
  1
  0
INSERT
  8
PADSTACKS
  2
padstack_BGA_llb_pad2_1
 10
0.4000000000000001
 20
0.4000000000000001
 30
  0
 50
  0
 41
  1
 42
  1
 43
  1
  0
INSERT
  8
PADSTACKS
  2
padstack_BGA_llb_pad2_1
 10
0.4000000000000001
 20
0.4500000000000001
 30
  0
 50
  0
 41
  1
 42
  1
 43
  1
  0
INSERT
  8
PADSTACKS
  2
padstack_BGA_llb_pad2_1
 10
0.4500000000000001
 20
  0
 30
  0
 50
  0
 41
  1
 42
  1
 43
  1
  0
INSERT
  8
PADSTACKS
  2
padstack_BGA_llb_pad2_1
 10
0.4500000000000001
 20
0.05000000000000001
 30
  0
 50
  0
 41
  1
 42
  1
 43
  1
  0
INSERT
  8
PADSTACKS
  2
padstack_BGA_llb_pad2_1
 10
0.4500000000000001
 20
0.1
 30
  0
 50
  0
 41
  1
 42
  1
 43
  1
  0
INSERT
  8
PADSTACKS
  2
padstack_BGA_llb_pad2_1
 10
0.4500000000000001
 20
0.1500000000000001
 30
  0
 50
  0
 41
  1
 42
  1
 43
  1
  0
INSERT
  8
PADSTACKS
  2
padstack_BGA_llb_pad2_1
 10
0.4500000000000001
 20
0.2
 30
  0
 50
  0
 41
  1
 42
  1
 43
  1
  0
INSERT
  8
PADSTACKS
  2
padstack_BGA_llb_pad2_1
 10
0.4500000000000001
 20
0.2500000000000001
 30
  0
 50
  0
 41
  1
 42
  1
 43
  1
  0
INSERT
  8
PADSTACKS
  2
padstack_BGA_llb_pad2_1
 10
0.4500000000000001
 20
0.3000000000000001
 30
  0
 50
  0
 41
  1
 42
  1
 43
  1
  0
INSERT
  8
PADSTACKS
  2
padstack_BGA_llb_pad2_1
 10
0.4500000000000001
 20
0.3500000000000001
 30
  0
 50
  0
 41
  1
 42
  1
 43
  1
  0
INSERT
  8
PADSTACKS
  2
padstack_BGA_llb_pad2_1
 10
0.4500000000000001
 20
0.4000000000000001
 30
  0
 50
  0
 41
  1
 42
  1
 43
  1
  0
INSERT
  8
PADSTACKS
  2
padstack_BGA_llb_pad2_1
 10
0.4500000000000001
 20
0.4500000000000001
 30
  0
 50
  0
 41
  1
 42
  1
 43
  1
  0
ATTDEF
  8
ASYTOP
 70
0
 72
0
  1
BGA10M_1.27/64/B.76/W13.00
  2
SYM_NAME
  3

 10
-28.67185000000001
 20
-27.87243333333334
 30
  0
 40
0.02250000000000001
 50
  0
  0
ENDBLK
  0
BLOCK
  8
0
  2
footprint_BGA10M_1_27_64_B_76_2
 10
0.0
 20
0.0
 30
0.0
 70
2
  0
INSERT
  8
PADSTACKS
  2
padstack_BGA_llb_pad1_1
 10
  0
 20
  0
 30
  0
 50
 90
 41
  1
 42
  1
 43
  1
  0
INSERT
  8
PADSTACKS
  2
padstack_BGA_llb_pad2_1
 10
  0
 20
0.05000000000000001
 30
  0
 50
  0
 41
  1
 42
  1
 43
  1
  0
INSERT
  8
PADSTACKS
  2
padstack_BGA_llb_pad2_1
 10
  0
 20
0.1
 30
  0
 50
  0
 41
  1
 42
  1
 43
  1
  0
INSERT
  8
PADSTACKS
  2
padstack_BGA_llb_pad2_1
 10
  0
 20
0.1500000000000001
 30
  0
 50
  0
 41
  1
 42
  1
 43
  1
  0
INSERT
  8
PADSTACKS
  2
padstack_BGA_llb_pad2_1
 10
  0
 20
0.2
 30
  0
 50
  0
 41
  1
 42
  1
 43
  1
  0
INSERT
  8
PADSTACKS
  2
padstack_BGA_llb_pad2_1
 10
  0
 20
0.2500000000000001
 30
  0
 50
  0
 41
  1
 42
  1
 43
  1
  0
INSERT
  8
PADSTACKS
  2
padstack_BGA_llb_pad2_1
 10
  0
 20
0.3000000000000001
 30
  0
 50
  0
 41
  1
 42
  1
 43
  1
  0
INSERT
  8
PADSTACKS
  2
padstack_BGA_llb_pad2_1
 10
  0
 20
0.3500000000000001
 30
  0
 50
  0
 41
  1
 42
  1
 43
  1
  0
INSERT
  8
PADSTACKS
  2
padstack_BGA_llb_pad2_1
 10
  0
 20
0.4000000000000001
 30
  0
 50
  0
 41
  1
 42
  1
 43
  1
  0
INSERT
  8
PADSTACKS
  2
padstack_BGA_llb_pad2_1
 10
  0
 20
0.4500000000000001
 30
  0
 50
  0
 41
  1
 42
  1
 43
  1
  0
INSERT
  8
PADSTACKS
  2
padstack_BGA_llb_pad2_1
 10
0.05000000000000001
 20
  0
 30
  0
 50
  0
 41
  1
 42
  1
 43
  1
  0
INSERT
  8
PADSTACKS
  2
padstack_BGA_llb_pad2_1
 10
0.05000000000000001
 20
0.05000000000000001
 30
  0
 50
  0
 41
  1
 42
  1
 43
  1
  0
INSERT
  8
PADSTACKS
  2
padstack_BGA_llb_pad2_1
 10
0.05000000000000001
 20
0.1
 30
  0
 50
  0
 41
  1
 42
  1
 43
  1
  0
INSERT
  8
PADSTACKS
  2
padstack_BGA_llb_pad2_1
 10
0.05000000000000001
 20
0.1500000000000001
 30
  0
 50
  0
 41
  1
 42
  1
 43
  1
  0
INSERT
  8
PADSTACKS
  2
padstack_BGA_llb_pad2_1
 10
0.05000000000000001
 20
0.2
 30
  0
 50
  0
 41
  1
 42
  1
 43
  1
  0
INSERT
  8
PADSTACKS
  2
padstack_BGA_llb_pad2_1
 10
0.05000000000000001
 20
0.2500000000000001
 30
  0
 50
  0
 41
  1
 42
  1
 43
  1
  0
INSERT
  8
PADSTACKS
  2
padstack_BGA_llb_pad2_1
 10
0.05000000000000001
 20
0.3000000000000001
 30
  0
 50
  0
 41
  1
 42
  1
 43
  1
  0
INSERT
  8
PADSTACKS
  2
padstack_BGA_llb_pad2_1
 10
0.05000000000000001
 20
0.3500000000000001
 30
  0
 50
  0
 41
  1
 42
  1
 43
  1
  0
INSERT
  8
PADSTACKS
  2
padstack_BGA_llb_pad2_1
 10
0.05000000000000001
 20
0.4000000000000001
 30
  0
 50
  0
 41
  1
 42
  1
 43
  1
  0
INSERT
  8
PADSTACKS
  2
padstack_BGA_llb_pad2_1
 10
0.05000000000000001
 20
0.4500000000000001
 30
  0
 50
  0
 41
  1
 42
  1
 43
  1
  0
INSERT
  8
PADSTACKS
  2
padstack_BGA_llb_pad2_1
 10
0.1
 20
  0
 30
  0
 50
  0
 41
  1
 42
  1
 43
  1
  0
INSERT
  8
PADSTACKS
  2
padstack_BGA_llb_pad2_1
 10
0.1
 20
0.05000000000000001
 30
  0
 50
  0
 41
  1
 42
  1
 43
  1
  0
INSERT
  8
PADSTACKS
  2
padstack_BGA_llb_pad2_1
 10
0.1
 20
0.4000000000000001
 30
  0
 50
  0
 41
  1
 42
  1
 43
  1
  0
INSERT
  8
PADSTACKS
  2
padstack_BGA_llb_pad2_1
 10
0.1
 20
0.4500000000000001
 30
  0
 50
  0
 41
  1
 42
  1
 43
  1
  0
INSERT
  8
PADSTACKS
  2
padstack_BGA_llb_pad2_1
 10
0.1500000000000001
 20
  0
 30
  0
 50
  0
 41
  1
 42
  1
 43
  1
  0
INSERT
  8
PADSTACKS
  2
padstack_BGA_llb_pad2_1
 10
0.1500000000000001
 20
0.05000000000000001
 30
  0
 50
  0
 41
  1
 42
  1
 43
  1
  0
INSERT
  8
PADSTACKS
  2
padstack_BGA_llb_pad2_1
 10
0.1500000000000001
 20
0.4000000000000001
 30
  0
 50
  0
 41
  1
 42
  1
 43
  1
  0
INSERT
  8
PADSTACKS
  2
padstack_BGA_llb_pad2_1
 10
0.1500000000000001
 20
0.4500000000000001
 30
  0
 50
  0
 41
  1
 42
  1
 43
  1
  0
INSERT
  8
PADSTACKS
  2
padstack_BGA_llb_pad2_1
 10
0.2
 20
  0
 30
  0
 50
  0
 41
  1
 42
  1
 43
  1
  0
INSERT
  8
PADSTACKS
  2
padstack_BGA_llb_pad2_1
 10
0.2
 20
0.05000000000000001
 30
  0
 50
  0
 41
  1
 42
  1
 43
  1
  0
INSERT
  8
PADSTACKS
  2
padstack_BGA_llb_pad2_1
 10
0.2
 20
0.4000000000000001
 30
  0
 50
  0
 41
  1
 42
  1
 43
  1
  0
INSERT
  8
PADSTACKS
  2
padstack_BGA_llb_pad2_1
 10
0.2
 20
0.4500000000000001
 30
  0
 50
  0
 41
  1
 42
  1
 43
  1
  0
INSERT
  8
PADSTACKS
  2
padstack_BGA_llb_pad2_1
 10
0.2500000000000001
 20
  0
 30
  0
 50
  0
 41
  1
 42
  1
 43
  1
  0
INSERT
  8
PADSTACKS
  2
padstack_BGA_llb_pad2_1
 10
0.2500000000000001
 20
0.05000000000000001
 30
  0
 50
  0
 41
  1
 42
  1
 43
  1
  0
INSERT
  8
PADSTACKS
  2
padstack_BGA_llb_pad2_1
 10
0.2500000000000001
 20
0.4000000000000001
 30
  0
 50
  0
 41
  1
 42
  1
 43
  1
  0
INSERT
  8
PADSTACKS
  2
padstack_BGA_llb_pad2_1
 10
0.2500000000000001
 20
0.4500000000000001
 30
  0
 50
  0
 41
  1
 42
  1
 43
  1
  0
INSERT
  8
PADSTACKS
  2
padstack_BGA_llb_pad2_1
 10
0.3000000000000001
 20
  0
 30
  0
 50
  0
 41
  1
 42
  1
 43
  1
  0
INSERT
  8
PADSTACKS
  2
padstack_BGA_llb_pad2_1
 10
0.3000000000000001
 20
0.05000000000000001
 30
  0
 50
  0
 41
  1
 42
  1
 43
  1
  0
INSERT
  8
PADSTACKS
  2
padstack_BGA_llb_pad2_1
 10
0.3000000000000001
 20
0.4000000000000001
 30
  0
 50
  0
 41
  1
 42
  1
 43
  1
  0
INSERT
  8
PADSTACKS
  2
padstack_BGA_llb_pad2_1
 10
0.3000000000000001
 20
0.4500000000000001
 30
  0
 50
  0
 41
  1
 42
  1
 43
  1
  0
INSERT
  8
PADSTACKS
  2
padstack_BGA_llb_pad2_1
 10
0.3500000000000001
 20
  0
 30
  0
 50
  0
 41
  1
 42
  1
 43
  1
  0
INSERT
  8
PADSTACKS
  2
padstack_BGA_llb_pad2_1
 10
0.3500000000000001
 20
0.05000000000000001
 30
  0
 50
  0
 41
  1
 42
  1
 43
  1
  0
INSERT
  8
PADSTACKS
  2
padstack_BGA_llb_pad2_1
 10
0.3500000000000001
 20
0.4000000000000001
 30
  0
 50
  0
 41
  1
 42
  1
 43
  1
  0
INSERT
  8
PADSTACKS
  2
padstack_BGA_llb_pad2_1
 10
0.3500000000000001
 20
0.4500000000000001
 30
  0
 50
  0
 41
  1
 42
  1
 43
  1
  0
INSERT
  8
PADSTACKS
  2
padstack_BGA_llb_pad2_1
 10
0.4000000000000001
 20
  0
 30
  0
 50
  0
 41
  1
 42
  1
 43
  1
  0
INSERT
  8
PADSTACKS
  2
padstack_BGA_llb_pad2_1
 10
0.4000000000000001
 20
0.05000000000000001
 30
  0
 50
  0
 41
  1
 42
  1
 43
  1
  0
INSERT
  8
PADSTACKS
  2
padstack_BGA_llb_pad2_1
 10
0.4000000000000001
 20
0.1
 30
  0
 50
  0
 41
  1
 42
  1
 43
  1
  0
INSERT
  8
PADSTACKS
  2
padstack_BGA_llb_pad2_1
 10
0.4000000000000001
 20
0.1500000000000001
 30
  0
 50
  0
 41
  1
 42
  1
 43
  1
  0
INSERT
  8
PADSTACKS
  2
padstack_BGA_llb_pad2_1
 10
0.4000000000000001
 20
0.2
 30
  0
 50
  0
 41
  1
 42
  1
 43
  1
  0
INSERT
  8
PADSTACKS
  2
padstack_BGA_llb_pad2_1
 10
0.4000000000000001
 20
0.2500000000000001
 30
  0
 50
  0
 41
  1
 42
  1
 43
  1
  0
INSERT
  8
PADSTACKS
  2
padstack_BGA_llb_pad2_1
 10
0.4000000000000001
 20
0.3000000000000001
 30
  0
 50
  0
 41
  1
 42
  1
 43
  1
  0
INSERT
  8
PADSTACKS
  2
padstack_BGA_llb_pad2_1
 10
0.4000000000000001
 20
0.3500000000000001
 30
  0
 50
  0
 41
  1
 42
  1
 43
  1
  0
INSERT
  8
PADSTACKS
  2
padstack_BGA_llb_pad2_1
 10
0.4000000000000001
 20
0.4000000000000001
 30
  0
 50
  0
 41
  1
 42
  1
 43
  1
  0
INSERT
  8
PADSTACKS
  2
padstack_BGA_llb_pad2_1
 10
0.4000000000000001
 20
0.4500000000000001
 30
  0
 50
  0
 41
  1
 42
  1
 43
  1
  0
INSERT
  8
PADSTACKS
  2
padstack_BGA_llb_pad2_1
 10
0.4500000000000001
 20
  0
 30
  0
 50
  0
 41
  1
 42
  1
 43
  1
  0
INSERT
  8
PADSTACKS
  2
padstack_BGA_llb_pad2_1
 10
0.4500000000000001
 20
0.05000000000000001
 30
  0
 50
  0
 41
  1
 42
  1
 43
  1
  0
INSERT
  8
PADSTACKS
  2
padstack_BGA_llb_pad2_1
 10
0.4500000000000001
 20
0.1
 30
  0
 50
  0
 41
  1
 42
  1
 43
  1
  0
INSERT
  8
PADSTACKS
  2
padstack_BGA_llb_pad2_1
 10
0.4500000000000001
 20
0.1500000000000001
 30
  0
 50
  0
 41
  1
 42
  1
 43
  1
  0
INSERT
  8
PADSTACKS
  2
padstack_BGA_llb_pad2_1
 10
0.4500000000000001
 20
0.2
 30
  0
 50
  0
 41
  1
 42
  1
 43
  1
  0
INSERT
  8
PADSTACKS
  2
padstack_BGA_llb_pad2_1
 10
0.4500000000000001
 20
0.2500000000000001
 30
  0
 50
  0
 41
  1
 42
  1
 43
  1
  0
INSERT
  8
PADSTACKS
  2
padstack_BGA_llb_pad2_1
 10
0.4500000000000001
 20
0.3000000000000001
 30
  0
 50
  0
 41
  1
 42
  1
 43
  1
  0
INSERT
  8
PADSTACKS
  2
padstack_BGA_llb_pad2_1
 10
0.4500000000000001
 20
0.3500000000000001
 30
  0
 50
  0
 41
  1
 42
  1
 43
  1
  0
INSERT
  8
PADSTACKS
  2
padstack_BGA_llb_pad2_1
 10
0.4500000000000001
 20
0.4000000000000001
 30
  0
 50
  0
 41
  1
 42
  1
 43
  1
  0
INSERT
  8
PADSTACKS
  2
padstack_BGA_llb_pad2_1
 10
0.4500000000000001
 20
0.4500000000000001
 30
  0
 50
  0
 41
  1
 42
  1
 43
  1
  0
ENDBLK
  0
BLOCK
  8
0
  2
footprint_RESISTOR_VAL
 10
0.0
 20
0.0
 30
0.0
 70
2
  0
POLYLINE
  8
OBS_GLOBAL_LAYER
 66
1
 39
0.001
 70
1
 40
8.333333333333335e-006
 41
8.333333333333335e-006
  0
VERTEX
  8
OBS_GLOBAL_LAYER
 10
-0.04150000000000001
 20
-0.05400000000000001
  0
VERTEX
  8
OBS_GLOBAL_LAYER
 10
0.2415000000000001
 20
-0.05400000000000001
  0
VERTEX
  8
OBS_GLOBAL_LAYER
 10
0.2415000000000001
 20
0.154
  0
VERTEX
  8
OBS_GLOBAL_LAYER
 10
-0.04150000000000001
 20
0.154
  0
VERTEX
  8
OBS_GLOBAL_LAYER
 10
-0.04150000000000001
 20
-0.05400000000000001
  0
SEQEND
  8
OBS_GLOBAL_LAYER
  0
POLYLINE
  8
OBS_SSTOP
 66
1
 70
0
 40
0.008000000000000002
 41
0.008000000000000002
  0
VERTEX
  8
OBS_SSTOP
 10
0.02500000000000001
 20
0.1
  0
VERTEX
  8
OBS_SSTOP
 10
-0.02500000000000001
 20
0.1
  0
SEQEND
  8
OBS_SSTOP
  0
POLYLINE
  8
OBS_ASYTOP
 66
1
 70
0
 40
0.008000000000000002
 41
0.008000000000000002
  0
VERTEX
  8
OBS_ASYTOP
 10
0.02500000000000001
 20
0.1
  0
VERTEX
  8
OBS_ASYTOP
 10
-0.02500000000000001
 20
0.1
  0
SEQEND
  8
OBS_ASYTOP
  0
POLYLINE
  8
OBS_SSTOP
 66
1
 70
0
 40
0.008000000000000002
 41
0.008000000000000002
  0
VERTEX
  8
OBS_SSTOP
 10
-0.03750000000000001
 20
-0.05000000000000001
  0
VERTEX
  8
OBS_SSTOP
 10
0.2375000000000001
 20
-0.05000000000000001
  0
SEQEND
  8
OBS_SSTOP
  0
POLYLINE
  8
OBS_ASYTOP
 66
1
 70
0
 40
0.008000000000000002
 41
0.008000000000000002
  0
VERTEX
  8
OBS_ASYTOP
 10
-0.03750000000000001
 20
-0.05000000000000001
  0
VERTEX
  8
OBS_ASYTOP
 10
0.2375000000000001
 20
-0.05000000000000001
  0
SEQEND
  8
OBS_ASYTOP
  0
POLYLINE
  8
OBS_SSTOP
 66
1
 70
0
 40
0.008000000000000002
 41
0.008000000000000002
  0
VERTEX
  8
OBS_SSTOP
 10
0.2375000000000001
 20
0.03750000000000001
  0
VERTEX
  8
OBS_SSTOP
 10
0.2375000000000001
 20
0.1500000000000001
  0
VERTEX
  8
OBS_SSTOP
 10
-0.03750000000000001
 20
0.1500000000000001
  0
VERTEX
  8
OBS_SSTOP
 10
-0.03750000000000001
 20
0.05000000000000001
  0
SEQEND
  8
OBS_SSTOP
  0
POLYLINE
  8
OBS_ASYTOP
 66
1
 70
0
 40
0.008000000000000002
 41
0.008000000000000002
  0
VERTEX
  8
OBS_ASYTOP
 10
0.2375000000000001
 20
0.03750000000000001
  0
VERTEX
  8
OBS_ASYTOP
 10
0.2375000000000001
 20
0.1500000000000001
  0
VERTEX
  8
OBS_ASYTOP
 10
-0.03750000000000001
 20
0.1500000000000001
  0
VERTEX
  8
OBS_ASYTOP
 10
-0.03750000000000001
 20
0.05000000000000001
  0
SEQEND
  8
OBS_ASYTOP
  0
INSERT
  8
PADSTACKS
  2
padstack_82R66
 10
  0
 20
  0
 30
  0
 50
  0
 41
  1
 42
  1
 43
  1
  0
INSERT
  8
PADSTACKS
  2
padstack_85R61
 10
0.1
 20
0.1
 30
  0
 50
  0
 41
  1
 42
  1
 43
  1
  0
INSERT
  8
PADSTACKS
  2
padstack_82R66
 10
0.2
 20
  0
 30
  0
 50
  0
 41
  1
 42
  1
 43
  1
  0
ATTDEF
  8
ASYTOP
 70
0
 72
0
  1
RESISTOR VAL
  2
SYM_NAME
  3

 10
-28.52686666666667
 20
-27.99993333333334
 30
  0
 40
0.02250000000000001
 50
  0
  0
ENDBLK
  0
BLOCK
  8
0
  2
footprint_RESISTOR_VAL_3
 10
0.0
 20
0.0
 30
0.0
 70
2
  0
INSERT
  8
PADSTACKS
  2
padstack_82R66
 10
  0
 20
  0
 30
  0
 50
  0
 41
  1
 42
  1
 43
  1
  0
INSERT
  8
PADSTACKS
  2
padstack_85R61
 10
0.1
 20
0.1
 30
  0
 50
  0
 41
  1
 42
  1
 43
  1
  0
INSERT
  8
PADSTACKS
  2
padstack_82R66
 10
0.2
 20
  0
 30
  0
 50
  0
 41
  1
 42
  1
 43
  1
  0
ENDBLK
  0
BLOCK
  8
0
  2
footprint_DIP_8
 10
0.0
 20
0.0
 30
0.0
 70
2
  0
POLYLINE
  8
OBS_ASYTOP
 66
1
 70
0
 40
0.008000000000000002
 41
0.008000000000000002
  0
VERTEX
  8
OBS_ASYTOP
 10
-0.05000000000000001
 20
0.2500000000000001
  0
VERTEX
  8
OBS_ASYTOP
 10
-0.05000000000000001
 20
0.05000000000000001
  0
VERTEX
  8
OBS_ASYTOP
 10
0.3500000000000001
 20
0.05000000000000001
  0
VERTEX
  8
OBS_ASYTOP
 10
0.3500000000000001
 20
0.2500000000000001
  0
VERTEX
  8
OBS_ASYTOP
 10
-0.05000000000000001
 20
0.2500000000000001
  0
SEQEND
  8
OBS_ASYTOP
  0
POLYLINE
  8
OBS_GLOBAL_LAYER
 66
1
 39
0.001
 70
1
 40
8.333333333333335e-006
 41
8.333333333333335e-006
  0
VERTEX
  8
OBS_GLOBAL_LAYER
 10
-0.05400000000000001
 20
-0.05400000000000001
  0
VERTEX
  8
OBS_GLOBAL_LAYER
 10
0.3540000000000001
 20
-0.05400000000000001
  0
VERTEX
  8
OBS_GLOBAL_LAYER
 10
0.3540000000000001
 20
0.3540000000000001
  0
VERTEX
  8
OBS_GLOBAL_LAYER
 10
-0.05400000000000001
 20
0.3540000000000001
  0
VERTEX
  8
OBS_GLOBAL_LAYER
 10
-0.05400000000000001
 20
-0.05400000000000001
  0
SEQEND
  8
OBS_GLOBAL_LAYER
  0
POLYLINE
  8
OBS_SSTOP
 66
1
 70
0
 40
0.008000000000000002
 41
0.008000000000000002
  0
VERTEX
  8
OBS_SSTOP
 10
-0.05000000000000001
 20
0.1
  0
VERTEX
  8
OBS_SSTOP
 10
-0.02500000000000001
 20
0.1
  0
VERTEX
  8
OBS_SSTOP
 10
-0.02500000000000001
 20
0.2
  0
VERTEX
  8
OBS_SSTOP
 10
-0.05000000000000001
 20
0.2
  0
SEQEND
  8
OBS_SSTOP
  0
POLYLINE
  8
OBS_SSTOP
 66
1
 70
0
 40
0.008000000000000002
 41
0.008000000000000002
  0
VERTEX
  8
OBS_SSTOP
 10
-0.05000000000000001
 20
0.2500000000000001
  0
VERTEX
  8
OBS_SSTOP
 10
-0.05000000000000001
 20
0.05000000000000001
  0
VERTEX
  8
OBS_SSTOP
 10
0.3500000000000001
 20
0.05000000000000001
  0
VERTEX
  8
OBS_SSTOP
 10
0.3500000000000001
 20
0.2500000000000001
  0
VERTEX
  8
OBS_SSTOP
 10
-0.05000000000000001
 20
0.2500000000000001
  0
SEQEND
  8
OBS_SSTOP
  0
POLYLINE
  8
OBS_ASYTOP
 66
1
 70
0
 40
0.008000000000000002
 41
0.008000000000000002
  0
VERTEX
  8
OBS_ASYTOP
 10
-0.05000000000000001
 20
0.1
  0
VERTEX
  8
OBS_ASYTOP
 10
-0.02500000000000001
 20
0.1
  0
VERTEX
  8
OBS_ASYTOP
 10
-0.02500000000000001
 20
0.2
  0
VERTEX
  8
OBS_ASYTOP
 10
-0.05000000000000001
 20
0.2
  0
SEQEND
  8
OBS_ASYTOP
  0
INSERT
  8
PADSTACKS
  2
padstack_DIP100T_llb_pad4_1
 10
  0
 20
  0
 30
  0
 50
 90
 41
  1
 42
  1
 43
  1
  0
INSERT
  8
PADSTACKS
  2
padstack_DIP100T_llb_pad3_1
 10
0.1
 20
  0
 30
  0
 50
  0
 41
  1
 42
  1
 43
  1
  0
INSERT
  8
PADSTACKS
  2
padstack_DIP100T_llb_pad3_1
 10
0.2
 20
  0
 30
  0
 50
  0
 41
  1
 42
  1
 43
  1
  0
INSERT
  8
PADSTACKS
  2
padstack_DIP100T_llb_pad3_1
 10
0.3000000000000001
 20
  0
 30
  0
 50
  0
 41
  1
 42
  1
 43
  1
  0
INSERT
  8
PADSTACKS
  2
padstack_DIP100T_llb_pad5_1
 10
0.3000000000000001
 20
0.3000000000000001
 30
  0
 50
  0
 41
  1
 42
  1
 43
  1
  0
INSERT
  8
PADSTACKS
  2
padstack_DIP100T_llb_pad5_1
 10
0.2
 20
0.3000000000000001
 30
  0
 50
  0
 41
  1
 42
  1
 43
  1
  0
INSERT
  8
PADSTACKS
  2
padstack_DIP100T_llb_pad5_1
 10
0.1
 20
0.3000000000000001
 30
  0
 50
  0
 41
  1
 42
  1
 43
  1
  0
INSERT
  8
PADSTACKS
  2
padstack_DIP100T_llb_pad5_1
 10
  0
 20
0.3000000000000001
 30
  0
 50
  0
 41
  1
 42
  1
 43
  1
  0
ENDBLK
  0
BLOCK
  8
0
  2
footprint_RESISTOR_
 10
0.0
 20
0.0
 30
0.0
 70
2
  0
POLYLINE
  8
OBS_GLOBAL_LAYER
 66
1
 39
0.001
 70
1
 40
8.333333333333335e-006
 41
8.333333333333335e-006
  0
VERTEX
  8
OBS_GLOBAL_LAYER
 10
-0.03750000000000001
 20
-0.05400000000000001
  0
VERTEX
  8
OBS_GLOBAL_LAYER
 10
0.3375000000000001
 20
-0.05400000000000001
  0
VERTEX
  8
OBS_GLOBAL_LAYER
 10
0.3375000000000001
 20
0.05400000000000001
  0
VERTEX
  8
OBS_GLOBAL_LAYER
 10
-0.03750000000000001
 20
0.05400000000000001
  0
VERTEX
  8
OBS_GLOBAL_LAYER
 10
-0.03750000000000001
 20
-0.05400000000000001
  0
SEQEND
  8
OBS_GLOBAL_LAYER
  0
POLYLINE
  8
OBS_SSTOP
 66
1
 70
0
 40
0.008000000000000002
 41
0.008000000000000002
  0
VERTEX
  8
OBS_SSTOP
 10
0.07500000000000003
 20
  0
  0
VERTEX
  8
OBS_SSTOP
 10
0.03750000000000001
 20
  0
  0
SEQEND
  8
OBS_SSTOP
  0
POLYLINE
  8
OBS_ASYTOP
 66
1
 70
0
 40
0.008000000000000002
 41
0.008000000000000002
  0
VERTEX
  8
OBS_ASYTOP
 10
0.07500000000000003
 20
  0
  0
VERTEX
  8
OBS_ASYTOP
 10
0.03750000000000001
 20
  0
  0
SEQEND
  8
OBS_ASYTOP
  0
POLYLINE
  8
OBS_SSTOP
 66
1
 70
0
 40
0.008000000000000002
 41
0.008000000000000002
  0
VERTEX
  8
OBS_SSTOP
 10
0.2250000000000001
 20
  0
  0
VERTEX
  8
OBS_SSTOP
 10
0.2625000000000001
 20
  0
  0
SEQEND
  8
OBS_SSTOP
  0
POLYLINE
  8
OBS_ASYTOP
 66
1
 70
0
 40
0.008000000000000002
 41
0.008000000000000002
  0
VERTEX
  8
OBS_ASYTOP
 10
0.2250000000000001
 20
  0
  0
VERTEX
  8
OBS_ASYTOP
 10
0.2625000000000001
 20
  0
  0
SEQEND
  8
OBS_ASYTOP
  0
POLYLINE
  8
OBS_SSTOP
 66
1
 70
0
 40
0.008000000000000002
 41
0.008000000000000002
  0
VERTEX
  8
OBS_SSTOP
 10
0.2250000000000001
 20
-0.05000000000000001
  0
VERTEX
  8
OBS_SSTOP
 10
0.2250000000000001
 20
0.05000000000000001
  0
VERTEX
  8
OBS_SSTOP
 10
0.2250000000000001
 20
0.05000000000000001
  0
VERTEX
  8
OBS_SSTOP
 10
0.07500000000000003
 20
0.05000000000000001
  0
VERTEX
  8
OBS_SSTOP
 10
0.07500000000000003
 20
-0.05000000000000001
  0
VERTEX
  8
OBS_SSTOP
 10
0.2250000000000001
 20
-0.05000000000000001
  0
SEQEND
  8
OBS_SSTOP
  0
POLYLINE
  8
OBS_ASYTOP
 66
1
 70
0
 40
0.008000000000000002
 41
0.008000000000000002
  0
VERTEX
  8
OBS_ASYTOP
 10
0.2250000000000001
 20
-0.05000000000000001
  0
VERTEX
  8
OBS_ASYTOP
 10
0.2250000000000001
 20
0.05000000000000001
  0
VERTEX
  8
OBS_ASYTOP
 10
0.2250000000000001
 20
0.05000000000000001
  0
VERTEX
  8
OBS_ASYTOP
 10
0.07500000000000003
 20
0.05000000000000001
  0
VERTEX
  8
OBS_ASYTOP
 10
0.07500000000000003
 20
-0.05000000000000001
  0
VERTEX
  8
OBS_ASYTOP
 10
0.2250000000000001
 20
-0.05000000000000001
  0
SEQEND
  8
OBS_ASYTOP
  0
INSERT
  8
PADSTACKS
  2
padstack_TM_AXIAL_llb_pad2
 10
  0
 20
  0
 30
  0
 50
  0
 41
  1
 42
  1
 43
  1
  0
INSERT
  8
PADSTACKS
  2
padstack_TM_AXIAL_llb_pad2
 10
0.3000000000000001
 20
  0
 30
  0
 50
  0
 41
  1
 42
  1
 43
  1
  0
ENDBLK
  0
BLOCK
  8
0
  2
footprint_CAP
 10
0.0
 20
0.0
 30
0.0
 70
2
  0
POLYLINE
  8
OBS_GLOBAL_LAYER
 66
1
 39
0.001
 70
1
 40
8.333333333333335e-006
 41
8.333333333333335e-006
  0
VERTEX
  8
OBS_GLOBAL_LAYER
 10
-0.05400000000000001
 20
-0.05400000000000001
  0
VERTEX
  8
OBS_GLOBAL_LAYER
 10
0.154
 20
-0.05400000000000001
  0
VERTEX
  8
OBS_GLOBAL_LAYER
 10
0.154
 20
0.05400000000000001
  0
VERTEX
  8
OBS_GLOBAL_LAYER
 10
-0.05400000000000001
 20
0.05400000000000001
  0
VERTEX
  8
OBS_GLOBAL_LAYER
 10
-0.05400000000000001
 20
-0.05400000000000001
  0
SEQEND
  8
OBS_GLOBAL_LAYER
  0
POLYLINE
  8
OBS_SSTOP
 66
1
 70
0
 40
0.008000000000000002
 41
0.008000000000000002
  0
VERTEX
  8
OBS_SSTOP
 10
0.1500000000000001
 20
-0.05000000000000001
  0
VERTEX
  8
OBS_SSTOP
 10
-0.05000000000000001
 20
-0.05000000000000001
  0
VERTEX
  8
OBS_SSTOP
 10
-0.05000000000000001
 20
-0.05000000000000001
  0
VERTEX
  8
OBS_SSTOP
 10
-0.05000000000000001
 20
0.05000000000000001
  0
VERTEX
  8
OBS_SSTOP
 10
0.1500000000000001
 20
0.05000000000000001
  0
VERTEX
  8
OBS_SSTOP
 10
0.1500000000000001
 20
-0.05000000000000001
  0
SEQEND
  8
OBS_SSTOP
  0
POLYLINE
  8
OBS_ASYTOP
 66
1
 70
0
 40
0.008000000000000002
 41
0.008000000000000002
  0
VERTEX
  8
OBS_ASYTOP
 10
0.1500000000000001
 20
-0.05000000000000001
  0
VERTEX
  8
OBS_ASYTOP
 10
-0.05000000000000001
 20
-0.05000000000000001
  0
VERTEX
  8
OBS_ASYTOP
 10
-0.05000000000000001
 20
-0.05000000000000001
  0
VERTEX
  8
OBS_ASYTOP
 10
-0.05000000000000001
 20
0.05000000000000001
  0
VERTEX
  8
OBS_ASYTOP
 10
0.1500000000000001
 20
0.05000000000000001
  0
VERTEX
  8
OBS_ASYTOP
 10
0.1500000000000001
 20
-0.05000000000000001
  0
SEQEND
  8
OBS_ASYTOP
  0
INSERT
  8
PADSTACKS
  2
padstack_TM_RAD_llb_pad2
 10
  0
 20
  0
 30
  0
 50
  0
 41
  1
 42
  1
 43
  1
  0
INSERT
  8
PADSTACKS
  2
padstack_TM_RAD_llb_pad2
 10
0.1
 20
  0
 30
  0
 50
  0
 41
  1
 42
  1
 43
  1
  0
ENDBLK
  0
BLOCK
  8
0
  2
footprint_CON2
 10
0.0
 20
0.0
 30
0.0
 70
2
  0
POLYLINE
  8
OBS_GLOBAL_LAYER
 66
1
 39
0.001
 70
1
 40
8.333333333333335e-006
 41
8.333333333333335e-006
  0
VERTEX
  8
OBS_GLOBAL_LAYER
 10
-0.05900000000000002
 20
-0.05400000000000001
  0
VERTEX
  8
OBS_GLOBAL_LAYER
 10
0.159
 20
-0.05400000000000001
  0
VERTEX
  8
OBS_GLOBAL_LAYER
 10
0.159
 20
0.05400000000000001
  0
VERTEX
  8
OBS_GLOBAL_LAYER
 10
-0.05900000000000002
 20
0.05400000000000001
  0
VERTEX
  8
OBS_GLOBAL_LAYER
 10
-0.05900000000000002
 20
-0.05400000000000001
  0
SEQEND
  8
OBS_GLOBAL_LAYER
  0
POLYLINE
  8
OBS_SSTOP
 66
1
 70
0
 40
0.008000000000000002
 41
0.008000000000000002
  0
VERTEX
  8
OBS_SSTOP
 10
0.155
 20
-0.05000000000000001
  0
VERTEX
  8
OBS_SSTOP
 10
0.1
 20
-0.05000000000000001
  0
VERTEX
  8
OBS_SSTOP
 10
  0
 20
-0.05000000000000001
  0
VERTEX
  8
OBS_SSTOP
 10
-0.05500000000000001
 20
-0.05000000000000001
  0
VERTEX
  8
OBS_SSTOP
 10
-0.05500000000000001
 20
0.05000000000000001
  0
VERTEX
  8
OBS_SSTOP
 10
0.155
 20
0.05000000000000001
  0
VERTEX
  8
OBS_SSTOP
 10
0.155
 20
-0.05000000000000001
  0
SEQEND
  8
OBS_SSTOP
  0
POLYLINE
  8
OBS_ASYTOP
 66
1
 70
0
 40
0.008000000000000002
 41
0.008000000000000002
  0
VERTEX
  8
OBS_ASYTOP
 10
0.155
 20
-0.05000000000000001
  0
VERTEX
  8
OBS_ASYTOP
 10
0.1
 20
-0.05000000000000001
  0
VERTEX
  8
OBS_ASYTOP
 10
  0
 20
-0.05000000000000001
  0
VERTEX
  8
OBS_ASYTOP
 10
-0.05500000000000001
 20
-0.05000000000000001
  0
VERTEX
  8
OBS_ASYTOP
 10
-0.05500000000000001
 20
0.05000000000000001
  0
VERTEX
  8
OBS_ASYTOP
 10
0.155
 20
0.05000000000000001
  0
VERTEX
  8
OBS_ASYTOP
 10
0.155
 20
-0.05000000000000001
  0
SEQEND
  8
OBS_ASYTOP
  0
INSERT
  8
PADSTACKS
  2
padstack_BCON100T_llb_pad3
 10
  0
 20
  0
 30
  0
 50
  0
 41
  1
 42
  1
 43
  1
  0
INSERT
  8
PADSTACKS
  2
padstack_BCON100T_llb_pad4
 10
0.1
 20
  0
 30
  0
 50
  0
 41
  1
 42
  1
 43
  1
  0
TEXT
  8
SSTOP
 72
0
 10
-0.1138833333333334
 20
-0.03063333333333334
 30
  0
 40
0.03750000000000001
 50
  0
  1
1
  0
ENDBLK
  0
BLOCK
  8
0
  2
footprint_DIP_8_U1
 10
0.0
 20
0.0
 30
0.0
 70
2
  0
INSERT
  8
PADSTACKS
  2
padstack_DIP100T_llb_pad4_1
 10
  0
 20
  0
 30
  0
 50
 90
 41
  1
 42
  1
 43
  1
  0
INSERT
  8
PADSTACKS
  2
padstack_DIP100T_llb_pad3_1
 10
0.1
 20
  0
 30
  0
 50
  0
 41
  1
 42
  1
 43
  1
  0
INSERT
  8
PADSTACKS
  2
padstack_DIP100T_llb_pad3_1
 10
0.2
 20
  0
 30
  0
 50
  0
 41
  1
 42
  1
 43
  1
  0
INSERT
  8
PADSTACKS
  2
padstack_DIP100T_llb_pad3_1
 10
0.3000000000000001
 20
  0
 30
  0
 50
  0
 41
  1
 42
  1
 43
  1
  0
INSERT
  8
PADSTACKS
  2
padstack_DIP100T_llb_pad5_1
 10
0.3000000000000001
 20
0.3000000000000001
 30
  0
 50
  0
 41
  1
 42
  1
 43
  1
  0
INSERT
  8
PADSTACKS
  2
padstack_DIP100T_llb_pad5_1
 10
0.2
 20
0.3000000000000001
 30
  0
 50
  0
 41
  1
 42
  1
 43
  1
  0
INSERT
  8
PADSTACKS
  2
padstack_DIP100T_llb_pad5_1
 10
0.1
 20
0.3000000000000001
 30
  0
 50
  0
 41
  1
 42
  1
 43
  1
  0
INSERT
  8
PADSTACKS
  2
padstack_DIP100T_llb_pad5_1
 10
  0
 20
0.3000000000000001
 30
  0
 50
  0
 41
  1
 42
  1
 43
  1
  0
ENDBLK
  0
BLOCK
  8
0
  2
footprint_RESISTOR__R1
 10
0.0
 20
0.0
 30
0.0
 70
2
  0
INSERT
  8
PADSTACKS
  2
padstack_TM_AXIAL_llb_pad2
 10
  0
 20
  0
 30
  0
 50
  0
 41
  1
 42
  1
 43
  1
  0
INSERT
  8
PADSTACKS
  2
padstack_TM_AXIAL_llb_pad2
 10
0.3000000000000001
 20
  0
 30
  0
 50
  0
 41
  1
 42
  1
 43
  1
  0
ENDBLK
  0
BLOCK
  8
0
  2
footprint_RESISTOR__R2
 10
0.0
 20
0.0
 30
0.0
 70
2
  0
INSERT
  8
PADSTACKS
  2
padstack_TM_AXIAL_llb_pad2
 10
  0
 20
  0
 30
  0
 50
  0
 41
  1
 42
  1
 43
  1
  0
INSERT
  8
PADSTACKS
  2
padstack_TM_AXIAL_llb_pad2
 10
0.3000000000000001
 20
  0
 30
  0
 50
  0
 41
  1
 42
  1
 43
  1
  0
ENDBLK
  0
BLOCK
  8
0
  2
footprint_CAP_POL_1_C1
 10
0.0
 20
0.0
 30
0.0
 70
2
  0
INSERT
  8
PADSTACKS
  2
padstack_TM_CYLND_llb_pad3
 10
  0
 20
  0
 30
  0
 50
  0
 41
  1
 42
  1
 43
  1
  0
INSERT
  8
PADSTACKS
  2
padstack_TM_CYLND_llb_pad4
 10
0.125
 20
  0
 30
  0
 50
  0
 41
  1
 42
  1
 43
  1
  0
ENDBLK
  0
BLOCK
  8
0
  2
footprint_RESISTOR_VAL_R3
 10
0.0
 20
0.0
 30
0.0
 70
2
  0
INSERT
  8
PADSTACKS
  2
padstack_82R66
 10
  0
 20
  0
 30
  0
 50
  0
 41
  1
 42
  1
 43
  1
  0
INSERT
  8
PADSTACKS
  2
padstack_85R61
 10
0.1
 20
0.1
 30
  0
 50
  0
 41
  1
 42
  1
 43
  1
  0
INSERT
  8
PADSTACKS
  2
padstack_82R66
 10
0.2
 20
  0
 30
  0
 50
  0
 41
  1
 42
  1
 43
  1
  0
ENDBLK
  0
BLOCK
  8
0
  2
footprint_CON2_J1
 10
0.0
 20
0.0
 30
0.0
 70
2
  0
INSERT
  8
PADSTACKS
  2
padstack_BCON100T_llb_pad3
 10
  0
 20
  0
 30
  0
 50
  0
 41
  1
 42
  1
 43
  1
  0
INSERT
  8
PADSTACKS
  2
padstack_BCON100T_llb_pad4
 10
0.1
 20
  0
 30
  0
 50
  0
 41
  1
 42
  1
 43
  1
  0
ENDBLK
  0
BLOCK
  8
0
  2
footprint_CON2_J2
 10
0.0
 20
0.0
 30
0.0
 70
2
  0
INSERT
  8
PADSTACKS
  2
padstack_BCON100T_llb_pad3
 10
  0
 20
  0
 30
  0
 50
  0
 41
  1
 42
  1
 43
  1
  0
INSERT
  8
PADSTACKS
  2
padstack_BCON100T_llb_pad4
 10
0.1
 20
  0
 30
  0
 50
  0
 41
  1
 42
  1
 43
  1
  0
ENDBLK
  0
BLOCK
  8
0
  2
footprint_CAP_POL_1
 10
0.0
 20
0.0
 30
0.0
 70
2
  0
POLYLINE
  8
OBS_GLOBAL_LAYER
 66
1
 39
0.001
 70
1
 40
8.333333333333335e-006
 41
8.333333333333335e-006
  0
VERTEX
  8
OBS_GLOBAL_LAYER
 10
-0.05400000000000001
 20
-0.1165
  0
VERTEX
  8
OBS_GLOBAL_LAYER
 10
0.1790000000000001
 20
-0.1165
  0
VERTEX
  8
OBS_GLOBAL_LAYER
 10
0.1790000000000001
 20
0.1165
  0
VERTEX
  8
OBS_GLOBAL_LAYER
 10
-0.05400000000000001
 20
0.1165
  0
VERTEX
  8
OBS_GLOBAL_LAYER
 10
-0.05400000000000001
 20
-0.1165
  0
SEQEND
  8
OBS_GLOBAL_LAYER
  0
POLYLINE
  8
OBS_SSTOP
 66
1
 70
0
 40
0.008000000000000002
 41
0.008000000000000002
  0
VERTEX
  8
OBS_SSTOP
 10
-0.05000000000000001
 20
  0
 42
-0.414213562373095
  0
VERTEX
  8
OBS_SSTOP
 10
0.06250000000000001
 20
0.1125
 42
-0.414213562373095
  0
VERTEX
  8
OBS_SSTOP
 10
0.175
 20
  0
 42
-0.414213562373095
  0
VERTEX
  8
OBS_SSTOP
 10
0.06250000000000001
 20
-0.1125
 42
-0.414213562373095
  0
VERTEX
  8
OBS_SSTOP
 10
-0.05000000000000001
 20
  0
  0
SEQEND
  8
OBS_SSTOP
  0
POLYLINE
  8
OBS_ASYTOP
 66
1
 70
0
 40
0.008000000000000002
 41
0.008000000000000002
  0
VERTEX
  8
OBS_ASYTOP
 10
-0.05000000000000001
 20
  0
 42
-0.414213562373095
  0
VERTEX
  8
OBS_ASYTOP
 10
0.06250000000000001
 20
0.1125
 42
-0.414213562373095
  0
VERTEX
  8
OBS_ASYTOP
 10
0.175
 20
  0
 42
-0.414213562373095
  0
VERTEX
  8
OBS_ASYTOP
 10
0.06250000000000001
 20
-0.1125
 42
-0.414213562373095
  0
VERTEX
  8
OBS_ASYTOP
 10
-0.05000000000000001
 20
  0
  0
SEQEND
  8
OBS_ASYTOP
  0
INSERT
  8
PADSTACKS
  2
padstack_TM_CYLND_llb_pad3
 10
  0
 20
  0
 30
  0
 50
  0
 41
  1
 42
  1
 43
  1
  0
INSERT
  8
PADSTACKS
  2
padstack_TM_CYLND_llb_pad4
 10
0.125
 20
  0
 30
  0
 50
  0
 41
  1
 42
  1
 43
  1
  0
ENDBLK
  0
ENDSEC
  0
SECTION
  2
ENTITIES
  0
INSERT
  8
COMPONENTS_TOP
  66
1
  2
footprint_CAP_POL_1_C1
 10
  0
 20
1.810866666666667
 30
  0
 50
270
 41
  1
 42
  1
 43
  1
  0
ATTRIB
  8
ASYTOP
 70
0
 72
0
  1
C1
  2
COMP_NAME
 10
0.06156666666666668
 20
1.957883333333334
 30
  0
 40
0.03750000000000001
 50
270
  0
SEQEND
  8
0
  0
INSERT
  8
COMPONENTS_TOP
  66
1
  2
footprint_CON2_J1
 10
-0.2362000000000001
 20
1.259733333333334
 30
  0
 50
  0
 41
  1
 42
  1
 43
  1
  0
ATTRIB
  8
ASYTOP
 70
0
 72
0
  1
J1
  2
COMP_NAME
 10
-0.3990666666666668
 20
1.29095
 30
  0
 40
0.03750000000000001
 50
  0
  0
SEQEND
  8
0
  0
INSERT
  8
COMPONENTS_TOP
  66
1
  2
footprint_CON2_J2
 10
-0.5511333333333335
 20
1.259733333333334
 30
  0
 50
180
 41
  1
 42
  1
 43
  1
  0
ATTRIB
  8
ASYTOP
 70
0
 72
0
  1
J2
  2
COMP_NAME
 10
-0.6441500000000001
 20
1.090733333333334
 30
  0
 40
0.03750000000000001
 50
360
  0
SEQEND
  8
0
  0
INSERT
  8
COMPONENTS_TOP
  66
1
  2
footprint_RESISTOR__R1
 10
-0.3149333333333334
 20
1.968333333333334
 30
  0
 50
  0
 41
  1
 42
  1
 43
  1
  0
ATTRIB
  8
ASYTOP
 70
0
 72
0
  1
R1
  2
COMP_NAME
 10
-0.2491666666666667
 20
2.056766666666667
 30
  0
 40
0.03750000000000001
 50
  0
  0
SEQEND
  8
0
  0
INSERT
  8
COMPONENTS_TOP
  66
1
  2
footprint_RESISTOR__R2
 10
-0.1500000000000001
 20
1.424666666666667
 30
  0
 50
  0
 41
  1
 42
  1
 43
  1
  0
ATTRIB
  8
ASYTOP
 70
0
 72
0
  1
R2
  2
COMP_NAME
 10
0.07323333333333336
 20
1.2769
 30
  0
 40
0.03750000000000001
 50
  0
  0
SEQEND
  8
0
  0
INSERT
  8
COMPONENTS_TOP
  66
1
  2
footprint_RESISTOR_VAL_R3
 10
-0.4724000000000001
 20
2.047066666666667
 30
  0
 50
180
 41
  1
 42
  1
 43
  1
  0
ATTRIB
  8
SSTOP
 70
0
 72
0
  1
R3
  2
COMP_NAME
 10
-0.4829500000000001
 20
1.887683333333334
 30
  0
 40
0.03750000000000001
 50
180
  0
SEQEND
  8
0
  0
INSERT
  8
COMPONENTS_TOP
  66
1
  2
footprint_DIP_8_U1
 10
-0.6298666666666668
 20
1.495933333333334
 30
  0
 50
  0
 41
  1
 42
  1
 43
  1
  0
ATTRIB
  8
ASYTOP
 70
0
 72
0
  1
U1
  2
COMP_NAME
 10
-0.5418166666666668
 20
1.645950000000001
 30
  0
 40
0.03750000000000001
 50
  0
  0
SEQEND
  8
0
  0
POLYLINE
  8
BOTTOM
 66
1
 70
0
 40
0.03150000000000001
 41
0.03150000000000001
  0
VERTEX
  8
BOTTOM
 10
-0.01493333333333334
 20
1.968333333333334
  0
VERTEX
  8
BOTTOM
 10
-0.08280000000000003
 20
1.968333333333334
  0
VERTEX
  8
BOTTOM
 10
-0.1802000000000001
 20
1.870933333333334
  0
VERTEX
  8
BOTTOM
 10
-0.4548666666666668
 20
1.870933333333334
  0
VERTEX
  8
BOTTOM
 10
-0.5298666666666668
 20
1.795933333333334
  0
SEQEND
  8
BOTTOM
  0
POLYLINE
  8
BOTTOM
 66
1
 70
0
 40
0.03150000000000001
 41
0.03150000000000001
  0
VERTEX
  8
BOTTOM
 10
-0.6511333333333335
 20
1.259733333333334
  0
VERTEX
  8
BOTTOM
 10
-0.6298666666666668
 20
1.281
  0
VERTEX
  8
BOTTOM
 10
-0.6298666666666668
 20
1.495933333333334
  0
SEQEND
  8
BOTTOM
  0
POLYLINE
  8
BOTTOM
 66
1
 70
0
 40
0.03150000000000001
 41
0.03150000000000001
  0
VERTEX
  8
BOTTOM
 10
-0.3149333333333334
 20
1.968333333333334
  0
VERTEX
  8
BOTTOM
 10
-0.3936666666666668
 20
2.047066666666667
  0
VERTEX
  8
BOTTOM
 10
-0.4724000000000001
 20
2.047066666666667
  0
SEQEND
  8
BOTTOM
  0
POLYLINE
  8
BOTTOM
 66
1
 70
0
 40
0.03150000000000001
 41
0.03150000000000001
  0
VERTEX
  8
BOTTOM
 10
  0
 20
1.810866666666667
  0
VERTEX
  8
BOTTOM
 10
0.1100666666666667
 20
1.810866666666667
  0
VERTEX
  8
BOTTOM
 10
0.1500000000000001
 20
1.770933333333334
  0
VERTEX
  8
BOTTOM
 10
0.1500000000000001
 20
1.424666666666667
  0
SEQEND
  8
BOTTOM
  0
POLYLINE
  8
BOTTOM
 66
1
 70
0
 40
0.03150000000000001
 41
0.03150000000000001
  0
VERTEX
  8
BOTTOM
 10
-0.2362000000000001
 20
1.259733333333334
  0
VERTEX
  8
BOTTOM
 10
-0.4298666666666668
 20
1.453400000000001
  0
VERTEX
  8
BOTTOM
 10
-0.4298666666666668
 20
1.495933333333334
  0
SEQEND
  8
BOTTOM
  0
POLYLINE
  8
BOTTOM
 66
1
 70
0
 40
0.03150000000000001
 41
0.03150000000000001
  0
VERTEX
  8
BOTTOM
 10
-0.5298666666666668
 20
1.495933333333334
  0
VERTEX
  8
BOTTOM
 10
-0.4545333333333335
 20
1.571266666666667
  0
VERTEX
  8
BOTTOM
 10
-0.4298666666666668
 20
1.571266666666667
  0
VERTEX
  8
BOTTOM
 10
-0.4298666666666668
 20
1.795933333333334
  0
SEQEND
  8
BOTTOM
  0
POLYLINE
  8
BOTTOM
 66
1
 70
0
 40
0.03150000000000001
 41
0.03150000000000001
  0
VERTEX
  8
BOTTOM
 10
-0.1362
 20
1.259733333333334
  0
VERTEX
  8
BOTTOM
 10
-0.04140000000000001
 20
1.259733333333334
  0
VERTEX
  8
BOTTOM
 10
0.01980000000000001
 20
1.320933333333334
  0
VERTEX
  8
BOTTOM
 10
0.01980000000000001
 20
1.666066666666667
  0
VERTEX
  8
BOTTOM
 10
  0
 20
1.685866666666667
  0
SEQEND
  8
BOTTOM
  0
POLYLINE
  8
BOTTOM
 66
1
 70
0
 40
0.03150000000000001
 41
0.03150000000000001
  0
VERTEX
  8
BOTTOM
 10
-0.01493333333333334
 20
1.968333333333334
  0
VERTEX
  8
BOTTOM
 10
-0.08280000000000003
 20
1.968333333333334
  0
VERTEX
  8
BOTTOM
 10
-0.1802000000000001
 20
1.870933333333334
  0
VERTEX
  8
BOTTOM
 10
-0.1802000000000001
 20
1.601133333333334
  0
VERTEX
  8
BOTTOM
 10
-0.1500000000000001
 20
1.570933333333334
  0
VERTEX
  8
BOTTOM
 10
-0.1500000000000001
 20
1.424666666666667
  0
SEQEND
  8
BOTTOM
  0
POLYLINE
  8
BOTTOM
 66
1
 70
0
 40
0.03150000000000001
 41
0.03150000000000001
  0
VERTEX
  8
BOTTOM
 10
  0
 20
1.810866666666667
  0
VERTEX
  8
BOTTOM
 10
0.1100666666666667
 20
1.810866666666667
  0
VERTEX
  8
BOTTOM
 10
0.1500000000000001
 20
1.770933333333334
  0
VERTEX
  8
BOTTOM
 10
0.1500000000000001
 20
1.424666666666667
  0
SEQEND
  8
BOTTOM
  0
POLYLINE
  8
BOTTOM
 66
1
 70
0
 40
0.03150000000000001
 41
0.03150000000000001
  0
VERTEX
  8
BOTTOM
 10
-0.6298666666666668
 20
1.495933333333334
  0
VERTEX
  8
BOTTOM
 10
-0.6298666666666668
 20
1.420933333333334
  0
VERTEX
  8
BOTTOM
 10
-0.5802000000000002
 20
1.420933333333334
  0
VERTEX
  8
BOTTOM
 10
-0.3302000000000001
 20
1.170933333333334
  0
VERTEX
  8
BOTTOM
 10
-0.1893583333333334
 20
1.170933333333334
  0
VERTEX
  8
BOTTOM
 10
-0.1362
 20
1.224091666666667
  0
VERTEX
  8
BOTTOM
 10
-0.1362
 20
1.259733333333334
  0
SEQEND
  8
BOTTOM
  0
POLYLINE
  8
BOTTOM
 66
1
 70
0
 40
0.03150000000000001
 41
0.03150000000000001
  0
VERTEX
  8
BOTTOM
 10
-0.5298666666666668
 20
1.495933333333334
  0
VERTEX
  8
BOTTOM
 10
-0.4545333333333335
 20
1.571266666666667
  0
VERTEX
  8
BOTTOM
 10
-0.2805333333333334
 20
1.571266666666667
  0
VERTEX
  8
BOTTOM
 10
-0.2302000000000001
 20
1.520933333333334
  0
VERTEX
  8
BOTTOM
 10
-0.2302000000000001
 20
1.419933333333334
  0
VERTEX
  8
BOTTOM
 10
-0.1802000000000001
 20
1.369933333333334
  0
VERTEX
  8
BOTTOM
 10
-0.1212
 20
1.369933333333334
  0
VERTEX
  8
BOTTOM
 10
-0.08020000000000002
 20
1.410933333333334
  0
VERTEX
  8
BOTTOM
 10
-0.08020000000000002
 20
1.505933333333334
  0
VERTEX
  8
BOTTOM
 10
-0.1052
 20
1.530933333333334
  0
VERTEX
  8
BOTTOM
 10
-0.1052
 20
1.620933333333334
  0
VERTEX
  8
BOTTOM
 10
-0.1302
 20
1.645933333333334
  0
VERTEX
  8
BOTTOM
 10
-0.1302
 20
1.747866666666667
  0
VERTEX
  8
BOTTOM
 10
-0.06720000000000002
 20
1.810866666666667
  0
VERTEX
  8
BOTTOM
 10
  0
 20
1.810866666666667
  0
SEQEND
  8
BOTTOM
  0
POLYLINE
  8
BOTTOM
 66
1
 70
0
 40
0.03150000000000001
 41
0.03150000000000001
  0
VERTEX
  8
BOTTOM
 10
-0.6724000000000002
 20
2.047066666666667
  0
VERTEX
  8
BOTTOM
 10
-0.6020666666666669
 20
2.047066666666667
  0
VERTEX
  8
BOTTOM
 10
-0.5282000000000001
 20
2.120933333333334
  0
VERTEX
  8
BOTTOM
 10
0.01980000000000001
 20
2.120933333333334
  0
VERTEX
  8
BOTTOM
 10
0.2198000000000001
 20
1.920933333333334
  0
VERTEX
  8
BOTTOM
 10
0.2198000000000001
 20
1.365483333333334
  0
VERTEX
  8
BOTTOM
 10
0.12525
 20
1.365483333333334
  0
VERTEX
  8
BOTTOM
 10
0.06980000000000002
 20
1.420933333333334
  0
VERTEX
  8
BOTTOM
 10
0.06980000000000002
 20
1.718933333333334
  0
VERTEX
  8
BOTTOM
 10
0.04280000000000001
 20
1.745933333333334
  0
VERTEX
  8
BOTTOM
 10
-0.02820000000000001
 20
1.745933333333334
  0
VERTEX
  8
BOTTOM
 10
-0.08020000000000002
 20
1.693933333333334
  0
VERTEX
  8
BOTTOM
 10
-0.08020000000000002
 20
1.661933333333334
  0
VERTEX
  8
BOTTOM
 10
-0.03020000000000001
 20
1.611933333333334
  0
VERTEX
  8
BOTTOM
 10
-0.03020000000000001
 20
1.346933333333334
  0
VERTEX
  8
BOTTOM
 10
-0.05120000000000001
 20
1.325933333333334
  0
VERTEX
  8
BOTTOM
 10
-0.2302000000000001
 20
1.325933333333334
  0
VERTEX
  8
BOTTOM
 10
-0.3298666666666668
 20
1.4256
  0
VERTEX
  8
BOTTOM
 10
-0.3298666666666668
 20
1.495933333333334
  0
SEQEND
  8
BOTTOM
  0
POLYLINE
  8
BOTTOM
 66
1
 70
0
 40
0.03150000000000001
 41
0.03150000000000001
  0
VERTEX
  8
BOTTOM
 10
-0.6724000000000002
 20
2.047066666666667
  0
VERTEX
  8
BOTTOM
 10
-0.6020666666666669
 20
2.047066666666667
  0
VERTEX
  8
BOTTOM
 10
-0.5282000000000001
 20
2.120933333333334
  0
VERTEX
  8
BOTTOM
 10
0.01980000000000001
 20
2.120933333333334
  0
VERTEX
  8
BOTTOM
 10
0.2198000000000001
 20
1.920933333333334
  0
VERTEX
  8
BOTTOM
 10
0.2198000000000001
 20
1.161316666666667
  0
VERTEX
  8
BOTTOM
 10
0.1804333333333334
 20
1.12195
  0
VERTEX
  8
BOTTOM
 10
-0.4133500000000001
 20
1.12195
  0
VERTEX
  8
BOTTOM
 10
-0.5511333333333335
 20
1.259733333333334
  0
SEQEND
  8
BOTTOM
  0
POLYLINE
  8
BOTTOM
 66
1
 70
0
 40
0.03150000000000001
 41
0.03150000000000001
  0
VERTEX
  8
BOTTOM
 10
-0.6724000000000002
 20
2.047066666666667
  0
VERTEX
  8
BOTTOM
 10
-0.6020666666666669
 20
2.047066666666667
  0
VERTEX
  8
BOTTOM
 10
-0.6020666666666669
 20
1.976733333333334
  0
VERTEX
  8
BOTTOM
 10
-0.5724000000000001
 20
1.947066666666667
  0
SEQEND
  8
BOTTOM
  0
POLYLINE
  8
BOTTOM
 66
1
 70
0
 40
0.03150000000000001
 41
0.03150000000000001
  0
VERTEX
  8
BOTTOM
 10
-0.5724000000000001
 20
1.947066666666667
  0
VERTEX
  8
BOTTOM
 10
-0.6298666666666668
 20
1.8896
  0
VERTEX
  8
BOTTOM
 10
-0.6298666666666668
 20
1.795933333333334
  0
SEQEND
  8
BOTTOM
  0
POLYLINE
  8
GLOBAL_LAYER
 66
1
 70
0
 40
0.0
 41
0.0
  0
VERTEX
  8
GLOBAL_LAYER
 10
-0.6724000000000002
 20
2.047066666666667
  0
VERTEX
  8
GLOBAL_LAYER
 10
-0.6724000000000002
 20
2.063933333333334
  0
SEQEND
  8
GLOBAL_LAYER
  0
POLYLINE
  8
BOTTOM
 66
1
 70
0
 40
0.03150000000000001
 41
0.03150000000000001
  0
VERTEX
  8
BOTTOM
 10
-0.6724000000000002
 20
2.063933333333334
  0
VERTEX
  8
BOTTOM
 10
-0.6724000000000002
 20
2.047066666666667
  0
SEQEND
  8
BOTTOM
  0
TEXT
  8
BOTTOM
 72
0
 10
  0
 20
1.220366666666667
 30
  0
 40
0.05625000000000002
 50
  0
  1
-
  0
TEXT
  8
BOTTOM
 72
0
 10
-0.3543000000000001
 20
1.220366666666667
 30
  0
 40
0.05625000000000002
 50
  0
  1
+
  0
TEXT
  8
BOTTOM
 72
0
 10
-0.6692333333333335
 20
1.141633333333334
 30
  0
 40
0.05625000000000002
 50
  0
  1
-
  0
TEXT
  8
BOTTOM
 72
0
 10
-0.5314500000000001
 20
1.141633333333334
 30
  0
 40
0.05625000000000002
 50
  0
 71
2
  1
c
  0
TEXT
  8
BOTTOM
 72
0
 10
-0.5708166666666669
 20
2.086433333333334
 30
  0
 40
0.05625000000000002
 50
  0
 71
2
  1
Aj.
  0
TEXT
  8
ASYTOP
 72
0
 10
  0
 20
1.24005
 30
  0
 40
0.05625000000000002
 50
  0
  1
-
  0
TEXT
  8
ASYTOP
 72
0
 10
0.05905000000000001
 20
1.24005
 30
  0
 40
0.05625000000000002
 50
  0
  1
-
  0
TEXT
  8
BOTTOM
 72
0
 10
0.1574666666666667
 20
1.161316666666667
 30
  0
 40
0.05625000000000002
 50
  0
 71
2
  1
clock
  0
TEXT
  8
DRLDWG
 72
0
 10
1.347925
 20
-0.175
 30
  0
 40
0.1125
 50
  0
  1
DRILL CHART
  0
TEXT
  8
DRLDWG
 72
0
 10
0.05000000000000001
 20
-0.3750000000000001
 30
  0
 40
0.1125
 50
  0
  1
SYM
  0
TEXT
  8
DRLDWG
 72
0
 10
0.6154166666666668
 20
-0.3750000000000001
 30
  0
 40
0.1125
 50
  0
  1
DIAM
  0
TEXT
  8
DRLDWG
 72
0
 10
1.484166666666667
 20
-0.3750000000000001
 30
  0
 40
0.1125
 50
  0
  1
TOL
  0
TEXT
  8
DRLDWG
 72
0
 10
2.160833333333334
 20
-0.3750000000000001
 30
  0
 40
0.1125
 50
  0
  1
QTY
  0
TEXT
  8
DRLDWG
 72
0
 10
2.967908333333334
 20
-0.3750000000000001
 30
  0
 40
0.1125
 50
  0
  1
NOTE
  0
TEXT
  8
DRLDWG
 72
0
 10
0.5886250000000002
 20
-0.5250000000000001
 30
  0
 40
0.07500000000000003
 50
  0
  1
0.711 mm
  0
TEXT
  8
DRLDWG
 72
0
 10
2.420833333333334
 20
-0.5250000000000001
 30
  0
 40
0.07500000000000003
 50
  0
  1
4
  0
TEXT
  8
DRLDWG
 72
0
 10
0.5663916666666669
 20
-0.6750000000000002
 30
  0
 40
0.07500000000000003
 50
  0
  1
0.787 mm
  0
TEXT
  8
DRLDWG
 72
0
 10
2.420833333333334
 20
-0.6750000000000002
 30
  0
 40
0.07500000000000003
 50
  0
  1
2
  0
TEXT
  8
DRLDWG
 72
0
 10
0.5663916666666669
 20
-0.8250000000000002
 30
  0
 40
0.07500000000000003
 50
  0
  1
0.864 mm
  0
TEXT
  8
DRLDWG
 72
0
 10
2.420833333333334
 20
-0.8250000000000002
 30
  0
 40
0.07500000000000003
 50
  0
  1
8
  0
TEXT
  8
DRLDWG
 72
0
 10
0.5775083333333335
 20
-0.9750000000000002
 30
  0
 40
0.07500000000000003
 50
  0
  1
1.067 mm
  0
TEXT
  8
DRLDWG
 72
0
 10
2.420833333333334
 20
-0.9750000000000002
 30
  0
 40
0.07500000000000003
 50
  0
  1
4
  0
TEXT
  8
DRLDWG
 72
0
 10
0.5775083333333335
 20
-1.125
 30
  0
 40
0.07500000000000003
 50
  0
  1
1.549 mm
  0
TEXT
  8
DRLDWG
 72
0
 10
2.431950000000001
 20
-1.125
 30
  0
 40
0.07500000000000003
 50
  0
  1
1
  0
TEXT
  8
DRLDWG
 72
0
 10
0.5775083333333335
 20
-1.275
 30
  0
 40
0.07500000000000003
 50
  0
  1
1.676 mm
  0
TEXT
  8
DRLDWG
 72
0
 10
2.420833333333334
 20
-1.275
 30
  0
 40
0.07500000000000003
 50
  0
  1
2
  0
TEXT
  8
DRLDWG
 72
0
 10
0.7845833333333335
 20
-1.475
 30
  0
 40
0.1125
 50
  0
  1
TOTAL
  0
TEXT
  8
DRLDWG
 72
0
 10
2.317508333333334
 20
-1.475
 30
  0
 40
0.1125
 50
  0
  1
21
  0
TEXT
  8
TOP
 72
0
 10
-0.3595333333333334
 20
0.8751166666666669
 30
  0
 40
0.05625000000000002
 50
  0
  1
25.00
  0
POLYLINE
  8
OBS_ASYTOP
 66
1
 70
0
 40
0.008000000000000002
 41
0.008000000000000002
  0
VERTEX
  8
OBS_ASYTOP
 10
0.07500000000000003
 20
1.374666666666667
  0
VERTEX
  8
OBS_ASYTOP
 10
0.07500000000000003
 20
1.474666666666667
  0
VERTEX
  8
OBS_ASYTOP
 10
0.07500000000000003
 20
1.474666666666667
  0
VERTEX
  8
OBS_ASYTOP
 10
-0.07500000000000003
 20
1.474666666666667
  0
VERTEX
  8
OBS_ASYTOP
 10
-0.07500000000000003
 20
1.374666666666667
  0
VERTEX
  8
OBS_ASYTOP
 10
0.07500000000000003
 20
1.374666666666667
  0
SEQEND
  8
OBS_ASYTOP
  0
POLYLINE
  8
OBS_GLOBAL_LAYER
 66
1
 39
0.001
 70
1
 40
8.333333333333335e-006
 41
8.333333333333335e-006
  0
VERTEX
  8
OBS_GLOBAL_LAYER
 10
-0.4309000000000001
 20
2.101066666666667
  0
VERTEX
  8
OBS_GLOBAL_LAYER
 10
-0.7139000000000002
 20
2.101066666666667
  0
VERTEX
  8
OBS_GLOBAL_LAYER
 10
-0.7139000000000002
 20
1.893066666666667
  0
VERTEX
  8
OBS_GLOBAL_LAYER
 10
-0.4309000000000001
 20
1.893066666666667
  0
VERTEX
  8
OBS_GLOBAL_LAYER
 10
-0.4309000000000001
 20
2.101066666666667
  0
SEQEND
  8
OBS_GLOBAL_LAYER
  0
POLYLINE
  8
OBS_SSTOP
 66
1
 70
0
 40
0.008000000000000002
 41
0.008000000000000002
  0
VERTEX
  8
OBS_SSTOP
 10
-0.4974000000000001
 20
1.947066666666667
  0
VERTEX
  8
OBS_SSTOP
 10
-0.4474000000000001
 20
1.947066666666667
  0
SEQEND
  8
OBS_SSTOP
  0
POLYLINE
  8
OBS_ASYTOP
 66
1
 70
0
 40
0.008000000000000002
 41
0.008000000000000002
  0
VERTEX
  8
OBS_ASYTOP
 10
-0.4974000000000001
 20
1.947066666666667
  0
VERTEX
  8
OBS_ASYTOP
 10
-0.4474000000000001
 20
1.947066666666667
  0
SEQEND
  8
OBS_ASYTOP
  0
POLYLINE
  8
OBS_SSTOP
 66
1
 70
0
 40
0.008000000000000002
 41
0.008000000000000002
  0
VERTEX
  8
OBS_SSTOP
 10
-0.4349000000000001
 20
2.097066666666667
  0
VERTEX
  8
OBS_SSTOP
 10
-0.7099000000000002
 20
2.097066666666667
  0
SEQEND
  8
OBS_SSTOP
  0
POLYLINE
  8
OBS_ASYTOP
 66
1
 70
0
 40
0.008000000000000002
 41
0.008000000000000002
  0
VERTEX
  8
OBS_ASYTOP
 10
-0.4349000000000001
 20
2.097066666666667
  0
VERTEX
  8
OBS_ASYTOP
 10
-0.7099000000000002
 20
2.097066666666667
  0
SEQEND
  8
OBS_ASYTOP
  0
POLYLINE
  8
OBS_SSTOP
 66
1
 70
0
 40
0.008000000000000002
 41
0.008000000000000002
  0
VERTEX
  8
OBS_SSTOP
 10
-0.7099000000000002
 20
2.009566666666667
  0
VERTEX
  8
OBS_SSTOP
 10
-0.7099000000000002
 20
1.897066666666667
  0
VERTEX
  8
OBS_SSTOP
 10
-0.4349000000000001
 20
1.897066666666667
  0
VERTEX
  8
OBS_SSTOP
 10
-0.4349000000000001
 20
1.997066666666667
  0
SEQEND
  8
OBS_SSTOP
  0
POLYLINE
  8
OBS_ASYTOP
 66
1
 70
0
 40
0.008000000000000002
 41
0.008000000000000002
  0
VERTEX
  8
OBS_ASYTOP
 10
-0.7099000000000002
 20
2.009566666666667
  0
VERTEX
  8
OBS_ASYTOP
 10
-0.7099000000000002
 20
1.897066666666667
  0
VERTEX
  8
OBS_ASYTOP
 10
-0.4349000000000001
 20
1.897066666666667
  0
VERTEX
  8
OBS_ASYTOP
 10
-0.4349000000000001
 20
1.997066666666667
  0
SEQEND
  8
OBS_ASYTOP
  0
POLYLINE
  8
OBS_GLOBAL_LAYER
 66
1
 39
0.001
 70
1
 40
8.333333333333335e-006
 41
8.333333333333335e-006
  0
VERTEX
  8
OBS_GLOBAL_LAYER
 10
-0.2952000000000001
 20
1.205733333333334
  0
VERTEX
  8
OBS_GLOBAL_LAYER
 10
-0.07720000000000002
 20
1.205733333333334
  0
VERTEX
  8
OBS_GLOBAL_LAYER
 10
-0.07720000000000002
 20
1.313733333333334
  0
VERTEX
  8
OBS_GLOBAL_LAYER
 10
-0.2952000000000001
 20
1.313733333333334
  0
VERTEX
  8
OBS_GLOBAL_LAYER
 10
-0.2952000000000001
 20
1.205733333333334
  0
SEQEND
  8
OBS_GLOBAL_LAYER
  0
POLYLINE
  8
OBS_SSTOP
 66
1
 70
0
 40
0.008000000000000002
 41
0.008000000000000002
  0
VERTEX
  8
OBS_SSTOP
 10
-0.08120000000000002
 20
1.209733333333334
  0
VERTEX
  8
OBS_SSTOP
 10
-0.1362
 20
1.209733333333334
  0
VERTEX
  8
OBS_SSTOP
 10
-0.2362000000000001
 20
1.209733333333334
  0
VERTEX
  8
OBS_SSTOP
 10
-0.2912000000000001
 20
1.209733333333334
  0
VERTEX
  8
OBS_SSTOP
 10
-0.2912000000000001
 20
1.309733333333334
  0
VERTEX
  8
OBS_SSTOP
 10
-0.08120000000000002
 20
1.309733333333334
  0
VERTEX
  8
OBS_SSTOP
 10
-0.08120000000000002
 20
1.209733333333334
 42
-1.507931040694004
  0
SEQEND
  8
OBS_SSTOP
  0
POLYLINE
  8
OBS_ASYTOP
 66
1
 70
0
 40
0.008000000000000002
 41
0.008000000000000002
  0
VERTEX
  8
OBS_ASYTOP
 10
-0.08120000000000002
 20
1.209733333333334
  0
VERTEX
  8
OBS_ASYTOP
 10
-0.1362
 20
1.209733333333334
  0
VERTEX
  8
OBS_ASYTOP
 10
-0.2362000000000001
 20
1.209733333333334
  0
VERTEX
  8
OBS_ASYTOP
 10
-0.2912000000000001
 20
1.209733333333334
  0
VERTEX
  8
OBS_ASYTOP
 10
-0.2912000000000001
 20
1.309733333333334
  0
VERTEX
  8
OBS_ASYTOP
 10
-0.08120000000000002
 20
1.309733333333334
  0
VERTEX
  8
OBS_ASYTOP
 10
-0.08120000000000002
 20
1.209733333333334
 42
-1.507931040694004
  0
SEQEND
  8
OBS_ASYTOP
  0
POLYLINE
  8
OBS_GLOBAL_LAYER
 66
1
 39
0.001
 70
1
 40
8.333333333333335e-006
 41
8.333333333333335e-006
  0
VERTEX
  8
OBS_GLOBAL_LAYER
 10
-0.4921333333333335
 20
1.313733333333334
  0
VERTEX
  8
OBS_GLOBAL_LAYER
 10
-0.7101333333333335
 20
1.313733333333334
  0
VERTEX
  8
OBS_GLOBAL_LAYER
 10
-0.7101333333333335
 20
1.205733333333334
  0
VERTEX
  8
OBS_GLOBAL_LAYER
 10
-0.4921333333333335
 20
1.205733333333334
  0
VERTEX
  8
OBS_GLOBAL_LAYER
 10
-0.4921333333333335
 20
1.313733333333334
  0
SEQEND
  8
OBS_GLOBAL_LAYER
  0
POLYLINE
  8
OBS_SSTOP
 66
1
 70
0
 40
0.008000000000000002
 41
0.008000000000000002
  0
VERTEX
  8
OBS_SSTOP
 10
-0.7061333333333335
 20
1.309733333333334
  0
VERTEX
  8
OBS_SSTOP
 10
-0.6511333333333335
 20
1.309733333333334
  0
VERTEX
  8
OBS_SSTOP
 10
-0.5511333333333335
 20
1.309733333333334
  0
VERTEX
  8
OBS_SSTOP
 10
-0.4961333333333335
 20
1.309733333333334
  0
VERTEX
  8
OBS_SSTOP
 10
-0.4961333333333335
 20
1.209733333333334
  0
VERTEX
  8
OBS_SSTOP
 10
-0.7061333333333335
 20
1.209733333333334
  0
VERTEX
  8
OBS_SSTOP
 10
-0.7061333333333335
 20
1.309733333333334
 42
-1.518463978676945
  0
SEQEND
  8
OBS_SSTOP
  0
POLYLINE
  8
OBS_ASYTOP
 66
1
 70
0
 40
0.008000000000000002
 41
0.008000000000000002
  0
VERTEX
  8
OBS_ASYTOP
 10
-0.7061333333333335
 20
1.309733333333334
  0
VERTEX
  8
OBS_ASYTOP
 10
-0.6511333333333335
 20
1.309733333333334
  0
VERTEX
  8
OBS_ASYTOP
 10
-0.5511333333333335
 20
1.309733333333334
  0
VERTEX
  8
OBS_ASYTOP
 10
-0.4961333333333335
 20
1.309733333333334
  0
VERTEX
  8
OBS_ASYTOP
 10
-0.4961333333333335
 20
1.209733333333334
  0
VERTEX
  8
OBS_ASYTOP
 10
-0.7061333333333335
 20
1.209733333333334
  0
VERTEX
  8
OBS_ASYTOP
 10
-0.7061333333333335
 20
1.309733333333334
 42
-1.518463978676945
  0
SEQEND
  8
OBS_ASYTOP
  0
POLYLINE
  8
OBS_ASYTOP
 66
1
 70
0
 40
0.008000000000000002
 41
0.008000000000000002
  0
VERTEX
  8
OBS_ASYTOP
 10
-0.6798666666666668
 20
1.745933333333334
  0
VERTEX
  8
OBS_ASYTOP
 10
-0.6798666666666668
 20
1.545933333333334
  0
VERTEX
  8
OBS_ASYTOP
 10
-0.2798666666666668
 20
1.545933333333334
  0
VERTEX
  8
OBS_ASYTOP
 10
-0.2798666666666668
 20
1.745933333333334
  0
VERTEX
  8
OBS_ASYTOP
 10
-0.6798666666666668
 20
1.745933333333334
  0
SEQEND
  8
OBS_ASYTOP
  0
POLYLINE
  8
OBS_GLOBAL_LAYER
 66
1
 39
0.001
 70
1
 40
8.333333333333335e-006
 41
8.333333333333335e-006
  0
VERTEX
  8
OBS_GLOBAL_LAYER
 10
-0.6838666666666668
 20
1.441933333333334
  0
VERTEX
  8
OBS_GLOBAL_LAYER
 10
-0.2758666666666668
 20
1.441933333333334
  0
VERTEX
  8
OBS_GLOBAL_LAYER
 10
-0.2758666666666668
 20
1.849933333333334
  0
VERTEX
  8
OBS_GLOBAL_LAYER
 10
-0.6838666666666668
 20
1.849933333333334
  0
VERTEX
  8
OBS_GLOBAL_LAYER
 10
-0.6838666666666668
 20
1.441933333333334
  0
SEQEND
  8
OBS_GLOBAL_LAYER
  0
POLYLINE
  8
OBS_SSTOP
 66
1
 70
0
 40
0.008000000000000002
 41
0.008000000000000002
  0
VERTEX
  8
OBS_SSTOP
 10
-0.6798666666666668
 20
1.595933333333334
  0
VERTEX
  8
OBS_SSTOP
 10
-0.6548666666666668
 20
1.595933333333334
  0
VERTEX
  8
OBS_SSTOP
 10
-0.6548666666666668
 20
1.695933333333334
  0
VERTEX
  8
OBS_SSTOP
 10
-0.6798666666666668
 20
1.695933333333334
  0
SEQEND
  8
OBS_SSTOP
  0
POLYLINE
  8
OBS_SSTOP
 66
1
 70
0
 40
0.008000000000000002
 41
0.008000000000000002
  0
VERTEX
  8
OBS_SSTOP
 10
-0.6798666666666668
 20
1.745933333333334
  0
VERTEX
  8
OBS_SSTOP
 10
-0.6798666666666668
 20
1.545933333333334
  0
VERTEX
  8
OBS_SSTOP
 10
-0.2798666666666668
 20
1.545933333333334
  0
VERTEX
  8
OBS_SSTOP
 10
-0.2798666666666668
 20
1.745933333333334
  0
VERTEX
  8
OBS_SSTOP
 10
-0.6798666666666668
 20
1.745933333333334
  0
SEQEND
  8
OBS_SSTOP
  0
POLYLINE
  8
OBS_ASYTOP
 66
1
 70
0
 40
0.008000000000000002
 41
0.008000000000000002
  0
VERTEX
  8
OBS_ASYTOP
 10
-0.6798666666666668
 20
1.595933333333334
  0
VERTEX
  8
OBS_ASYTOP
 10
-0.6548666666666668
 20
1.595933333333334
  0
VERTEX
  8
OBS_ASYTOP
 10
-0.6548666666666668
 20
1.695933333333334
  0
VERTEX
  8
OBS_ASYTOP
 10
-0.6798666666666668
 20
1.695933333333334
  0
SEQEND
  8
OBS_ASYTOP
  0
POLYLINE
  8
OBS_GLOBAL_LAYER
 66
1
 39
0.001
 70
1
 40
8.333333333333335e-006
 41
8.333333333333335e-006
  0
VERTEX
  8
OBS_GLOBAL_LAYER
 10
-0.3524333333333334
 20
1.914333333333334
  0
VERTEX
  8
OBS_GLOBAL_LAYER
 10
0.02256666666666667
 20
1.914333333333334
  0
VERTEX
  8
OBS_GLOBAL_LAYER
 10
0.02256666666666667
 20
2.022333333333334
  0
VERTEX
  8
OBS_GLOBAL_LAYER
 10
-0.3524333333333334
 20
2.022333333333334
  0
VERTEX
  8
OBS_GLOBAL_LAYER
 10
-0.3524333333333334
 20
1.914333333333334
  0
SEQEND
  8
OBS_GLOBAL_LAYER
  0
POLYLINE
  8
OBS_SSTOP
 66
1
 70
0
 40
0.008000000000000002
 41
0.008000000000000002
  0
VERTEX
  8
OBS_SSTOP
 10
-0.2399333333333334
 20
1.968333333333334
  0
VERTEX
  8
OBS_SSTOP
 10
-0.2774333333333334
 20
1.968333333333334
  0
SEQEND
  8
OBS_SSTOP
  0
POLYLINE
  8
OBS_ASYTOP
 66
1
 70
0
 40
0.008000000000000002
 41
0.008000000000000002
  0
VERTEX
  8
OBS_ASYTOP
 10
-0.2399333333333334
 20
1.968333333333334
  0
VERTEX
  8
OBS_ASYTOP
 10
-0.2774333333333334
 20
1.968333333333334
  0
SEQEND
  8
OBS_ASYTOP
  0
POLYLINE
  8
OBS_SSTOP
 66
1
 70
0
 40
0.008000000000000002
 41
0.008000000000000002
  0
VERTEX
  8
OBS_SSTOP
 10
-0.08993333333333335
 20
1.968333333333334
  0
VERTEX
  8
OBS_SSTOP
 10
-0.05243333333333335
 20
1.968333333333334
  0
SEQEND
  8
OBS_SSTOP
  0
POLYLINE
  8
OBS_ASYTOP
 66
1
 70
0
 40
0.008000000000000002
 41
0.008000000000000002
  0
VERTEX
  8
OBS_ASYTOP
 10
-0.08993333333333335
 20
1.968333333333334
  0
VERTEX
  8
OBS_ASYTOP
 10
-0.05243333333333335
 20
1.968333333333334
  0
SEQEND
  8
OBS_ASYTOP
  0
POLYLINE
  8
OBS_SSTOP
 66
1
 70
0
 40
0.008000000000000002
 41
0.008000000000000002
  0
VERTEX
  8
OBS_SSTOP
 10
-0.08993333333333335
 20
1.918333333333334
  0
VERTEX
  8
OBS_SSTOP
 10
-0.08993333333333335
 20
2.018333333333334
  0
VERTEX
  8
OBS_SSTOP
 10
-0.08993333333333335
 20
2.018333333333334
  0
VERTEX
  8
OBS_SSTOP
 10
-0.2399333333333334
 20
2.018333333333334
  0
VERTEX
  8
OBS_SSTOP
 10
-0.2399333333333334
 20
1.918333333333334
  0
VERTEX
  8
OBS_SSTOP
 10
-0.08993333333333335
 20
1.918333333333334
  0
SEQEND
  8
OBS_SSTOP
  0
POLYLINE
  8
OBS_ASYTOP
 66
1
 70
0
 40
0.008000000000000002
 41
0.008000000000000002
  0
VERTEX
  8
OBS_ASYTOP
 10
-0.08993333333333335
 20
1.918333333333334
  0
VERTEX
  8
OBS_ASYTOP
 10
-0.08993333333333335
 20
2.018333333333334
  0
VERTEX
  8
OBS_ASYTOP
 10
-0.08993333333333335
 20
2.018333333333334
  0
VERTEX
  8
OBS_ASYTOP
 10
-0.2399333333333334
 20
2.018333333333334
  0
VERTEX
  8
OBS_ASYTOP
 10
-0.2399333333333334
 20
1.918333333333334
  0
VERTEX
  8
OBS_ASYTOP
 10
-0.08993333333333335
 20
1.918333333333334
  0
SEQEND
  8
OBS_ASYTOP
  0
POLYLINE
  8
OBS_GLOBAL_LAYER
 66
1
 39
0.001
 70
1
 40
8.333333333333335e-006
 41
8.333333333333335e-006
  0
VERTEX
  8
OBS_GLOBAL_LAYER
 10
-0.1875000000000001
 20
1.370666666666667
  0
VERTEX
  8
OBS_GLOBAL_LAYER
 10
0.1875000000000001
 20
1.370666666666667
  0
VERTEX
  8
OBS_GLOBAL_LAYER
 10
0.1875000000000001
 20
1.478666666666667
  0
VERTEX
  8
OBS_GLOBAL_LAYER
 10
-0.1875000000000001
 20
1.478666666666667
  0
VERTEX
  8
OBS_GLOBAL_LAYER
 10
-0.1875000000000001
 20
1.370666666666667
  0
SEQEND
  8
OBS_GLOBAL_LAYER
  0
POLYLINE
  8
OBS_SSTOP
 66
1
 70
0
 40
0.008000000000000002
 41
0.008000000000000002
  0
VERTEX
  8
OBS_SSTOP
 10
-0.07500000000000003
 20
1.424666666666667
  0
VERTEX
  8
OBS_SSTOP
 10
-0.1125
 20
1.424666666666667
  0
SEQEND
  8
OBS_SSTOP
  0
POLYLINE
  8
OBS_ASYTOP
 66
1
 70
0
 40
0.008000000000000002
 41
0.008000000000000002
  0
VERTEX
  8
OBS_ASYTOP
 10
-0.07500000000000003
 20
1.424666666666667
  0
VERTEX
  8
OBS_ASYTOP
 10
-0.1125
 20
1.424666666666667
  0
SEQEND
  8
OBS_ASYTOP
  0
POLYLINE
  8
OBS_SSTOP
 66
1
 70
0
 40
0.008000000000000002
 41
0.008000000000000002
  0
VERTEX
  8
OBS_SSTOP
 10
0.07500000000000003
 20
1.424666666666667
  0
VERTEX
  8
OBS_SSTOP
 10
0.1125
 20
1.424666666666667
  0
SEQEND
  8
OBS_SSTOP
  0
POLYLINE
  8
OBS_ASYTOP
 66
1
 70
0
 40
0.008000000000000002
 41
0.008000000000000002
  0
VERTEX
  8
OBS_ASYTOP
 10
0.07500000000000003
 20
1.424666666666667
  0
VERTEX
  8
OBS_ASYTOP
 10
0.1125
 20
1.424666666666667
  0
SEQEND
  8
OBS_ASYTOP
  0
POLYLINE
  8
OBS_SSTOP
 66
1
 70
0
 40
0.008000000000000002
 41
0.008000000000000002
  0
VERTEX
  8
OBS_SSTOP
 10
0.07500000000000003
 20
1.374666666666667
  0
VERTEX
  8
OBS_SSTOP
 10
0.07500000000000003
 20
1.474666666666667
  0
VERTEX
  8
OBS_SSTOP
 10
0.07500000000000003
 20
1.474666666666667
  0
VERTEX
  8
OBS_SSTOP
 10
-0.07500000000000003
 20
1.474666666666667
  0
VERTEX
  8
OBS_SSTOP
 10
-0.07500000000000003
 20
1.374666666666667
  0
VERTEX
  8
OBS_SSTOP
 10
0.07500000000000003
 20
1.374666666666667
  0
SEQEND
  8
OBS_SSTOP
  0
POLYLINE
  8
BOARD_OUTLINE
 66
1
 70
0
 40
0.01968333333333334
 41
0.01968333333333334
  0
VERTEX
  8
BOARD_OUTLINE
 10
-0.7282833333333335
 20
1.043216666666667
  0
VERTEX
  8
BOARD_OUTLINE
 10
-0.7282833333333335
 20
2.18485
  0
VERTEX
  8
BOARD_OUTLINE
 10
0.2558833333333334
 20
2.18485
  0
VERTEX
  8
BOARD_OUTLINE
 10
0.2558833333333334
 20
1.043216666666667
  0
VERTEX
  8
BOARD_OUTLINE
 10
-0.7282833333333335
 20
1.043216666666667
  0
SEQEND
  8
BOARD_OUTLINE
  0
POLYLINE
  8
OBS_ASYTOP
 66
1
 70
0
 40
0.008000000000000002
 41
0.008000000000000002
  0
VERTEX
  8
OBS_ASYTOP
 10
  0
 20
1.860866666666667
 42
-0.414213562373095
  0
VERTEX
  8
OBS_ASYTOP
 10
0.1125
 20
1.748366666666667
 42
-0.414213562373095
  0
VERTEX
  8
OBS_ASYTOP
 10
  0
 20
1.635866666666667
 42
-0.414213562373095
  0
VERTEX
  8
OBS_ASYTOP
 10
-0.1125
 20
1.748366666666667
 42
-0.414213562373095
  0
VERTEX
  8
OBS_ASYTOP
 10
  0
 20
1.860866666666667
  0
SEQEND
  8
OBS_ASYTOP
  0
POLYLINE
  8
OBS_GLOBAL_LAYER
 66
1
 39
0.001
 70
1
 40
8.333333333333335e-006
 41
8.333333333333335e-006
  0
VERTEX
  8
OBS_GLOBAL_LAYER
 10
-0.1165
 20
1.864866666666667
  0
VERTEX
  8
OBS_GLOBAL_LAYER
 10
-0.1165
 20
1.631866666666667
  0
VERTEX
  8
OBS_GLOBAL_LAYER
 10
0.1165
 20
1.631866666666667
  0
VERTEX
  8
OBS_GLOBAL_LAYER
 10
0.1165
 20
1.864866666666667
  0
VERTEX
  8
OBS_GLOBAL_LAYER
 10
-0.1165
 20
1.864866666666667
 42
-5.027339492125841
  0
SEQEND
  8
OBS_GLOBAL_LAYER
  0
POLYLINE
  8
OBS_SSTOP
 66
1
 70
0
 40
0.008000000000000002
 41
0.008000000000000002
  0
VERTEX
  8
OBS_SSTOP
 10
  0
 20
1.860866666666667
 42
-0.414213562373095
  0
VERTEX
  8
OBS_SSTOP
 10
0.1125
 20
1.748366666666667
 42
-0.414213562373095
  0
VERTEX
  8
OBS_SSTOP
 10
  0
 20
1.635866666666667
 42
-0.414213562373095
  0
VERTEX
  8
OBS_SSTOP
 10
-0.1125
 20
1.748366666666667
 42
-0.414213562373095
  0
VERTEX
  8
OBS_SSTOP
 10
  0
 20
1.860866666666667
  0
SEQEND
  8
OBS_SSTOP
  0
POLYLINE
  8
OBS_DRLDWG
 66
1
 70
0
 40
0.01
 41
0.01
  0
VERTEX
  8
OBS_DRLDWG
 10
  0
 20
  0
  0
VERTEX
  8
OBS_DRLDWG
 10
  0
 20
-1.5
  0
SEQEND
  8
OBS_DRLDWG
  0
POLYLINE
  8
OBS_DRLDWG
 66
1
 70
0
 40
0.01
 41
0.01
  0
VERTEX
  8
OBS_DRLDWG
 10
-0.005000000000000001
 20
  0
  0
VERTEX
  8
OBS_DRLDWG
 10
-0.005000000000000001
 20
-1.5
  0
SEQEND
  8
OBS_DRLDWG
  0
POLYLINE
  8
OBS_DRLDWG
 66
1
 70
0
 40
0.01
 41
0.01
  0
VERTEX
  8
OBS_DRLDWG
 10
0.3650000000000001
 20
-0.2
  0
VERTEX
  8
OBS_DRLDWG
 10
0.3650000000000001
 20
-1.3
  0
SEQEND
  8
OBS_DRLDWG
  0
POLYLINE
  8
OBS_DRLDWG
 66
1
 70
0
 40
0.01
 41
0.01
  0
VERTEX
  8
OBS_DRLDWG
 10
0.3700000000000001
 20
-0.2
  0
VERTEX
  8
OBS_DRLDWG
 10
0.3700000000000001
 20
-1.3
  0
SEQEND
  8
OBS_DRLDWG
  0
POLYLINE
  8
OBS_DRLDWG
 66
1
 70
0
 40
0.01
 41
0.01
  0
VERTEX
  8
OBS_DRLDWG
 10
1.209166666666667
 20
-0.2
  0
VERTEX
  8
OBS_DRLDWG
 10
1.209166666666667
 20
-1.3
  0
SEQEND
  8
OBS_DRLDWG
  0
POLYLINE
  8
OBS_DRLDWG
 66
1
 70
0
 40
0.01
 41
0.01
  0
VERTEX
  8
OBS_DRLDWG
 10
2.015833333333334
 20
-0.2
  0
VERTEX
  8
OBS_DRLDWG
 10
2.015833333333334
 20
-1.5
  0
SEQEND
  8
OBS_DRLDWG
  0
POLYLINE
  8
OBS_DRLDWG
 66
1
 70
0
 40
0.01
 41
0.01
  0
VERTEX
  8
OBS_DRLDWG
 10
2.570833333333334
 20
-0.2
  0
VERTEX
  8
OBS_DRLDWG
 10
2.570833333333334
 20
-1.5
  0
SEQEND
  8
OBS_DRLDWG
  0
POLYLINE
  8
OBS_DRLDWG
 66
1
 70
0
 40
0.01
 41
0.01
  0
VERTEX
  8
OBS_DRLDWG
 10
3.724991666666668
 20
  0
  0
VERTEX
  8
OBS_DRLDWG
 10
3.724991666666668
 20
-1.5
  0
SEQEND
  8
OBS_DRLDWG
  0
POLYLINE
  8
OBS_DRLDWG
 66
1
 70
0
 40
0.01
 41
0.01
  0
VERTEX
  8
OBS_DRLDWG
 10
3.729991666666668
 20
  0
  0
VERTEX
  8
OBS_DRLDWG
 10
3.729991666666668
 20
-1.5
  0
SEQEND
  8
OBS_DRLDWG
  0
POLYLINE
  8
OBS_DRLDWG
 66
1
 70
0
 40
0.01
 41
0.01
  0
VERTEX
  8
OBS_DRLDWG
 10
-0.005000000000000001
 20
0.005000000000000001
  0
VERTEX
  8
OBS_DRLDWG
 10
3.729991666666668
 20
0.005000000000000001
  0
SEQEND
  8
OBS_DRLDWG
  0
POLYLINE
  8
OBS_DRLDWG
 66
1
 70
0
 40
0.01
 41
0.01
  0
VERTEX
  8
OBS_DRLDWG
 10
  0
 20
  0
  0
VERTEX
  8
OBS_DRLDWG
 10
3.724991666666668
 20
  0
  0
SEQEND
  8
OBS_DRLDWG
  0
POLYLINE
  8
OBS_DRLDWG
 66
1
 70
0
 40
0.01
 41
0.01
  0
VERTEX
  8
OBS_DRLDWG
 10
  0
 20
-0.1950000000000001
  0
VERTEX
  8
OBS_DRLDWG
 10
3.724991666666668
 20
-0.1950000000000001
  0
SEQEND
  8
OBS_DRLDWG
  0
POLYLINE
  8
OBS_DRLDWG
 66
1
 70
0
 40
0.01
 41
0.01
  0
VERTEX
  8
OBS_DRLDWG
 10
  0
 20
-0.2
  0
VERTEX
  8
OBS_DRLDWG
 10
3.724991666666668
 20
-0.2
  0
SEQEND
  8
OBS_DRLDWG
  0
POLYLINE
  8
OBS_DRLDWG
 66
1
 70
0
 40
0.01
 41
0.01
  0
VERTEX
  8
OBS_DRLDWG
 10
  0
 20
-0.3950000000000001
  0
VERTEX
  8
OBS_DRLDWG
 10
3.724991666666668
 20
-0.3950000000000001
  0
SEQEND
  8
OBS_DRLDWG
  0
POLYLINE
  8
OBS_DRLDWG
 66
1
 70
0
 40
0.01
 41
0.01
  0
VERTEX
  8
OBS_DRLDWG
 10
  0
 20
-0.4000000000000001
  0
VERTEX
  8
OBS_DRLDWG
 10
3.724991666666668
 20
-0.4000000000000001
  0
SEQEND
  8
OBS_DRLDWG
  0
POLYLINE
  8
OBS_DRLDWG
 66
1
 70
0
 40
0.01
 41
0.01
  0
VERTEX
  8
OBS_DRLDWG
 10
  0
 20
-0.5500000000000002
  0
VERTEX
  8
OBS_DRLDWG
 10
3.724991666666668
 20
-0.5500000000000002
  0
SEQEND
  8
OBS_DRLDWG
  0
POLYLINE
  8
OBS_DRLDWG
 66
1
 70
0
 40
0.01
 41
0.01
  0
VERTEX
  8
OBS_DRLDWG
 10
  0
 20
-0.7000000000000002
  0
VERTEX
  8
OBS_DRLDWG
 10
3.724991666666668
 20
-0.7000000000000002
  0
SEQEND
  8
OBS_DRLDWG
  0
POLYLINE
  8
OBS_DRLDWG
 66
1
 70
0
 40
0.01
 41
0.01
  0
VERTEX
  8
OBS_DRLDWG
 10
  0
 20
-0.8500000000000002
  0
VERTEX
  8
OBS_DRLDWG
 10
3.724991666666668
 20
-0.8500000000000002
  0
SEQEND
  8
OBS_DRLDWG
  0
POLYLINE
  8
OBS_DRLDWG
 66
1
 70
0
 40
0.01
 41
0.01
  0
VERTEX
  8
OBS_DRLDWG
 10
  0
 20
 -1
  0
VERTEX
  8
OBS_DRLDWG
 10
3.724991666666668
 20
 -1
  0
SEQEND
  8
OBS_DRLDWG
  0
POLYLINE
  8
OBS_DRLDWG
 66
1
 70
0
 40
0.01
 41
0.01
  0
VERTEX
  8
OBS_DRLDWG
 10
  0
 20
-1.15
  0
VERTEX
  8
OBS_DRLDWG
 10
3.724991666666668
 20
-1.15
  0
SEQEND
  8
OBS_DRLDWG
  0
POLYLINE
  8
OBS_DRLDWG
 66
1
 70
0
 40
0.01
 41
0.01
  0
VERTEX
  8
OBS_DRLDWG
 10
  0
 20
-1.3
  0
VERTEX
  8
OBS_DRLDWG
 10
3.724991666666668
 20
-1.3
  0
SEQEND
  8
OBS_DRLDWG
  0
POLYLINE
  8
OBS_DRLDWG
 66
1
 70
0
 40
0.01
 41
0.01
  0
VERTEX
  8
OBS_DRLDWG
 10
  0
 20
-1.5
  0
VERTEX
  8
OBS_DRLDWG
 10
3.724991666666668
 20
-1.5
  0
SEQEND
  8
OBS_DRLDWG
  0
POLYLINE
  8
OBS_DRLDWG
 66
1
 70
0
 40
0.01
 41
0.01
  0
VERTEX
  8
OBS_DRLDWG
 10
-0.005000000000000001
 20
-1.505
  0
VERTEX
  8
OBS_DRLDWG
 10
3.729991666666668
 20
-1.505
  0
SEQEND
  8
OBS_DRLDWG
  0
POLYLINE
  8
OBS_DRLDWG
 66
1
 70
0
 40
0.01
 41
0.01
  0
VERTEX
  8
OBS_DRLDWG
 10
0.1575
 20
-0.4500000000000001
  0
VERTEX
  8
OBS_DRLDWG
 10
0.2075000000000001
 20
-0.5000000000000001
  0
SEQEND
  8
OBS_DRLDWG
  0
POLYLINE
  8
OBS_DRLDWG
 66
1
 70
0
 40
0.01
 41
0.01
  0
VERTEX
  8
OBS_DRLDWG
 10
0.1575
 20
-0.5000000000000001
  0
VERTEX
  8
OBS_DRLDWG
 10
0.2075000000000001
 20
-0.4500000000000001
  0
SEQEND
  8
OBS_DRLDWG
  0
POLYLINE
  8
OBS_DRLDWG
 66
1
 70
0
 40
0.01
 41
0.01
  0
VERTEX
  8
OBS_DRLDWG
 10
0.1825000000000001
 20
-0.6500000000000001
  0
VERTEX
  8
OBS_DRLDWG
 10
0.1825000000000001
 20
-0.6000000000000002
  0
SEQEND
  8
OBS_DRLDWG
  0
POLYLINE
  8
OBS_DRLDWG
 66
1
 70
0
 40
0.01
 41
0.01
  0
VERTEX
  8
OBS_DRLDWG
 10
0.1575
 20
-0.6250000000000001
  0
VERTEX
  8
OBS_DRLDWG
 10
0.2075000000000001
 20
-0.6250000000000001
  0
SEQEND
  8
OBS_DRLDWG
  0
POLYLINE
  8
OBS_DRLDWG
 66
1
 70
0
 40
0.01
 41
0.01
  0
VERTEX
  8
OBS_DRLDWG
 10
0.1825000000000001
 20
-0.8000000000000002
  0
VERTEX
  8
OBS_DRLDWG
 10
0.1575
 20
-0.7750000000000002
  0
SEQEND
  8
OBS_DRLDWG
  0
POLYLINE
  8
OBS_DRLDWG
 66
1
 70
0
 40
0.01
 41
0.01
  0
VERTEX
  8
OBS_DRLDWG
 10
0.2075000000000001
 20
-0.7750000000000002
  0
VERTEX
  8
OBS_DRLDWG
 10
0.1825000000000001
 20
-0.8000000000000002
  0
SEQEND
  8
OBS_DRLDWG
  0
POLYLINE
  8
OBS_DRLDWG
 66
1
 70
0
 40
0.01
 41
0.01
  0
VERTEX
  8
OBS_DRLDWG
 10
0.1825000000000001
 20
-0.7500000000000002
  0
VERTEX
  8
OBS_DRLDWG
 10
0.2075000000000001
 20
-0.7750000000000002
  0
SEQEND
  8
OBS_DRLDWG
  0
POLYLINE
  8
OBS_DRLDWG
 66
1
 70
0
 40
0.01
 41
0.01
  0
VERTEX
  8
OBS_DRLDWG
 10
0.1575
 20
-0.7750000000000002
  0
VERTEX
  8
OBS_DRLDWG
 10
0.1825000000000001
 20
-0.7500000000000002
  0
SEQEND
  8
OBS_DRLDWG
  0
POLYLINE
  8
OBS_DRLDWG
 66
1
 70
0
 40
0.01
 41
0.01
  0
VERTEX
  8
OBS_DRLDWG
 10
0.1575
 20
-0.9000000000000002
  0
VERTEX
  8
OBS_DRLDWG
 10
0.2075000000000001
 20
-0.9500000000000003
  0
SEQEND
  8
OBS_DRLDWG
  0
POLYLINE
  8
OBS_DRLDWG
 66
1
 70
0
 40
0.01
 41
0.01
  0
VERTEX
  8
OBS_DRLDWG
 10
0.1575
 20
-0.9500000000000003
  0
VERTEX
  8
OBS_DRLDWG
 10
0.2075000000000001
 20
-0.9000000000000002
  0
SEQEND
  8
OBS_DRLDWG
  0
POLYLINE
  8
OBS_DRLDWG
 66
1
 70
0
 40
0.01
 41
0.01
  0
VERTEX
  8
OBS_DRLDWG
 10
0.2075000000000001
 20
-0.9500000000000003
  0
VERTEX
  8
OBS_DRLDWG
 10
0.1575
 20
-0.9500000000000003
  0
SEQEND
  8
OBS_DRLDWG
  0
POLYLINE
  8
OBS_DRLDWG
 66
1
 70
0
 40
0.01
 41
0.01
  0
VERTEX
  8
OBS_DRLDWG
 10
0.2075000000000001
 20
-0.9000000000000002
  0
VERTEX
  8
OBS_DRLDWG
 10
0.2075000000000001
 20
-0.9500000000000003
  0
SEQEND
  8
OBS_DRLDWG
  0
POLYLINE
  8
OBS_DRLDWG
 66
1
 70
0
 40
0.01
 41
0.01
  0
VERTEX
  8
OBS_DRLDWG
 10
0.1575
 20
-0.9000000000000002
  0
VERTEX
  8
OBS_DRLDWG
 10
0.2075000000000001
 20
-0.9000000000000002
  0
SEQEND
  8
OBS_DRLDWG
  0
POLYLINE
  8
OBS_DRLDWG
 66
1
 70
0
 40
0.01
 41
0.01
  0
VERTEX
  8
OBS_DRLDWG
 10
0.1575
 20
-0.9500000000000003
  0
VERTEX
  8
OBS_DRLDWG
 10
0.1575
 20
-0.9000000000000002
  0
SEQEND
  8
OBS_DRLDWG
  0
POLYLINE
  8
OBS_DRLDWG
 66
1
 70
0
 40
0.01
 41
0.01
  0
VERTEX
  8
OBS_DRLDWG
 10
0.1825000000000001
 20
-1.1
  0
VERTEX
  8
OBS_DRLDWG
 10
0.1825000000000001
 20
-1.05
  0
SEQEND
  8
OBS_DRLDWG
  0
POLYLINE
  8
OBS_DRLDWG
 66
1
 70
0
 40
0.01
 41
0.01
  0
VERTEX
  8
OBS_DRLDWG
 10
0.1575
 20
-1.075
  0
VERTEX
  8
OBS_DRLDWG
 10
0.2075000000000001
 20
-1.075
  0
SEQEND
  8
OBS_DRLDWG
  0
POLYLINE
  8
OBS_DRLDWG
 66
1
 70
0
 40
0.01
 41
0.01
  0
VERTEX
  8
OBS_DRLDWG
 10
0.2075000000000001
 20
-1.1
  0
VERTEX
  8
OBS_DRLDWG
 10
0.1575
 20
-1.1
  0
SEQEND
  8
OBS_DRLDWG
  0
POLYLINE
  8
OBS_DRLDWG
 66
1
 70
0
 40
0.01
 41
0.01
  0
VERTEX
  8
OBS_DRLDWG
 10
0.2075000000000001
 20
-1.05
  0
VERTEX
  8
OBS_DRLDWG
 10
0.2075000000000001
 20
-1.1
  0
SEQEND
  8
OBS_DRLDWG
  0
POLYLINE
  8
OBS_DRLDWG
 66
1
 70
0
 40
0.01
 41
0.01
  0
VERTEX
  8
OBS_DRLDWG
 10
0.1575
 20
-1.05
  0
VERTEX
  8
OBS_DRLDWG
 10
0.2075000000000001
 20
-1.05
  0
SEQEND
  8
OBS_DRLDWG
  0
POLYLINE
  8
OBS_DRLDWG
 66
1
 70
0
 40
0.01
 41
0.01
  0
VERTEX
  8
OBS_DRLDWG
 10
0.1575
 20
-1.1
  0
VERTEX
  8
OBS_DRLDWG
 10
0.1575
 20
-1.05
  0
SEQEND
  8
OBS_DRLDWG
  0
POLYLINE
  8
OBS_DRLDWG
 66
1
 70
0
 40
0.01
 41
0.01
  0
VERTEX
  8
OBS_DRLDWG
 10
0.2075000000000001
 20
-1.225
  0
VERTEX
  8
OBS_DRLDWG
 10
0.1575
 20
-1.225
  0
SEQEND
  8
OBS_DRLDWG
  0
POLYLINE
  8
OBS_DRLDWG
 66
1
 70
0
 40
0.01
 41
0.01
  0
VERTEX
  8
OBS_DRLDWG
 10
0.2075000000000001
 20
-1.25
  0
VERTEX
  8
OBS_DRLDWG
 10
0.2075000000000001
 20
-1.225
  0
SEQEND
  8
OBS_DRLDWG
  0
POLYLINE
  8
OBS_DRLDWG
 66
1
 70
0
 40
0.01
 41
0.01
  0
VERTEX
  8
OBS_DRLDWG
 10
0.1825000000000001
 20
-1.25
  0
VERTEX
  8
OBS_DRLDWG
 10
0.2075000000000001
 20
-1.25
  0
SEQEND
  8
OBS_DRLDWG
  0
POLYLINE
  8
OBS_DRLDWG
 66
1
 70
0
 40
0.01
 41
0.01
  0
VERTEX
  8
OBS_DRLDWG
 10
0.1825000000000001
 20
-1.2
  0
VERTEX
  8
OBS_DRLDWG
 10
0.1825000000000001
 20
-1.25
  0
SEQEND
  8
OBS_DRLDWG
  0
POLYLINE
  8
OBS_DRLDWG
 66
1
 70
0
 40
0.01
 41
0.01
  0
VERTEX
  8
OBS_DRLDWG
 10
0.1575
 20
-1.2
  0
VERTEX
  8
OBS_DRLDWG
 10
0.1825000000000001
 20
-1.2
  0
SEQEND
  8
OBS_DRLDWG
  0
POLYLINE
  8
OBS_DRLDWG
 66
1
 70
0
 40
0.01
 41
0.01
  0
VERTEX
  8
OBS_DRLDWG
 10
0.1575
 20
-1.225
  0
VERTEX
  8
OBS_DRLDWG
 10
0.1575
 20
-1.2
  0
SEQEND
  8
OBS_DRLDWG
  0
POLYLINE
  8
OBS_TOP
 66
1
 70
0
 40
0.01
 41
0.01
  0
VERTEX
  8
OBS_TOP
 10
-0.6720333333333335
 20
0.9438666666666669
  0
VERTEX
  8
OBS_TOP
 10
-0.7282833333333335
 20
0.9251166666666669
  0
VERTEX
  8
OBS_TOP
 10
-0.6720333333333335
 20
0.9063666666666669
 42
-0.2039045045075666
  0
SEQEND
  8
OBS_TOP
  0
POLYLINE
  8
OBS_TOP
 66
1
 70
0
 40
0.01
 41
0.01
  0
VERTEX
  8
OBS_TOP
 10
-0.7282833333333335
 20
0.9251166666666669
  0
VERTEX
  8
OBS_TOP
 10
-0.4157833333333335
 20
0.9251166666666669
  0
SEQEND
  8
OBS_TOP
  0
POLYLINE
  8
OBS_TOP
 66
1
 70
0
 40
0.01
 41
0.01
  0
VERTEX
  8
OBS_TOP
 10
-0.7282833333333335
 20
1.037616666666667
  0
VERTEX
  8
OBS_TOP
 10
-0.7282833333333335
 20
0.8126166666666669
  0
SEQEND
  8
OBS_TOP
  0
POLYLINE
  8
OBS_TOP
 66
1
 70
0
 40
0.01
 41
0.01
  0
VERTEX
  8
OBS_TOP
 10
0.1996333333333334
 20
0.9063666666666669
  0
VERTEX
  8
OBS_TOP
 10
0.2558833333333334
 20
0.9251166666666669
  0
VERTEX
  8
OBS_TOP
 10
0.1996333333333334
 20
0.9438666666666669
 42
-0.2000640782449913
  0
SEQEND
  8
OBS_TOP
  0
POLYLINE
  8
OBS_TOP
 66
1
 70
0
 40
0.01
 41
0.01
  0
VERTEX
  8
OBS_TOP
 10
0.2558833333333334
 20
0.9251166666666669
  0
VERTEX
  8
OBS_TOP
 10
-0.05661666666666668
 20
0.9251166666666669
  0
SEQEND
  8
OBS_TOP
  0
POLYLINE
  8
OBS_TOP
 66
1
 70
0
 40
0.01
 41
0.01
  0
VERTEX
  8
OBS_TOP
 10
0.2558833333333334
 20
1.037616666666667
  0
VERTEX
  8
OBS_TOP
 10
0.2558833333333334
 20
0.8126166666666669
  0
SEQEND
  8
OBS_TOP
  0
ENDSEC
  0
EOF
